<svg width="120" height="57" viewBox="0 0 120 57" fill="none" xmlns="http://www.w3.org/2000/svg">
<path d="M38.3581 21.2247H26.4423V0.216754H37.4169V2.85202C35.9086 2.60775 34.3811 2.50273 32.8537 2.5383C31.7927 2.5383 30.726 2.5383 29.6594 2.5383V8.84126H36.5042V11.1229H29.6594V18.8233C30.8515 18.8861 32.0722 18.8861 33.2643 18.8861C35.309 18.9377 37.3528 18.7559 39.3563 18.3442L38.3581 21.2247Z" fill="black"/>
<path d="M60.1475 0.222458L52.5953 11.756V21.2304H49.3669V11.756L41.558 0.222458H45.3512L51.215 8.93823L56.7935 0.222458H60.1475Z" fill="black"/>
<path d="M83.1291 21.8237C80.682 21.1677 80.1801 20.9167 78.6115 18.8747L67.5114 4.5176V21.2247H64.6594V0.216754H68.1674L80.2713 15.8972V0.216754H83.1234L83.1291 21.8237Z" fill="black"/>
<path d="M100.726 21.2247H88.8103V0.216754H99.7849V2.85202C98.2767 2.60759 96.7491 2.50257 95.2216 2.5383C94.155 2.5383 93.0883 2.5383 92.0217 2.5383V8.84126H98.8665V11.1229H92.0217V18.8233C93.2138 18.8861 94.4345 18.8861 95.6266 18.8861C97.6784 18.9432 99.73 18.7652 101.741 18.3556L100.726 21.2247Z" fill="black"/>
<path d="M113.788 12.6687C112.639 12.6938 111.507 12.3889 110.526 11.7903L110.56 11.6933C110.748 11.6933 110.902 11.7275 111.09 11.7275C114.262 11.7275 116.452 10.2216 116.452 6.86767C116.452 3.9529 114.199 2.47555 111.501 2.47555C110.809 2.47187 110.117 2.51379 109.43 2.60104V21.2247H106.265V0.250978C107.896 0.125489 109.516 0 111.153 0C115.454 0 120 1.75684 120 6.7707C120 10.3471 117.268 12.6687 113.788 12.6687Z" fill="black"/>
<path d="M36.7609 31.4407C33.27 32.9066 29.7792 33.0834 26.3054 31.3722C24.5047 30.3997 22.7877 29.2798 21.1718 28.024C19.3636 26.7291 17.5782 25.4001 15.6788 24.2194C13.5524 22.8514 11.0828 22.1119 8.55444 22.0861H6.11881C6.55232 21.2989 22.2441 0.245274 22.2441 0.245274H3.50636L2.22866 3.55362C5.19476 2.91477 8.33198 2.94899 11.3551 2.94899C12.9637 2.94899 14.5722 2.94899 16.1807 3.01744L0.209427 24.1224C-0.167039 24.8354 0.0154901 25.7138 0.352028 27.0543L1.70959 26.3527L2.04042 26.193C4.31012 24.9793 6.92614 24.5768 9.45568 25.0522C11.3496 25.4427 13.1339 26.2472 14.6806 27.4079C16.8025 28.9252 18.8445 30.5337 20.955 32.0567C23.5903 33.9448 26.4708 35.616 29.9959 35.6046C34.1599 35.6046 38.204 31.5091 38.455 30.471C37.8846 30.7448 37.3142 31.2182 36.7894 31.435" fill="black"/>
<path d="M88.5593 36.0667C87.5098 36.6371 84.8175 40.1108 83.9505 41.4513C83.6481 41.9133 84.1387 41.6053 84.1387 41.6053C85.7757 40.1051 88.7761 36.6941 88.8673 36.175C88.8673 36.0495 88.6677 36.0096 88.5593 36.0667ZM74.7955 44.7881C75.6169 44.925 77.271 43.961 77.5562 43.3906C77.6874 43.134 77.7216 42.6149 77.5562 42.7062C74.8297 44.1493 74.8069 44.7881 74.8069 44.7881H74.7955ZM61.3168 43.2823C61.155 43.3849 61.0023 43.5013 60.8605 43.6302C60.0704 44.3223 59.4532 45.1896 59.058 46.1628C58.9741 46.3979 58.9242 46.6437 58.9097 46.8929C58.9064 46.9404 58.9064 46.9881 58.9097 47.0355V47.0983H58.9725C59.0256 47.0899 59.0774 47.0746 59.1265 47.0526C59.3661 46.9496 59.5922 46.8174 59.7995 46.6591C60.4433 46.1109 61.0179 45.4865 61.5108 44.7995L61.6591 44.6113V44.5714C61.433 44.2073 61.3478 43.7732 61.4195 43.3507V43.191L61.3168 43.2823ZM39.2992 56.8522C39.1419 56.8663 38.9839 56.8338 38.8449 56.7588C38.706 56.6837 38.5922 56.5694 38.5178 56.4301C38.4874 56.2783 38.5116 56.1208 38.5862 55.9852L39.0996 54.9984L39.1338 54.9299C39.5958 54.023 40.075 53.0875 40.5997 52.1863C41.7862 50.1613 43.0126 48.1193 44.199 46.14L45.7106 43.6188H45.3113L44.3473 43.6701H43.2749C41.8489 43.6701 38.9741 43.4591 38.7916 43.3108C38.7916 43.1511 39.0597 43.0427 39.1851 43.0313L40.5883 42.94L41.4896 42.883C43.0981 42.7689 44.7066 42.6605 46.3152 42.5407L46.3665 42.5008L46.4236 42.4267L47.6899 40.4987L47.7697 40.3732C48.4713 39.2609 49.2642 38.0003 50.0513 36.774C50.9126 35.4335 51.8139 34.0759 52.6124 32.8724L53.6848 31.2467L53.7875 31.1041C53.8265 31.0568 53.8626 31.0073 53.8959 30.9558C53.9465 30.8632 54.0218 30.7864 54.1134 30.7341C54.2051 30.6817 54.3094 30.6558 54.4149 30.6592C54.5403 30.6604 54.6636 30.6917 54.7743 30.7505C54.8465 30.7811 54.9117 30.8263 54.9656 30.8832C55.0196 30.9401 55.0613 31.0076 55.088 31.0813C55.1082 31.1559 55.1131 31.2337 55.1023 31.3102C55.0915 31.3867 55.0653 31.4602 55.0253 31.5262C54.7344 32.0624 54.4891 32.4845 54.2438 32.861L48.015 42.4495H48.2317L49.4125 42.3753L50.7643 42.2727L52.7436 42.1472L53.5023 42.1015H53.6164L54.5404 42.0502C54.5649 42.0553 54.5901 42.0553 54.6146 42.0502C54.9853 41.4798 55.3504 40.9094 55.7155 40.339L55.7782 40.242L60.5753 32.9808C60.6088 32.9395 60.6358 32.8934 60.6551 32.8439C60.735 32.6328 60.8206 32.399 61.1229 32.399C61.215 32.4018 61.3067 32.4132 61.3967 32.4332L61.5108 32.4674L61.6191 32.5016C61.6815 32.507 61.7418 32.5269 61.7953 32.5595C61.8487 32.5922 61.8939 32.6368 61.9272 32.6899C61.9571 32.7471 61.9728 32.8107 61.9728 32.8752C61.9728 32.9398 61.9571 33.0034 61.9272 33.0606V33.1348C61.8362 33.3993 61.7176 33.6536 61.5735 33.8934C60.7521 35.1597 59.925 36.4203 59.0922 37.6866L59.0409 37.7665C58.1853 39.067 56.7137 41.3087 56.4228 41.7593L56.2573 42.0217H58.2309C58.4933 42.0217 58.75 42.0217 59.0124 42.0217C59.2637 42.0082 59.5148 42.0526 59.7462 42.1515C59.9776 42.2504 60.1832 42.4011 60.3471 42.5921L60.3814 42.6434L60.4384 42.6092L60.6723 42.4609C60.7897 42.3917 60.9239 42.3561 61.0601 42.3582C61.2372 42.3546 61.4095 42.4154 61.545 42.5293C61.5957 42.5705 61.6382 42.6208 61.6705 42.6776L61.7161 42.7689L61.7845 42.689C61.8855 42.5577 62.015 42.4509 62.1632 42.3768C62.3114 42.3027 62.4745 42.2632 62.6402 42.2612C62.7939 42.2593 62.9461 42.2924 63.0851 42.3582C63.3027 42.4681 63.4793 42.6448 63.5891 42.8625C63.699 43.0801 63.7362 43.3271 63.6954 43.5675C63.6767 43.679 63.652 43.7895 63.6213 43.8983V44.0067H63.7296C64.8224 43.7468 65.8756 43.342 66.8611 42.8031C66.9611 42.7468 67.0454 42.6664 67.1064 42.5693C67.5057 41.8791 67.905 41.1832 68.2986 40.4873L68.6237 39.9169H67.8765C62.2979 39.8827 61.3225 39.529 61.0773 39.2666C61.0428 39.2297 61.0176 39.1851 61.0037 39.1365C60.9898 39.0879 60.9876 39.0367 60.9974 38.9871L68.521 38.9529C69.1542 38.9529 69.1713 38.9529 69.485 38.411V38.3711C70.0953 37.3558 70.6258 36.5173 71.1164 35.7358C71.3095 35.4077 71.5248 35.0933 71.7609 34.7947L71.9377 34.5836C72.0021 34.5015 72.0844 34.4351 72.1783 34.3896C72.2722 34.3442 72.3753 34.3208 72.4796 34.3212C72.5751 34.3211 72.6699 34.3385 72.7591 34.3726C72.8349 34.3954 72.9043 34.4357 72.9617 34.4902C73.0192 34.5447 73.0631 34.6118 73.09 34.6863C73.1122 34.7667 73.1144 34.8513 73.0965 34.9328C73.0786 35.0144 73.0411 35.0903 72.9873 35.154C72.4169 35.9697 72.0005 36.6028 71.5613 37.2873C71.3274 37.6581 71.1049 38.0403 70.8711 38.4281L70.6429 38.816H72.6222C73.1926 38.816 73.763 38.816 74.3335 38.816C74.626 38.8313 74.9164 38.8752 75.2005 38.9472C75.3478 38.9984 75.4728 39.0992 75.5541 39.2324C75.5918 39.2844 75.6162 39.3449 75.6252 39.4085C75.6341 39.4722 75.6273 39.537 75.6054 39.5975C75.5783 39.6573 75.5372 39.7098 75.4856 39.7505C75.434 39.7912 75.3734 39.8189 75.3088 39.8313H75.2575C75.0066 39.8701 74.7526 39.8854 74.4989 39.877C73.8315 39.877 72.9074 39.8313 72.2172 39.8028H70.1581C70.1229 39.811 70.0899 39.8266 70.0611 39.8484L69.5649 40.7154C68.625 42.2788 67.7738 43.8936 67.0152 45.5525C66.7843 46.1416 66.5938 46.7457 66.4447 47.3607V47.4633C66.4195 47.5334 66.4195 47.61 66.4447 47.6801V47.72H66.4847C66.513 47.7249 66.5419 47.7249 66.5702 47.72H66.7128C67.6192 47.5126 68.4899 47.1723 69.2968 46.7104L69.4508 46.6305C71.5038 45.5439 73.4582 44.2805 75.2917 42.8545C75.8657 42.4009 76.5283 42.0726 77.2368 41.8905C77.3679 41.8612 77.5018 41.8459 77.6361 41.8448C77.7139 41.839 77.7921 41.839 77.8699 41.8448C78.0116 41.859 78.1484 41.9041 78.2706 41.9771C78.3929 42.05 78.4976 42.149 78.5772 42.2669C78.6461 42.3948 78.6858 42.5362 78.6937 42.6811C78.7016 42.826 78.6774 42.9709 78.6229 43.1054C78.37 43.6685 77.9773 44.1574 77.4821 44.5257C76.8723 45.0455 76.1777 45.4564 75.4286 45.7407C75.218 45.8247 74.9937 45.8691 74.767 45.8719C74.636 45.8713 74.5057 45.854 74.3791 45.8206H74.3277V45.8719C74.1684 46.114 74.1072 46.4077 74.1566 46.6933C74.2251 46.9557 74.3448 46.9785 74.4532 46.9785H74.5217C74.9362 46.9344 75.3452 46.8484 75.7423 46.7218C77.5778 46.0415 79.3064 45.1022 80.876 43.9325C81.4253 43.5482 81.8767 43.0402 82.1936 42.4495C83.4561 40.2553 84.9433 38.1984 86.6314 36.3119C87.3331 35.5459 88.1217 34.8645 88.9814 34.2813C89.1971 34.1071 89.4631 34.0071 89.7401 33.9961C89.9101 33.9985 90.0768 34.0436 90.2249 34.1273C90.312 34.1585 90.3918 34.2074 90.4592 34.2709C90.5266 34.3344 90.5802 34.4111 90.6166 34.4962C90.653 34.5813 90.6714 34.673 90.6708 34.7656C90.6701 34.8582 90.6504 34.9496 90.6128 35.0342C90.4435 35.4998 90.2276 35.947 89.9682 36.369C88.9159 37.9886 87.7127 39.505 86.3747 40.898C85.2233 42.0694 83.992 43.1596 82.6899 44.1607L82.6214 44.2177L82.4218 44.6455C82.0847 45.2824 81.8225 45.9562 81.6403 46.6534C81.589 46.8986 81.5548 47.1496 81.5319 47.315V47.4234L82.0168 47.258C82.3248 47.1553 87.2474 44.5543 87.7893 44.5543C87.8577 44.5543 87.9433 44.5543 87.9661 44.6227C87.9889 44.6912 87.9034 44.771 87.8292 44.8224C86.8196 45.5753 85.7301 46.3739 84.6007 47.104C83.8118 47.6789 82.9158 48.0901 81.9655 48.3132C81.7926 48.3475 81.6169 48.3647 81.4407 48.3646C81.3363 48.3733 81.2313 48.3733 81.127 48.3646C80.9086 48.3499 80.7046 48.2504 80.5586 48.0873C80.4125 47.9242 80.3361 47.7105 80.3455 47.4919C80.3393 46.8217 80.4653 46.1568 80.7163 45.5354L80.7904 45.3414L80.6136 45.4555C79.4298 46.2325 78.1727 46.8916 76.8603 47.4234C76.1913 47.6946 75.4774 47.8378 74.7555 47.8455H74.6244C74.1468 47.8384 73.6891 47.6533 73.3409 47.3264C73.1642 47.1744 73.0352 46.9745 72.9694 46.7509C72.9036 46.5272 72.9039 46.2893 72.9702 46.0658L73.0044 45.9118L71.9492 46.5507C70.7923 47.2939 69.5635 47.9188 68.2815 48.4159C67.8392 48.5675 67.3851 48.682 66.9239 48.7582C66.826 48.7759 66.7268 48.7854 66.6273 48.7867C66.1924 48.7778 65.7744 48.6163 65.4465 48.3303C65.2426 48.1606 65.0999 47.9287 65.0402 47.6702C64.9804 47.4116 65.007 47.1407 65.1157 46.8986C65.3553 46.2199 65.6234 45.5582 65.8858 44.9136L66.171 44.212L66.0227 44.2691C65.7708 44.3701 65.5138 44.4577 65.2526 44.5315C64.5453 44.7197 63.8209 44.8737 63.182 45.0049C63.1152 45.013 63.0507 45.0349 62.9927 45.0692C62.9348 45.1036 62.8846 45.1497 62.8455 45.2045C62.2646 46.0195 61.595 46.7675 60.8491 47.4348C60.3347 47.8613 59.6918 48.1024 59.0238 48.1193H58.9496C58.7513 48.1218 58.5549 48.0796 58.3751 47.9956C58.1954 47.9117 58.0369 47.7882 57.9115 47.6345C57.7863 47.4756 57.6987 47.2904 57.6552 47.0928C57.6118 46.8953 57.6136 46.6904 57.6605 46.4936C57.9558 45.3032 58.5712 44.2163 59.4402 43.3507L59.4915 43.2994L59.5543 43.2423L59.4801 43.191L59.1892 43.0085C59.1404 42.9753 59.0828 42.9574 59.0238 42.9571C57.883 42.9571 56.7422 42.9762 55.6014 43.0142H55.55C53.9871 45.5297 51.9793 48.8038 50.1939 52.2661C50.017 52.6207 49.859 52.9844 49.7205 53.3556L49.6235 53.618C49.5037 53.9146 49.384 54.0572 49.0531 54.0572H48.979C48.8713 54.0597 48.7645 54.0384 48.6659 53.9951C48.5673 53.9517 48.4795 53.8872 48.4086 53.8062C48.3541 53.7229 48.3191 53.6283 48.3063 53.5295C48.2934 53.4307 48.3031 53.3303 48.3344 53.2358C48.412 52.9327 48.525 52.6398 48.671 52.3631C50.2015 49.3272 51.8942 46.3758 53.7419 43.5218L53.913 43.2423L53.9814 43.134H53.4566C52.8862 43.1682 52.2759 43.1967 51.6941 43.2366C51.1123 43.2766 50.6446 43.2994 50.1198 43.3393L49.0531 43.3849H48.5284L47.4332 43.4591H47.359V43.499C47.3373 43.5215 47.3182 43.5464 47.302 43.5732L46.6346 44.6569C45.933 45.7978 45.2029 46.9956 44.4956 48.1934C43.6742 49.5852 42.8699 50.9827 42.06 52.3859L42.0258 52.4487C41.866 52.7225 41.5409 53.3499 41.1987 54.0173C40.6283 55.1124 40.0065 56.3502 39.7898 56.6297C39.7303 56.6946 39.6566 56.7449 39.5745 56.7765C39.4923 56.8082 39.404 56.8204 39.3163 56.8123" fill="black"/>
</svg>
