<svg id="Layer_1" data-name="Layer 1" xmlns="http://www.w3.org/2000/svg" viewBox="0 0 620 400"><defs><style>.cls-1{fill:#fff;}.cls-2{fill:#e0b87e;}.cls-3{fill:#a46727;}.cls-4{fill:#32593d;}</style></defs><rect class="cls-1" x="-3.17" y="-2.09" width="628.38" height="407.26"/><path class="cls-2" d="M306.69,161.61c-1,1.09-2,2.23-2.88,3.4a42.84,42.84,0,0,0-24-11v-4.48A47.18,47.18,0,0,1,306.69,161.61Z"/><path class="cls-2" d="M301.21,168.69a42.59,42.59,0,0,0-2.3,4A34,34,0,0,0,279.79,163v-4.5A38.29,38.29,0,0,1,301.21,168.69Z"/><path class="cls-2" d="M293,196.65a52.56,52.56,0,0,0,.63,8.11,30.19,30.19,0,0,1-13.86-25.41V167.53A29.45,29.45,0,0,1,296.85,177,51.52,51.52,0,0,0,293,196.65Z"/><path class="cls-3" d="M340.25,149.51V154a42.77,42.77,0,0,0-24.34,11q-1.65,1.53-3.15,3.21a45.12,45.12,0,0,0-2.87,3.62,44.09,44.09,0,0,0-2.6,4.13,41.75,41.75,0,0,0-2.3,4.88h0a42.29,42.29,0,0,0-2,6.6,43.42,43.42,0,0,0,0,18.37c.23,1,.5,2.07.8,3.08-.63-.13-1.2-.27-1.8-.44a30.48,30.48,0,0,1-3.22-1.09,47.46,47.46,0,0,1,1.35-26.14,45.94,45.94,0,0,1,2-4.93,47.19,47.19,0,0,1,2.31-4.26,48.84,48.84,0,0,1,5.47-7.29c1-1.11,2.05-2.15,3.15-3.15A47.15,47.15,0,0,1,340.25,149.51Z"/><path class="cls-3" d="M340.25,158.49V163a33.9,33.9,0,0,0-26.89,46.4c-.74.08-1.5.14-2.25.16H310c-.46,0-.92,0-1.39,0a33,33,0,0,1-1.07-3.55,38.33,38.33,0,0,1,4.9-30,39.47,39.47,0,0,1,2.88-3.92A38.61,38.61,0,0,1,340.25,158.49Z"/><path class="cls-3" d="M340.25,167.49v11.86A30.24,30.24,0,0,1,321,207.51a31.37,31.37,0,0,1-3.15,1c-.38-.88-.73-1.79-1-2.72a29.45,29.45,0,0,1,6-28.84h0A29.47,29.47,0,0,1,340.25,167.49Z"/><path class="cls-4" d="M340.25,117.38V145a51.6,51.6,0,0,0-21.07,6.62,53.59,53.59,0,0,0-7.62,5.32c-.57.49-1.13,1-1.68,1.48-.36-.32-.73-.63-1.09-1a18.85,18.85,0,0,0-.63-4.84,7.4,7.4,0,0,0-.63-1.7c-2.46-5.29-5.42-5.91-7.32-5.37-2.15.59-2.4-.22-2.53-.63a1.44,1.44,0,0,1-1.26-1.08c-.13-2.34,2.37-4.25,3.46-5.1a3.9,3.9,0,0,1,2.57-3.15c2.19-4.59,5.42-4.37,6.31-4.2,4.87,1.41,3,5.16,2.72,5.8-.81.83-1,.35-1.05,0,.55-3-1.09-3.21-1.6-3.31-2.85-.25-3.26,1.89-3.35,2.92,1.26-1.35,3.69-.55,3.47.11s-.58,1-2.68,1.46a8.83,8.83,0,0,1,5.5,3.28,6.23,6.23,0,0,1,1.38-2c6.93-3.84,8.83-4.36,10.58-4.92a2.09,2.09,0,0,0,2.37-.82,3.76,3.76,0,0,0,1.85-1.56c1.78-3.1-1.5-3.1-1.5-3.1s-5-2.81-6.09-3.37c-.95-2.42-2.29-2.37-2.29-2.37a10.44,10.44,0,0,0,0-2.9c-.69-.69-3.28,1.52-3.28,1.52a6.05,6.05,0,0,0-1.21-.7c.91-3,.35-5.18,0-5.26s-1.2,3.06-1.5,3.54-.39.52-1.08.63c.08-2.59-.22-3.24-.52-3.45s-.91,1.68-1.55,2.85c-1.17,1.21-1.08,1.6-1.69,3.19a11.57,11.57,0,0,0-8.11-2.59c.82,7.68,4.23,6.45,6,6.34C294.55,132.6,290.52,140,289.6,147a51.37,51.37,0,0,0-9.84-1.89V117.38a81.63,81.63,0,0,1,60.43,0Z"/><path class="cls-4" d="M209.61,255.17a2,2,0,0,0-.07,1.35,1.67,1.67,0,0,0,.63.85,1.63,1.63,0,0,0,.93.29h.36v.4h-8.13v-.4h.36a3.61,3.61,0,0,0,1.89-.57,4.22,4.22,0,0,0,1.6-1.92Zm8.52-25.49.33,3.45L208.56,258H206l10.19-23.82.29-.63c.17-.35.36-.78.56-1.26s.38-1,.53-1.47a3.26,3.26,0,0,0,.24-1.07Zm5.12,18v1.34H211.12v-1.34Zm-5.12-18,12.17,28.14h-4.64l-8.82-23.07Zm6.51,25.49h4.48a4.22,4.22,0,0,0,1.6,1.92,3.61,3.61,0,0,0,1.89.57h.32v.4H222.77v-.4h.36a1.78,1.78,0,0,0,1.39-.63A1.69,1.69,0,0,0,224.64,255.17Z"/><path class="cls-4" d="M237.6,233.21h-.12a2.35,2.35,0,0,0-.76-1.76,2.43,2.43,0,0,0-1.78-.73h-.47l-.05-.4h3.15Zm0,22v2.89h-3.15v-.4H235a2.39,2.39,0,0,0,1.77-.73,2.49,2.49,0,0,0,.77-1.76Zm3.56-24.85V258h-3.68V230.32Zm7,0a16.25,16.25,0,0,1,7.65,1.7,12.38,12.38,0,0,1,5.07,4.84,15.61,15.61,0,0,1,0,14.64,12.63,12.63,0,0,1-5.07,4.84,16.12,16.12,0,0,1-7.65,1.72h-8.82l-.05-1.35H248a10,10,0,0,0,5.59-1.54,10.22,10.22,0,0,0,3.69-4.36,17.42,17.42,0,0,0,0-13.23,9.77,9.77,0,0,0-9.28-5.91h-9.07v-1.35Z"/><path class="cls-4" d="M269.05,233.21h-.12a2.54,2.54,0,0,0-.78-1.76,2.39,2.39,0,0,0-1.76-.73h-.49v-.4h3.15Zm0,22v2.89H265.9v-.4h.51a2.39,2.39,0,0,0,1.76-.73,2.54,2.54,0,0,0,.78-1.76Zm1.7-27.43a2,2,0,0,1-1.41-.55,1.83,1.83,0,0,1-.57-1.39,1.95,1.95,0,0,1,2-1.94,2,2,0,0,1,1.94,1.94,1.84,1.84,0,0,1-.58,1.39,1.86,1.86,0,0,1-1.34.53Zm1.89,2.58V258H269V230.32Zm-.12,2.89v-2.89h3.15v.4h-.52a2.39,2.39,0,0,0-1.76.73,2.49,2.49,0,0,0-.77,1.76Zm0,22h.12a2.49,2.49,0,0,0,.77,1.76,2.39,2.39,0,0,0,1.76.73h.52v.4h-3.15Z"/><path class="cls-4" d="M283.09,233.21H283a2.55,2.55,0,0,0-.77-1.76,2.39,2.39,0,0,0-1.76-.73h-.52v-.4h3.15Zm0,22v2.89h-3.15v-.4h.52a2.39,2.39,0,0,0,1.76-.73,2.53,2.53,0,0,0,.77-1.76Zm3.6-24.85V258H283V230.32Zm-.11,2.89v-2.89h3.15v.4h-.52a2.39,2.39,0,0,0-1.76.73,2.54,2.54,0,0,0-.78,1.76Zm10.71,23.47.31,1.38H286.54v-1.35Zm2.57-5.59-2.14,7h-7l1.43-1.38a7.73,7.73,0,0,0,3.45-.7,6.3,6.3,0,0,0,2.3-2,12.62,12.62,0,0,0,1.54-2.93Z"/><path class="cls-4" d="M316,233.21h-.12a2.35,2.35,0,0,0-.76-1.76,2.43,2.43,0,0,0-1.78-.73h-.47l0-.4H316Zm0,22v2.89h-3.15l0-.4h.47a2.43,2.43,0,0,0,1.78-.73,2.35,2.35,0,0,0,.76-1.76Zm3.57-24.85V258h-3.69V230.32Zm2.33,0a13.4,13.4,0,0,1,4.86.79,6.89,6.89,0,0,1,3.15,2.28A6,6,0,0,1,331,237a6.57,6.57,0,0,1-.63,3,5.57,5.57,0,0,1-1.69,2,6.19,6.19,0,0,1-2.18,1,8.64,8.64,0,0,1,3.63,1.31,7,7,0,0,1,2.39,2.61,7.85,7.85,0,0,1,.81,3.65,6.94,6.94,0,0,1-1.17,4,7.32,7.32,0,0,1-3.39,2.62,13.76,13.76,0,0,1-5.31.91h-4.24c0-.53,0-1,0-1.54h3.53a7.37,7.37,0,0,0,3.39-.72,4.91,4.91,0,0,0,2.16-2.14,7.5,7.5,0,0,0,.75-3.49,7,7,0,0,0-.75-3.39,5.75,5.75,0,0,0-1.94-2,8,8,0,0,0-2.64-1,13.47,13.47,0,0,0-2.83-.3v-.36a8,8,0,0,0,1.94-.24,6.16,6.16,0,0,0,2-.83,4.23,4.23,0,0,0,1.5-1.72,6.36,6.36,0,0,0,.58-2.92,6.9,6.9,0,0,0-.63-3.1,4.07,4.07,0,0,0-1.89-1.89,6.76,6.76,0,0,0-3-.63h-4.13s0-.15-.1-.37-.16-.58-.29-1.06Z"/><path class="cls-4" d="M340.68,255.17a2,2,0,0,0-.08,1.35,1.67,1.67,0,0,0,.63.85,1.65,1.65,0,0,0,.93.29h.36v.4h-8.13v-.4h.36a3.61,3.61,0,0,0,1.89-.57,4.19,4.19,0,0,0,1.61-1.92Zm8.52-25.49.32,3.45L339.62,258H337l10.19-23.82.29-.63c.17-.35.36-.78.56-1.26s.38-1,.53-1.47a3.54,3.54,0,0,0,.24-1.07Zm5.11,18v1.34H342.18v-1.34Zm-5.11-18,12.16,28.14h-4.63l-8.82-23.07Zm6.5,25.49h4.48a4.19,4.19,0,0,0,1.61,1.92,3.58,3.58,0,0,0,1.89.57H364v.4H353.83v-.4h.36a1.78,1.78,0,0,0,1.39-.63A1.69,1.69,0,0,0,355.7,255.17Z"/><path class="cls-4" d="M368.66,233.21h-.12a2.35,2.35,0,0,0-.76-1.76,2.43,2.43,0,0,0-1.78-.73h-.47l0-.4h3.15Zm0,22v2.89h-3.15l0-.4H366a2.43,2.43,0,0,0,1.78-.73,2.35,2.35,0,0,0,.76-1.76Zm3.57-24.85V258h-3.69V230.32Zm2.33,0a13.36,13.36,0,0,1,4.86.79,6.84,6.84,0,0,1,3.15,2.28,5.82,5.82,0,0,1,1.09,3.59,6.32,6.32,0,0,1-.63,3,5.47,5.47,0,0,1-1.69,2,6,6,0,0,1-2.18,1,8.54,8.54,0,0,1,3.63,1.31,7,7,0,0,1,2.4,2.61,7.84,7.84,0,0,1,.83,3.65,6.86,6.86,0,0,1-1.17,4,7.32,7.32,0,0,1-3.39,2.62,13.76,13.76,0,0,1-5.31.91h-4.24c0-.53,0-1,0-1.54h3.52a7.37,7.37,0,0,0,3.39-.72,4.86,4.86,0,0,0,2.16-2.14,7.38,7.38,0,0,0,.75-3.49,6.79,6.79,0,0,0-.75-3.39,5.64,5.64,0,0,0-1.94-2.06,8.18,8.18,0,0,0-2.64-1,13.47,13.47,0,0,0-2.83-.3V243a8,8,0,0,0,1.94-.24,6.07,6.07,0,0,0,2-.83,4.23,4.23,0,0,0,1.5-1.72,6.39,6.39,0,0,0,.58-2.92,6.76,6.76,0,0,0-.63-3.1,4.1,4.1,0,0,0-1.89-1.9,6.9,6.9,0,0,0-3-.63h-4.19s0-.15-.1-.37l-.29-1.05Z"/><path class="cls-4" d="M393.35,255.17a2,2,0,0,0-.08,1.35,1.67,1.67,0,0,0,.63.85,1.65,1.65,0,0,0,.93.29h.36v.4h-8.13v-.4h.36a3.61,3.61,0,0,0,1.89-.57,4.19,4.19,0,0,0,1.61-1.92Zm8.52-25.49.32,3.45L392.28,258h-2.57l10.18-23.82.29-.63c.17-.35.36-.78.56-1.26s.38-1,.53-1.47a3.26,3.26,0,0,0,.24-1.07Zm5.11,18v1.34H394.85v-1.34Zm-5.11-18L414,257.82H409.4l-8.82-23.07Zm6.5,25.49h4.48a4.19,4.19,0,0,0,1.61,1.92,3.61,3.61,0,0,0,1.89.57h.32v.4H406.5v-.4h.36a1.78,1.78,0,0,0,1.39-.63,1.71,1.71,0,0,0,.12-1.86Z"/><path class="cls-3" d="M262.89,279.49l.16,3.08a4.47,4.47,0,0,1-1.05,1.2,5.28,5.28,0,0,1-1.66.87A7,7,0,0,1,258,285a8.9,8.9,0,0,1-3.83-.8,5.85,5.85,0,0,1-2.52-2.23,7.3,7.3,0,0,1,0-7,5.73,5.73,0,0,1,2.52-2.25,8.87,8.87,0,0,1,3.9-.78,10.09,10.09,0,0,1,2.57.29,7.93,7.93,0,0,1,1.89.69l0,3.06h-.16a4.32,4.32,0,0,0-1.58-2.52,4.38,4.38,0,0,0-2.56-.76,4.17,4.17,0,0,0-2.45.7,4.48,4.48,0,0,0-1.58,2,7.55,7.55,0,0,0-.55,3,7.86,7.86,0,0,0,.53,3.07,4.5,4.5,0,0,0,1.5,2,3.9,3.9,0,0,0,2.3.75,5.33,5.33,0,0,0,2.33-.45,3.42,3.42,0,0,0,1.53-1.48,8.61,8.61,0,0,0,.87-2.8Zm-5.67,5.38h.86l-.75.87a2.06,2.06,0,0,1,1.27,0,1.18,1.18,0,0,1,.56.37,1,1,0,0,1,.21.72,1.35,1.35,0,0,1-.51,1,2.28,2.28,0,0,1-1.16.55,2.71,2.71,0,0,1-1.38-.12v-.17a2.82,2.82,0,0,0,.77-.13,1.62,1.62,0,0,0,.68-.4,1.06,1.06,0,0,0,.31-.75.57.57,0,0,0-.26-.56,1.33,1.33,0,0,0-.68-.21,1.6,1.6,0,0,0-.71.13l-.09-.18Z"/><path class="cls-3" d="M271.43,273.49h-.05a1.14,1.14,0,0,0-.36-.79,1,1,0,0,0-.79-.33H270v-.18h1.43Zm0,9.92v1.31H270v-.18h.23a1.06,1.06,0,0,0,.79-.33,1.17,1.17,0,0,0,.36-.8Zm2.66-11.22v12.53h-2.71V272.19ZM272.73,271a1.08,1.08,0,0,1-1.16-1v-.07a1,1,0,0,1,.32-.78,1.11,1.11,0,0,1,1.57,0h0a1,1,0,0,1,.32.78,1.09,1.09,0,0,1-1.08,1.11h0Zm1.3,2.45v-1.3h1.44v.18h-.24a1.06,1.06,0,0,0-.8.33,1.12,1.12,0,0,0-.34.79Zm0,9.92h.06a1.15,1.15,0,0,0,.34.8,1.06,1.06,0,0,0,.8.33h.24v.18H274Z"/><path class="cls-3" d="M283.73,273.49h-.05a1.14,1.14,0,0,0-.36-.79,1,1,0,0,0-.79-.33h-.25v-.18h1.43Zm0,9.92v1.31h-1.45v-.18h.23a1.09,1.09,0,0,0,.8-.33,1.2,1.2,0,0,0,.35-.8Zm2.63-11.22v12.53h-2.68V272.19Zm4.94,0V273h-5v-.77Zm-.87,6v.75H286.3v-.75Zm-4.13,5.24h.06a1.16,1.16,0,0,0,.35.8,1.06,1.06,0,0,0,.8.33h.23v.18H286.3Zm4.13-6.93v1.72h-1.71v0a1.54,1.54,0,0,0,1.53-1.54v-.14Zm0,2.4v1.71h-.18v-.15a1.46,1.46,0,0,0-.41-1.05,1.54,1.54,0,0,0-1.09-.45v0Zm.87-7v.52l-2.18-.2a7.55,7.55,0,0,0,.83-.05l.82-.13a3.16,3.16,0,0,0,.53-.13Zm0,1v2h-.2v-.19a1.64,1.64,0,0,0-1.52-1.75h-.24v-.06Z"/><path class="cls-3" d="M297.84,271.83a3.29,3.29,0,0,0,.54.14c.25,0,.52.09.82.12a5.66,5.66,0,0,0,.82.06l-2.18.2Zm11.46.32v.75H297.84v-.75Zm-9.45.7v0a1.84,1.84,0,0,0-1.32.51,1.79,1.79,0,0,0-.49,1.34V275h-.19v-2.11Zm2.45,10.54v1.31h-1.43v-.18h.23a1,1,0,0,0,.79-.33,1.16,1.16,0,0,0,.35-.8Zm2.63-11.17V284.7h-2.69V272.24Zm-.06,11.17h.06a1.11,1.11,0,0,0,.35.8,1,1,0,0,0,.79.33h.23v.18h-1.43Zm4.41-11.56v.52l-2.18-.2a5.79,5.79,0,0,0,.83-.06,7.81,7.81,0,0,0,.81-.12,3.53,3.53,0,0,0,.56-.14Zm0,1V275h-.18v-.2a1.78,1.78,0,0,0-.49-1.33,1.89,1.89,0,0,0-1.34-.51v-.05Z"/><path class="cls-3" d="M317.09,273.49H317a1.13,1.13,0,0,0-.35-.79,1.06,1.06,0,0,0-.8-.33h-.21v-.18h1.44Zm0,9.92v1.31h-1.42v-.18h.24a1.06,1.06,0,0,0,.8-.33,1.15,1.15,0,0,0,.34-.8Zm2.62-11.22v12.53H317V272.19Zm0,1.3v-1.3h1.43v.18h-.23a1,1,0,0,0-.79.33,1.14,1.14,0,0,0-.36.79ZM324.45,284l.42.77h-5.21V284Zm1.3-2.88-.83,3.65h-3.51L322,284a3.44,3.44,0,0,0,1.58-.35,3.29,3.29,0,0,0,1.16-1,5.24,5.24,0,0,0,.77-1.53Z"/><path class="cls-3" d="M333.39,273.49h-.07a1.14,1.14,0,0,0-.36-.79,1,1,0,0,0-.79-.33h-.23v-.18h1.43Zm0,9.92v1.31H332v-.18h.24a1.09,1.09,0,0,0,.79-.33,1.16,1.16,0,0,0,.35-.8ZM336,272.19v12.53h-2.71V272.19ZM334.67,271a1.09,1.09,0,0,1-1.11-1.08v0a1.06,1.06,0,0,1,.32-.78,1.12,1.12,0,0,1,1.57,0h0a1.06,1.06,0,0,1,.32.78,1.08,1.08,0,0,1-1.08,1.11Zm1.3,2.45v-1.3h1.44v.18h-.24a1.06,1.06,0,0,0-.8.33,1.12,1.12,0,0,0-.34.79Zm0,9.92H336a1.15,1.15,0,0,0,.34.8,1.06,1.06,0,0,0,.8.33h.24v.18H336Z"/><path class="cls-3" d="M356.67,279.71v3a5.19,5.19,0,0,1-1.26,1.08,8.56,8.56,0,0,1-2,.88,9.35,9.35,0,0,1-2.62.35,7.47,7.47,0,0,1-3.57-.8,5.65,5.65,0,0,1-2.36-2.26,7.57,7.57,0,0,1,0-6.93,5.54,5.54,0,0,1,2.38-2.24,7.74,7.74,0,0,1,3.66-.8,13.34,13.34,0,0,1,1.89.13,14.56,14.56,0,0,1,1.72.35,6.59,6.59,0,0,1,1.3.5l0,3.06h-.16a5,5,0,0,0-1-1.94,3.73,3.73,0,0,0-1.5-1,5.05,5.05,0,0,0-1.8-.31,4.17,4.17,0,0,0-2.47.71,4.26,4.26,0,0,0-1.51,2,9.81,9.81,0,0,0,0,6.13,4.17,4.17,0,0,0,1.39,2,3.67,3.67,0,0,0,2.22.71,4.15,4.15,0,0,0,1.26-.2,3.34,3.34,0,0,0,1.08-.63,2.07,2.07,0,0,0,.63-1v-2.74c0-.53-.3-.81-.91-.81h-.29v-.17h5v.17h-.27C357,278.9,356.63,279.17,356.67,279.71ZM353,268.53a1.89,1.89,0,0,1-.17,1.26,2.35,2.35,0,0,1-.84.93,2.3,2.3,0,0,1-1.22.35,2.22,2.22,0,0,1-1.26-.35,2.26,2.26,0,0,1-.83-.93,2.1,2.1,0,0,1-.18-1.26h.19a1.74,1.74,0,0,0,.77.75,2.52,2.52,0,0,0,1.26.33,2.65,2.65,0,0,0,1.26-.32,1.58,1.58,0,0,0,.75-.76Z"/><path class="cls-3" d="M365.23,273.49h-.05a1.14,1.14,0,0,0-.36-.79,1,1,0,0,0-.79-.33h-.23v-.18h1.43Zm0,9.92v1.31H363.8v-.18H364a1.07,1.07,0,0,0,.79-.33,1.17,1.17,0,0,0,.36-.8Zm2.63-11.22v12.53h-2.68V272.19ZM366.5,271a1.09,1.09,0,0,1-1.11-1.08v0a1.08,1.08,0,0,1,.32-.78,1.11,1.11,0,0,1,1.57,0h0a1.12,1.12,0,0,1,.32.78,1.11,1.11,0,0,1-1.09,1.11h0Zm1.31,2.45v-1.3h1.42v.18H369a1,1,0,0,0-.79.33,1.14,1.14,0,0,0-.36.79Zm0,9.92h.05a1.16,1.16,0,0,0,.35.8,1.09,1.09,0,0,0,.8.33h.22v.18H367.8Z"/></svg>