<svg id="Layer_1" data-name="Layer 1" xmlns="http://www.w3.org/2000/svg" viewBox="0 0 620 400"><defs><style>.cls-1{fill:#fff;}.cls-2{fill:#20284e;}</style></defs><rect class="cls-1" x="-3.17" y="-2.09" width="628.38" height="407.26"/><path class="cls-2" d="M253.51,243.13l-43.3-43.3,43.3-43.29,43.29,43.29ZM225,199.83l28.54,28.53L282,199.83l-28.53-28.54Z"/><path class="cls-2" d="M217.59,156.54l-35.92,35.91-24.81-24.8L149.51,175l24.81,24.81h0l43.27,43.32,43.3-43.3Zm-28.54,43.29,28.54-28.54,28.53,28.54-28.48,28.53Z"/><path class="cls-2" d="M351.65,201.51q-4.59,3.5-11.87,3.5H323.17a1.06,1.06,0,0,1-.76-.28,1.07,1.07,0,0,1-.28-.76v-46.4a1.07,1.07,0,0,1,.28-.76,1,1,0,0,1,.76-.27H338.4q17,0,17,13.63,0,6.44-4.6,9.49c-.27.19-.3.34-.06.49q5.49,3.73,5.48,10.94Q356.27,198,351.65,201.51ZM335.11,168.1v6.81a.37.37,0,0,0,.31.42h3.09a4.25,4.25,0,0,0,3.05-1,3.8,3.8,0,0,0,1-2.87q0-3.83-4.08-3.81h-3a.37.37,0,0,0-.4.33.49.49,0,0,0,0,.12Zm7,24.65a4.46,4.46,0,0,0,1-3.19,4.61,4.61,0,0,0-1-3.15,3.64,3.64,0,0,0-2.87-1.14h-3.74a.37.37,0,0,0-.42.31v7.86a.37.37,0,0,0,.31.42h3.78a3.83,3.83,0,0,0,2.94-1.11Z"/><path class="cls-2" d="M391.3,167.41a1,1,0,0,1-.77.27H373.65a.37.37,0,0,0-.41.32.17.17,0,0,0,0,.1v6.51a.36.36,0,0,0,.31.41h9.86a.92.92,0,0,1,1,.79,1,1,0,0,1,0,.25v9a1,1,0,0,1-.89,1h-9.91a.36.36,0,0,0-.41.31.17.17,0,0,0,0,.1v6.92a.36.36,0,0,0,.3.42h17a1,1,0,0,1,1,1V204a1,1,0,0,1-.28.76,1.06,1.06,0,0,1-.76.28H361.25a.92.92,0,0,1-1-.78,1.13,1.13,0,0,1,0-.26v-46.4a1,1,0,0,1,.28-.76,1,1,0,0,1,.76-.27h29.28a1,1,0,0,1,.77.27,1,1,0,0,1,.27.76v9.07A1,1,0,0,1,391.3,167.41Z"/><path class="cls-2" d="M416.36,204.17l-5.89-17.46c0-.23-.2-.34-.48-.34h-1.25a.37.37,0,0,0-.41.32V204a.92.92,0,0,1-.78,1,1.13,1.13,0,0,1-.26,0H396.35a.92.92,0,0,1-1-.78,1.13,1.13,0,0,1,0-.26v-46.4a1,1,0,0,1,.28-.76,1,1,0,0,1,.76-.27h18.28a15.46,15.46,0,0,1,7.82,1.93,13.54,13.54,0,0,1,5.27,5.42,16.94,16.94,0,0,1,1.84,8.06,15.25,15.25,0,0,1-1.69,7.47,12.61,12.61,0,0,1-5,5,.54.54,0,0,0-.2.55l7.13,18.84a1.59,1.59,0,0,1,.07.48c0,.47-.3.7-.92.7H417.54A1.13,1.13,0,0,1,416.36,204.17Zm-8-36.07v8a.37.37,0,0,0,.32.42h3.77a4.12,4.12,0,0,0,3.05-1.18,4.31,4.31,0,0,0,1.17-3.14,4.48,4.48,0,0,0-1.14-3.26,4.12,4.12,0,0,0-3.09-1.17h-3.67a.37.37,0,0,0-.41.33v0Z"/><path class="cls-2" d="M433.88,204.73a1,1,0,0,1-.28-.76v-46.4a1,1,0,0,1,.28-.76,1,1,0,0,1,.76-.27h10.94a1,1,0,0,1,.76.27,1,1,0,0,1,.28.76v15.1c0,.23.06.36.18.38s.22-.06.31-.24L456,157.19a1.25,1.25,0,0,1,1.25-.65h11.94c.61,0,.92.21.92.62a1.31,1.31,0,0,1-.21.63l-12,20.14a.61.61,0,0,0,0,.56l12.46,25.27.14.55c0,.47-.31.7-.92.7H457.57a1.21,1.21,0,0,1-1.17-.77l-7.48-15.62c-.05-.18-.13-.26-.24-.25a.52.52,0,0,0-.31.25l-1.67,3a2.72,2.72,0,0,0-.13.49V204a.92.92,0,0,1-.79,1,1,1,0,0,1-.25,0H434.64A1,1,0,0,1,433.88,204.73Z"/><path class="cls-2" d="M326,242.46a7.27,7.27,0,0,1-2.91-2.83,8.5,8.5,0,0,1-1-4.22V224.24a8.52,8.52,0,0,1,1-4.17,7.23,7.23,0,0,1,2.87-2.83,9.57,9.57,0,0,1,8.57,0,7,7,0,0,1,2.89,2.83,8.29,8.29,0,0,1,1,4.17v11.17a8.4,8.4,0,0,1-1,4.22,7.1,7.1,0,0,1-2.89,2.83,9.57,9.57,0,0,1-8.57,0ZM333.6,239a4.74,4.74,0,0,0,1.26-3.43V224.17a4.83,4.83,0,0,0-1.26-3.46,4.32,4.32,0,0,0-3.3-1.33,4.25,4.25,0,0,0-3.27,1.33,4.78,4.78,0,0,0-1.25,3.46v11.39A4.74,4.74,0,0,0,327,239a4.31,4.31,0,0,0,3.27,1.31A4.37,4.37,0,0,0,333.6,239Z"/><path class="cls-2" d="M358.45,216.91v2.43a.33.33,0,0,1-.38.38H352a.14.14,0,0,0-.16.11v22.91a.34.34,0,0,1-.29.39h-3a.34.34,0,0,1-.38-.3v-23a.13.13,0,0,0-.11-.15h-5.89a.33.33,0,0,1-.38-.38v-2.43a.34.34,0,0,1,.29-.38h16a.34.34,0,0,1,.42.24A.33.33,0,0,1,358.45,216.91Z"/><path class="cls-2" d="M364.46,242.46a7.08,7.08,0,0,1-2.86-2.83,8.3,8.3,0,0,1-1-4.22V224.24a8.19,8.19,0,0,1,1-4.17,7,7,0,0,1,2.86-2.83,9.57,9.57,0,0,1,8.57,0,7,7,0,0,1,2.89,2.83,8.31,8.31,0,0,1,1,4.17v11.17a8.5,8.5,0,0,1-1,4.22,7.1,7.1,0,0,1-2.89,2.83A9.57,9.57,0,0,1,364.46,242.46ZM372,239a4.68,4.68,0,0,0,1.23-3.43V224.17a4.87,4.87,0,0,0-1.25-3.46,4.3,4.3,0,0,0-3.31-1.33,4.25,4.25,0,0,0-3.26,1.33,4.83,4.83,0,0,0-1.26,3.46v11.39a4.71,4.71,0,0,0,1.26,3.4,4.28,4.28,0,0,0,3.26,1.31A4.41,4.41,0,0,0,372,239Z"/><path class="cls-2" d="M396.75,216.53h2.89a.33.33,0,0,1,.38.29.14.14,0,0,1,0,.09v25.83a.34.34,0,0,1-.28.39h-3c-.25,0-.37-.13-.37-.39V223.61c0-.07,0-.12-.09-.12s-.08,0-.11.09l-4.52,7.49a.56.56,0,0,1-.46.26h-.6a.56.56,0,0,1-.46-.26l-4.54-7.46a.09.09,0,0,0-.11-.09c-.05,0-.08.06-.08.13v19.09a.34.34,0,0,1-.28.39h-3c-.25,0-.37-.13-.37-.39V216.91a.33.33,0,0,1,.27-.38h3a.57.57,0,0,1,.46.27l5.32,8.59a.2.2,0,0,0,.11,0,.24.24,0,0,0,.12,0l5.27-8.59A.56.56,0,0,1,396.75,216.53Z"/><path class="cls-2" d="M408.7,242.46a7.22,7.22,0,0,1-2.89-2.83,8.5,8.5,0,0,1-1-4.22V224.24a8.52,8.52,0,0,1,1-4.17,7.17,7.17,0,0,1,2.87-2.83,9.57,9.57,0,0,1,8.57,0,7,7,0,0,1,2.89,2.83,8.29,8.29,0,0,1,1,4.17v11.17a8.4,8.4,0,0,1-1,4.22,7.1,7.1,0,0,1-2.89,2.83,9.57,9.57,0,0,1-8.57,0Zm7.58-3.47a4.74,4.74,0,0,0,1.26-3.43V224.17a4.83,4.83,0,0,0-1.26-3.46,4.32,4.32,0,0,0-3.3-1.33,4.25,4.25,0,0,0-3.27,1.33,4.78,4.78,0,0,0-1.25,3.46v11.39a4.74,4.74,0,0,0,1.25,3.4,4.31,4.31,0,0,0,3.27,1.31A4.37,4.37,0,0,0,416.28,239Z"/><path class="cls-2" d="M441.13,216.91v2.43a.33.33,0,0,1-.38.38h-6.11a.14.14,0,0,0-.16.11v22.91a.34.34,0,0,1-.29.39h-3a.35.35,0,0,1-.38-.3v-23c0-.1,0-.15-.14-.15h-5.86a.33.33,0,0,1-.38-.38v-2.43a.34.34,0,0,1,.3-.38h16a.34.34,0,0,1,.4.27A.2.2,0,0,1,441.13,216.91Z"/><path class="cls-2" d="M459.56,242.78,452.76,217v-.12c0-.2.13-.3.38-.3h3.11c.26,0,.4.11.42.34l4.94,20.37c0,.07,0,.11.08.11s.05,0,.07-.11l4.95-20.37a.37.37,0,0,1,.41-.34h3a.34.34,0,0,1,.29.11.31.31,0,0,1,.05.31l-6.88,25.83a.38.38,0,0,1-.41.35H460a.41.41,0,0,1-.47-.33Z"/><path class="cls-2" d="M448.81,221.39v-4.48a.34.34,0,0,0-.3-.38h-3a.34.34,0,0,0-.38.3v5.91Z"/><path class="cls-2" d="M445.16,226.37v16.37a.34.34,0,0,0,.29.39h3a.34.34,0,0,0,.38-.3V225Z"/></svg>