<svg id="Layer_1" data-name="Layer 1" xmlns="http://www.w3.org/2000/svg" viewBox="0 0 620 400"><defs><style>.cls-1{fill:#fff;}.cls-2{fill:#111616;}</style></defs><rect class="cls-1" x="-3.17" y="-2.09" width="628.38" height="407.26"/><path class="cls-2" d="M271.65,171.05c0-.22,0-.44,0-.66v0c0-.12,0-.25,0-.37s0-.37,0-.55l0-.54q-.1-1.83-.36-3.51a21.65,21.65,0,0,0-5.16-11.71q-5.58-6.08-17-6.07H225v96.6h24a27.32,27.32,0,0,0,11.9-2.32c.25-.11.48-.23.72-.35a16.37,16.37,0,0,0,2.79-1.87l.21-.17h0l.22-.2.13-.11a1.07,1.07,0,0,1,.16-.14l.12-.12.12-.12.16-.15.05-.05.44-.46q.44-.48.84-1c.09-.11.18-.22.26-.34q3.9-5.17,4.41-13.75l0-.58h0l0-.69c0-.48,0-1,0-1.45V171.05Zm-15.18,50q0,5.25-2.07,7.32a7.64,7.64,0,0,1-5.66,2.07h-8.55v-69h8.55a7.64,7.64,0,0,1,5.66,2.07q2.07,2.07,2.07,7.31Z"/><path class="cls-2" d="M260.92,241.89c.25-.11.48-.23.72-.35l.23-.13.06,0,0,0,.11-.06h0l.21-.12h0q.38-.21.72-.45a17.25,17.25,0,0,1-2.07,1.16Zm6.48-5.4c.15-.21.3-.42.44-.64l.16-.25.06-.09.16-.27,0-.05c.06-.09.11-.19.17-.29l0-.05c.05-.09.1-.17.14-.26l.06-.11a1.27,1.27,0,0,0,.12-.23,1.09,1.09,0,0,0,.08-.15l.09-.17a1.63,1.63,0,0,0,.11-.23.49.49,0,0,0,.06-.13,2,2,0,0,0,.1-.21.88.88,0,0,0,.09-.2l.1-.21.06-.14c0-.08.07-.17.1-.26a1,1,0,0,0,.07-.15l.09-.24.06-.14.09-.24c0-.07.05-.13.07-.19q.3-.84.54-1.71c0-.14.08-.27.11-.41s.08-.28.11-.42l0-.13c0-.1,0-.2.07-.3l.06-.27,0-.12.06-.29c0-.07,0-.13,0-.19l.06-.35a.07.07,0,0,0,0-.05c0-.12.05-.24.07-.36l0-.17a2.51,2.51,0,0,1,0-.27c0-.09,0-.18,0-.27a1.11,1.11,0,0,0,0-.17,2.89,2.89,0,0,0,0-.29,2.54,2.54,0,0,0,0-.29l.06-.47c0-.16,0-.31.05-.47l.09-1C271.14,228.87,269.76,233.19,267.4,236.49Zm3.82-71.1h0l0,.38c.14,1,.25,2,.31,3.12Q271.48,167.07,271.22,165.39Z"/><path class="cls-2" d="M303.45,176.17l-4.57-28.56H276.66l-2.85,17.81a43.08,43.08,0,0,1,.41,6.06v48.85c0,8.45-2.11,15-6.27,19.54a19,19,0,0,1-5.92,4.34h13.12l2.62-17.53H296.4L299,244.21h15.32Zm-23.75,37.4L287,164.72l7.32,48.85Z"/><path class="cls-2" d="M352.55,187.7a32.58,32.58,0,0,0,1.42-8.89Z"/><path class="cls-2" d="M351.84,238.76a60.71,60.71,0,0,1-.28-6.28V217.57a35.67,35.67,0,0,0-1.85-12.14c-.09-.26-.19-.51-.29-.76a13.62,13.62,0,0,0-7.93-7.66q9.93-4.69,9.93-19.6v-7.58q0-11.19-5.31-16.7t-17.18-5.52H306V176l10.92,68.24h4.26V204.88h5.24q5.25,0,7.59,2.76t2.35,9.52v15.18c0,1.93,0,3.54.07,4.83a25.76,25.76,0,0,0,.27,3.17,13.24,13.24,0,0,0,.49,2.07c.18.56.36,1.15.55,1.8h15.46A19.94,19.94,0,0,1,351.84,238.76Zm-15.6-57.9q0,5.8-2.41,8a9.58,9.58,0,0,1-6.7,2.21H321.2V161.41h7.31q4,0,5.87,2.34t1.86,7.59Z"/><path class="cls-2" d="M381.18,147.61H359l-5,31.2-1.42,8.89L350.42,201a17.13,17.13,0,0,1,1.38,2.7,37.36,37.36,0,0,1,2.33,13.86v14.91c0,2.31.09,4.33.26,6a17.73,17.73,0,0,0,1.21,4.76l.38,1h1.46l2.62-17.53h18.63l2.63,17.53h15.31Zm-19.18,66,7.31-48.85,7.32,48.85Z"/><polygon class="cls-2" points="211.99 137.48 211.99 258.15 255.18 258.15 257.24 254.61 215.58 254.61 215.58 141.02 404.42 141.02 404.42 254.61 362.76 254.61 360.71 258.15 408.01 258.15 408.01 137.48 211.99 137.48"/><path class="cls-2" d="M272.6,260.72a.43.43,0,0,0,.43.43v1.25a1.7,1.7,0,0,1-1.27-.55,2.54,2.54,0,0,1-1.75.67,2.58,2.58,0,0,1-2.59-2.59v-1.31a2.21,2.21,0,0,1,1.06-1.8l1.84-1a2.1,2.1,0,0,0,1-1.56V253a1.2,1.2,0,0,0-2.4,0v1.39l-1.24.15V253a2.45,2.45,0,0,1,4.89,0Zm-3.93-.79a1.34,1.34,0,1,0,2.68,0v-3.4a2,2,0,0,1-.41.31l-1.84,1.06a.88.88,0,0,0-.43.72Z"/><path class="cls-2" d="M281.55,256.56h-.83v5.84h-1.25V250.48l1.25-.14v5h.88l2.09-4.6h1.24l-2.35,5.22,2.35,6.47h-1.24Z"/><path class="cls-2" d="M294.61,258.93a1.35,1.35,0,0,0-.41-1l-2.58-2.15a2.68,2.68,0,0,1-.84-2v-.72a2.49,2.49,0,0,1,5,0v1.08l-1.25.14v-1.22a1.25,1.25,0,0,0-2.49,0v.72a1.35,1.35,0,0,0,.41,1L295,257a2.68,2.68,0,0,1,.84,2v1a2.59,2.59,0,0,1-5.18,0v-1.15l1.25-.14v1.29a1.34,1.34,0,1,0,2.68,0Z"/><path class="cls-2" d="M307.4,258.4v1.53a2.59,2.59,0,1,1-5.17,0v-6.75a2.59,2.59,0,1,1,5.17,0v3.59h-3.93v3.16a1.35,1.35,0,0,0,2.69,0v-1.39Zm-3.93-2.87h2.69v-2.35a1.35,1.35,0,0,0-2.69,0Z"/><path class="cls-2" d="M317.58,258.93a1.35,1.35,0,0,0-.41-1l-2.58-2.15a2.68,2.68,0,0,1-.84-2v-.72a2.49,2.49,0,0,1,5,0v1.08l-1.24.14v-1.22a1.25,1.25,0,0,0-2.5,0v.72a1.35,1.35,0,0,0,.41,1L318,257a2.68,2.68,0,0,1,.84,2v1a2.59,2.59,0,1,1-5.18,0v-1.15l1.25-.14v1.29a1.34,1.34,0,1,0,2.68,0Z"/><path class="cls-2" d="M330.49,250.71V262.4h-.86l-.21-.91a2.21,2.21,0,0,1-1.83,1,2.45,2.45,0,0,1-2.27-2.59v-9.22h1.24v9.22a1.35,1.35,0,0,0,2.69,0v-9.22Z"/><path class="cls-2" d="M342.13,260.72a.44.44,0,0,0,.44.43v1.25a1.7,1.7,0,0,1-1.27-.55,2.54,2.54,0,0,1-1.75.67,2.58,2.58,0,0,1-2.59-2.59v-1.31a2.21,2.21,0,0,1,1.05-1.8l1.85-1a2.1,2.1,0,0,0,1-1.56V253a1.2,1.2,0,0,0-2.4,0v1.39l-1.24.15V253a2.44,2.44,0,0,1,4.88,0Zm-3.92-.79a1.34,1.34,0,1,0,2.68,0v-3.4a2,2,0,0,1-.41.31l-1.84,1.06a.88.88,0,0,0-.43.72Z"/><path class="cls-2" d="M352.58,251.84h-.89a1.42,1.42,0,0,0-1.43,1.46v9.1H349V250.71h.86l.22.91a2.78,2.78,0,0,1,2.49-1Z"/></svg>