<svg id="Layer_1" data-name="Layer 1" xmlns="http://www.w3.org/2000/svg" viewBox="0 0 620 400"><defs><style>.cls-1{fill:#fff;}.cls-2{fill:#049839;}.cls-3{fill:#282826;}</style></defs><rect class="cls-1" x="-3.17" y="-2.09" width="628.38" height="407.26"/><path class="cls-2" d="M355.83,205.87h20A38.78,38.78,0,0,1,320.79,231a46.71,46.71,0,0,0,11.38-15.61,19.93,19.93,0,0,0,23.66-9.52Z"/><path class="cls-2" d="M375.87,186.91h-20a20,20,0,1,0-30.51,24.66,38.85,38.85,0,0,1-11.36,15,38.78,38.78,0,0,1-11.37-15,38,38,0,0,1-2.57-8.88,38.42,38.42,0,0,1,0-12.6,38,38,0,0,1,2.57-8.88,38.89,38.89,0,0,1,10.35-14.16c.34-.29.67-.58,1-.85a38.19,38.19,0,0,1,6.83-4.42h0a38.78,38.78,0,0,1,55.08,25.13Z"/><path class="cls-3" d="M320.79,121.58v40.2A38.19,38.19,0,0,0,314,166.2c-.35.27-.68.56-1,.85a38.89,38.89,0,0,0-10.35,14.16,20,20,0,1,0,0,30.36,38.78,38.78,0,0,0,11.37,15,38.75,38.75,0,1,1-12-67V130.75Z"/><path class="cls-3" d="M204.15,273.33a9,9,0,0,1-3.68,3.6,11.67,11.67,0,0,1-5.63,1.29h-7.66V258h7.66a11.93,11.93,0,0,1,5.65,1.26,8.82,8.82,0,0,1,3.66,3.55,11.63,11.63,0,0,1,0,10.57Zm-5.28-1a6.53,6.53,0,0,0,0-8.54,6.21,6.21,0,0,0-4.46-1.52h-2.32v11.58h2.32A6.17,6.17,0,0,0,198.87,272.31Z"/><path class="cls-3" d="M220.28,261.85v4.24h6.85v3.7h-6.85v4.5H228v3.93H215.37V258H228v3.9Z"/><path class="cls-3" d="M247.49,267.87l8.18,10.35h-5.94l-6.88-9.09v9.09h-4.91V258h4.91v8.92l6.94-8.92h5.88Z"/><path class="cls-3" d="M279.74,259a9.78,9.78,0,0,1,3.69,3.7,11.24,11.24,0,0,1,0,10.72,9.77,9.77,0,0,1-3.7,3.71,10.73,10.73,0,0,1-10.35,0,9.84,9.84,0,0,1-3.7-3.71,11.24,11.24,0,0,1,0-10.72,9.88,9.88,0,0,1,3.7-3.7,10.79,10.79,0,0,1,10.38,0Zm-9,4.79a7.09,7.09,0,0,0,0,8.51,5.43,5.43,0,0,0,7.64,0,7,7,0,0,0,0-8.49,5.46,5.46,0,0,0-7.66,0Z"/><path class="cls-3" d="M305.11,278.22l-4.39-7.65H299.6v7.65h-4.9V258h8.37a9,9,0,0,1,4.08.83,5.7,5.7,0,0,1,2.49,2.28,6.46,6.46,0,0,1,.83,3.31,5.87,5.87,0,0,1-1.22,3.76,6.21,6.21,0,0,1-3.54,2.12l4.82,8Zm-5.51-11h3a3,3,0,0,0,2.15-.65,2.47,2.47,0,0,0,.69-1.9,2.53,2.53,0,0,0-.7-1.9,3,3,0,0,0-2.14-.68h-3Z"/><path class="cls-3" d="M335.57,259.62a9.34,9.34,0,0,1,3.32,5h-2.75a6.83,6.83,0,0,0-2.49-3.2,7.28,7.28,0,0,0-4.22-1.19,6.49,6.49,0,0,0-6,3.72,10.16,10.16,0,0,0,0,8.36,6.69,6.69,0,0,0,2.47,2.73,6.54,6.54,0,0,0,3.54,1,7.28,7.28,0,0,0,4.22-1.19,6.83,6.83,0,0,0,2.49-3.2h2.75a9.28,9.28,0,0,1-3.32,5,9.83,9.83,0,0,1-6.11,1.82,9.58,9.58,0,0,1-5-1.3,9,9,0,0,1-3.4-3.64,11.37,11.37,0,0,1-1.22-5.32,11.55,11.55,0,0,1,1.22-5.37,9,9,0,0,1,3.4-3.65,9.59,9.59,0,0,1,5-1.31A9.9,9.9,0,0,1,335.57,259.62Z"/><path class="cls-3" d="M352.17,260.13V267h7.69v2h-7.69v7.05h8.55v2.12H349.56V258h11.16v2.13Z"/><path class="cls-3" d="M373.85,270.08v8.14h-2.61V258h6.43a7.34,7.34,0,0,1,5.19,1.62,5.79,5.79,0,0,1,1.72,4.43,5.65,5.65,0,0,1-1.78,4.44,7.45,7.45,0,0,1-5.13,1.59Zm7-3.19a3.75,3.75,0,0,0,1-2.84,3.8,3.8,0,0,0-1-2.88,4.92,4.92,0,0,0-3.43-1h-3.59v7.72h3.59A4.86,4.86,0,0,0,380.87,266.89Z"/><path class="cls-3" d="M410.31,258v20.22h-2.64v-9.35H397.4v9.35h-2.61V258h2.61v8.75h10.27V258Z"/><path class="cls-3" d="M424.27,260.13V267H432v2h-7.69v7.05h8.55v2.12H421.66V258h11.16v2.13Z"/></svg>