<svg id="Layer_1" data-name="Layer 1" xmlns="http://www.w3.org/2000/svg" viewBox="0 0 620 400"><defs><style>.cls-1{fill:#fff;}.cls-2{fill:#1f1f1f;}</style></defs><rect class="cls-1" x="-3.17" y="-2.09" width="628.38" height="407.26"/><path class="cls-2" d="M150.93,166h6.8a21.07,21.07,0,0,0,9.19,10.54,22.48,22.48,0,0,1,6.45-2.82c-2.06-.68-9.13-3.53-11.15-11.06l-.53-2H147l-.53,2c-2,7.52-9.09,10.37-11.14,11.06a22.43,22.43,0,0,1,6.44,2.82A21.07,21.07,0,0,0,150.93,166Z"/><path class="cls-2" d="M178.82,190.56a15.42,15.42,0,0,0,.9-11.49L179,177l-2.2.38c-8.38,1.45-13.63,5.13-15.6,10.93-1.69,5-.52,10.77,1.57,16l-8.41,5.13-8.41-5.13c2.09-5.22,3.26-11,1.57-16-2-5.79-7.24-9.48-15.6-10.93l-2.21-.38-.74,2.09a15.47,15.47,0,0,0,.91,11.49c2.14,4.15,6.21,7.24,12.09,9.17a40.69,40.69,0,0,1-2.19,5.4,51.79,51.79,0,0,1-6.51,10.16L130.71,218l3.43,1.49a38.71,38.71,0,0,1,16.54,12.9,27.27,27.27,0,0,1,3.65,6.89,27.37,27.37,0,0,1,3.65-6.88,38.53,38.53,0,0,1,16.57-12.9l3.43-1.49-2.54-2.75a52,52,0,0,1-6.52-10.18,38.93,38.93,0,0,1-2.2-5.4C172.62,197.79,176.67,194.71,178.82,190.56Zm-44.22-2.38a9.69,9.69,0,0,1-1.06-5c4.82,1.28,7.82,3.59,8.93,6.84a11.68,11.68,0,0,1,.51,4.47C138.84,193,136,190.9,134.6,188.18Zm34.74,27.92a43.55,43.55,0,0,0-15,12.32,43.52,43.52,0,0,0-15-12.31,61.37,61.37,0,0,0,4.34-7l6.7,4.1-2.55,2.51,6.52,6.75,6.51-6.75-2.54-2.51,6.69-4.1a61.37,61.37,0,0,0,4.34,7Zm4.72-27.92c-1.44,2.71-4.24,4.82-8.38,6.27a11.71,11.71,0,0,1,.51-4.48c1.12-3.24,4.11-5.55,8.93-6.83A9.69,9.69,0,0,1,174.06,188.18Z"/><path class="cls-2" d="M231,209.66v5.79H206.87V184.32h23.52v5.79H214v6.75h14.48v5.6H214v7.2Z"/><path class="cls-2" d="M256.56,215.45l-6-8.69h-6.64v8.69h-7.21V184.32h13.47c8.32,0,13.51,4.31,13.51,11.29a10.11,10.11,0,0,1-6.4,9.83l7,10Zm-6.75-25.26h-5.89V201h5.89c4.4,0,6.63-2,6.63-5.43S254.19,190.19,249.81,190.19Z"/><path class="cls-2" d="M294.61,209.58v5.87H267.39v-4.67l17.08-20.59H267.75v-5.87h26.19V189l-17,20.59Z"/><path class="cls-2" d="M319.51,186.37H308.3v-2.05H333v2.05H321.77v29.08h-2.26Z"/><path class="cls-2" d="M337.69,202.24V184.32H340v17.85c0,7.78,3.74,11.43,10.23,11.43s10.18-3.65,10.18-11.43V184.32h2.27v17.92c0,8.89-4.76,13.44-12.48,13.44S337.69,211.13,337.69,202.24Z"/><path class="cls-2" d="M391.81,206.69H373.75l-3.95,8.76h-2.45l14.32-31.13h2.26l14.31,31.13H395.8Zm-.85-1.93-8.2-18-8.11,18Z"/><path class="cls-2" d="M429.24,184.32v31.13h-1.86l-21.23-27v27h-2.27V184.32h1.93l21.17,27v-27Z"/><path class="cls-2" d="M459.35,206.69H441.3l-4,8.76h-2.45l14.32-31.13h2.26l14.32,31.13h-2.45Zm-.84-1.93-8.21-18-8.11,18Z"/><path class="cls-2" d="M479.23,204.73v10.72H477V204.73l-12.54-20.41h2.49l11.25,18.33,11.25-18.33h2.36Z"/></svg>