<svg id="Layer_1" data-name="Layer 1" xmlns="http://www.w3.org/2000/svg" viewBox="0 0 620 400"><defs><style>.cls-1{fill:#fff;}.cls-2{fill:#e30613;}.cls-3{fill:#161616;}</style></defs><rect class="cls-1" x="-3.17" y="-2.09" width="628.38" height="407.26"/><path class="cls-2" d="M162.38,275.19l-8.91-16.3L152,261.58v13.61H140.12V233.55H152v14l9.39-14h14.38l-14.14,17.86,14.68,23.78Z"/><path class="cls-2" d="M205.92,275.19l-2.64-8.61H190.75l-2.69,8.61h-11.3l15-41.3H202.2l14.92,41.3Zm-4.16-16.34-4.11-11-4.21,11Z"/><path class="cls-2" d="M238.45,275.23l-7.14-12H229v12H218V233.55h16.69a18.48,18.48,0,0,1,6.8,1.13,11.39,11.39,0,0,1,4.74,3,12.42,12.42,0,0,1,2.74,4.62,18.6,18.6,0,0,1,.93,6,14.84,14.84,0,0,1-1.61,7.19,10.78,10.78,0,0,1-4.75,4.79l-.64.39,8.86,14.48Zm-9.69-23.53h3.33a6.23,6.23,0,0,0,3.25-.85,3.36,3.36,0,0,0,1.45-3.16,3.82,3.82,0,0,0-1-2.84,5.23,5.23,0,0,0-3.67-1.17h-3.33Z"/><path class="cls-2" d="M253.42,275.19V233.5h27.25v9H264.48v8.41h12.33v7.19H264.48v8.17h16.24v9Z"/><path class="cls-3" d="M297.16,275.19V233.55H312a24.82,24.82,0,0,1,8.91,1.52A19.13,19.13,0,0,1,332,245.93a24.73,24.73,0,0,1,.07,16.88,18.16,18.16,0,0,1-4.18,6.55,18.59,18.59,0,0,1-6.85,4.33,25.22,25.22,0,0,1-8.9,1.5ZM307,263.35h4.35a14.85,14.85,0,0,0,4.46-.66,10.3,10.3,0,0,0,3.57-1.89,8.23,8.23,0,0,0,2.37-2.88,8,8,0,0,0,0-7,8.66,8.66,0,0,0-2.29-2.91,10.26,10.26,0,0,0-3.31-1.88,11.91,11.91,0,0,0-4-.66H307Z"/><path class="cls-3" d="M354.69,275.19a22.73,22.73,0,0,1-8.41-1.57,18.2,18.2,0,0,1-6.56-4.35,19.71,19.71,0,0,1-4.26-6.76,24.93,24.93,0,0,1,0-17.36A19.23,19.23,0,0,1,346.28,234a23.48,23.48,0,0,1,16.83,0,19.66,19.66,0,0,1,6.55,4.41,19,19,0,0,1,4.26,6.75,25.7,25.7,0,0,1,0,17.36,18.91,18.91,0,0,1-10.81,11.11A22.33,22.33,0,0,1,354.69,275.19ZM352.49,230h-7.93v-7.92h7.93Zm1.91,14.58a8.5,8.5,0,0,0-3.43.71,8.09,8.09,0,0,0-2.79,2,9.58,9.58,0,0,0-1.81,3.06,11.12,11.12,0,0,0,0,7.38,8.93,8.93,0,0,0,1.81,3,8.09,8.09,0,0,0,2.79,2,8.33,8.33,0,0,0,3.43.71,8,8,0,0,0,6.26-2.74,8.77,8.77,0,0,0,1.81-3,11,11,0,0,0,0-7.38,8.87,8.87,0,0,0-1.81-3,7.69,7.69,0,0,0-2.79-2.08A8.58,8.58,0,0,0,354.4,244.56ZM364.52,230H356.6v-7.92h7.92Z"/><path class="cls-3" d="M405.08,275.23,388.2,253v22.21H377.05V233.55h10l17.41,22.85V233.55H415.6v41.68Z"/><path class="cls-3" d="M417.12,275.19V233.5h27.25v9h-16.2v8.41H440.5v7.19H428.17v8.17h16.24v9Z"/><path class="cls-3" d="M466.62,275.23l-7.14-12h-2.3v12H446.13V233.55h16.68a18.44,18.44,0,0,1,6.8,1.13,11.39,11.39,0,0,1,4.74,3,12.42,12.42,0,0,1,2.74,4.62,18.6,18.6,0,0,1,.93,6,14.73,14.73,0,0,1-1.61,7.19,10.68,10.68,0,0,1-4.75,4.79l-.63.39,8.85,14.48Zm-9.68-23.53h3.32a6.27,6.27,0,0,0,3.26-.85,3.37,3.37,0,0,0,1.44-3.16,3.82,3.82,0,0,0-1-2.84,5.22,5.22,0,0,0-3.67-1.17h-3.32Z"/><path class="cls-2" d="M333.86,153.33a94,94,0,0,1-23.07,2c-.92,0-1.85-.08-2.8-.15a85.08,85.08,0,0,1-29.6-7.33V134.75l29.34-1.66,3.32-.18,35.1-2H272.63v23.28s1.05.39,2.91,1v21.39s1,.47,2.95,1.14v21.51a71.57,71.57,0,0,0,30.44,5.1c.31,0,.61,0,.92-.06,6.88-.78,9.11-.69,17.55-5.62-3.06.63-5.66,2.22-17.41,1.22l-1.21-.12a78.57,78.57,0,0,1-24.53-6.91V179.45a71.18,71.18,0,0,0,24.13,2c.67-.07,1.34-.14,2-.23a56,56,0,0,0,19.4-6.15,68.32,68.32,0,0,1-19.33,2.3c-.7,0-1.42-.06-2.16-.11a77.24,77.24,0,0,1-27-7.12v-13.4a99.55,99.55,0,0,0,26.75,3c.89,0,1.78-.08,2.68-.15A57.36,57.36,0,0,0,333.86,153.33Z"/><path class="cls-3" d="M309.39,210.59c.14,0,.28-1,.42-4.29l-.84.06C309.11,209.62,309.25,210.59,309.39,210.59Z"/><path class="cls-3" d="M310,197.82c.13-4.63.25-8.4.36-14.51l-2,.22c.11,6,.23,9.62.35,14.17Z"/><path class="cls-3" d="M310.49,175.37c.08-5.14.16-8.55.23-13.7-.88.06-1.76.11-2.66.14.07,5.07.15,8.4.23,13.45C309,175.31,309.76,175.35,310.49,175.37Z"/><path class="cls-3" d="M310.8,153.27c.1-7.91.18-13.18.24-18.33l-3.3.19c.06,5.1.14,10.24.23,18C308.91,153.18,309.86,153.23,310.8,153.27Z"/><path class="cls-3" d="M311.08,128.89c0-2.48,0-3,0-3a1,1,0,0,0-.51-.82,2.28,2.28,0,0,0-1.22-.33c-.95,0-1.73.51-1.73,1.15,0,0,0,.49,0,3Z"/><polygon class="cls-2" points="344.08 151.47 340.66 151.47 340.66 173.13 336.88 173.13 339.49 197.63 339.49 175.09 342.5 175.09 342.5 153.29 346.15 153.29 346.15 130.93 344.08 151.47"/></svg>