<svg id="Layer_1" data-name="Layer 1" xmlns="http://www.w3.org/2000/svg" viewBox="0 0 620 400"><defs><style>.cls-1{fill:#fff;}.cls-2{fill:#1f1f1f;}</style></defs><rect class="cls-1" x="-3.17" y="-2.09" width="628.38" height="407.26"/><path class="cls-2" d="M284.24,129.26c.08,4.8-.12,9.75.1,14.62a16,16,0,0,0-9,4.88c.13-7.31-1.88-13.83-1.67-21.27.1-3.67,3.71-6.33,6.59-4.1S284.18,126.09,284.24,129.26Z"/><path class="cls-2" d="M284.79,173.09c-.47,4.83,0,8.71.48,13.3.3,3-2,7.17-4.78,7.34s-6.39-1.47-6.13-4.88c.53-6.91,1.51-14.49,1.88-21.56A16.75,16.75,0,0,0,284.79,173.09Z"/><path class="cls-2" d="M296.93,141.33c.06,1.08,0,2.57.07,3.71a18.3,18.3,0,0,1-3.79-.69,16.51,16.51,0,0,0-5-.57c-.1,0-.28,0-.4,0,0-.57-.16-1.41-.12-1.95a4.68,4.68,0,0,1,4.54-4.62C295,136.94,296.77,138.5,296.93,141.33Z"/><path class="cls-2" d="M292.86,171.83a14.45,14.45,0,0,1,3.72-.85c-.06,1.08.07,2.68,0,3.67-.25,2.6-1.81,3.83-4.42,3.85s-4.16-1.31-4.43-3.83c0-.5,0-1.39,0-1.93a2.57,2.57,0,0,1,.39,0A14.78,14.78,0,0,0,292.86,171.83Z"/><path class="cls-2" d="M333.64,125.14c-1.78,8.57-.61,20.53-.56,29.6-3,0-5.89,0-8.9,0a179.87,179.87,0,0,0-1.55-28.88c-.48-3.32,4.84-6.08,7.77-6.08S334.25,122.2,333.64,125.14Z"/><path class="cls-2" d="M324.18,161.77c3-.08,5.89-.11,8.93,0-.33,15.14-1.46,15.31.42,29.31.65,4.79-3,4.28-5.63,4.09s-5.41-1.11-4.73-5.69C325.16,176.15,324.27,178.3,324.18,161.77Z"/><path class="cls-2" d="M346.34,134.39a89.47,89.47,0,0,0-1.1,18.82c-2.88.08-5.72.08-8.56.15-.16,0-.22,0-.34,0-.27-7.14-.64-10.43,1.53-17,1.17-3.55-.4-8.52,2.39-8.6S346.87,131.2,346.34,134.39Z"/><path class="cls-2" d="M336.59,163.43c2.83-.15,5.69-.34,8.54-.44.11,5.55-1.31,13.27-.47,18.14.45,2.64-1.45,4.76-3.86,4.39s-4.86-.47-4.08-4.79c1.44-8,.64-9-.49-17.26C336.41,163.38,336.44,163.44,336.59,163.43Z"/><path class="cls-2" d="M308.69,146.05c0,.55-.05,1.47,0,2.07a20.63,20.63,0,0,0-7.78-2.93c-.3-.05-.85-.09-1.2-.16.85-2,1.36-4.51,3.74-4.45C306,140.64,308.53,143.45,308.69,146.05Z"/><path class="cls-2" d="M301.1,171a14.08,14.08,0,0,0,7.64-2.55c0,.59.05,1.51,0,2.05-.27,2.56-1.94,5.37-4.54,5.42-2.44,0-3.79-2.69-4.3-4.91C300.24,171,300.79,171,301.1,171Z"/><path class="cls-2" d="M321.4,138c-1,5.35-.53,11.14-.47,16.61-2.51.05-5,.06-7.53.09a13.5,13.5,0,0,0-1.43-3.06c.13-4.39-1.11-9.44-.62-13.65.37-3.13,2.8-4.49,5.7-4.67S322,134.79,321.4,138Z"/><path class="cls-2" d="M313.33,161.8c2.51,0,5,0,7.54,0-.1,5.8-.88,11,.23,16.63.67,3.38-1.36,5-4.18,5.14s-5.62-1.22-5.56-4.68c.08-4.67,1.08-9,.66-14A14.49,14.49,0,0,0,313.33,161.8Z"/><path class="cls-2" d="M254.66,265.4l-.71,1.84a21,21,0,0,1-1.36,2,1.76,1.76,0,0,1-1.58,1,5.81,5.81,0,0,1-2.24-.23,6.35,6.35,0,0,1-2.22-1.23,7.35,7.35,0,0,1-1.49-2.38,8.19,8.19,0,0,1-.77-2.76,18,18,0,0,1-.24-2v-1.13a7.41,7.41,0,0,1,.14-2l.24-1a11.23,11.23,0,0,1,1.13-3.78c1.16-2.29,2.36-3.47,3.58-3.53h.24a.69.69,0,0,0,.28,0h.62a10.42,10.42,0,0,1,2,.29,5.13,5.13,0,0,0,1.23.19l1.23.23a4.15,4.15,0,0,1,1.48.24,2.62,2.62,0,0,1,1,.42,6.31,6.31,0,0,1,.26,1c.13.6.21,1,.26,1.3s.09.54.12.82a39.11,39.11,0,0,0,1.22,6.42,1.84,1.84,0,0,1,.1.42,8.25,8.25,0,0,0,.33,1.11c.19.55.33,1,.42,1.39a13.83,13.83,0,0,0,.52,1.51,11.92,11.92,0,0,0,.85,1.65c.69,1,.33,1.73-1.08,2.26a3.25,3.25,0,0,1-1,.1,3.34,3.34,0,0,1-.9-.47,1.23,1.23,0,0,1-.9-.52l-.37-.1a.9.9,0,0,0-.57-.33c-.06-.06-.63-1.33-1.7-3.82A3.83,3.83,0,0,0,254.66,265.4Zm-1.46-9a2.74,2.74,0,0,0-.47-1.58,2.16,2.16,0,0,0-1.56-.64,4.37,4.37,0,0,0-.87,1.58,10.41,10.41,0,0,0-.69,2.86,22.31,22.31,0,0,0-.47,4.52,6.62,6.62,0,0,0,.76,3.4c.06.13.12.17.19.14s.4-.31.75-.94A18,18,0,0,0,253.2,256.39Z"/><path class="cls-2" d="M264.84,248.85c0-.21.19-.35.18-.73a11.13,11.13,0,0,1,.27-1.69,3.47,3.47,0,0,0,.3-1.63,2.7,2.7,0,0,1,.77-1.33,4.63,4.63,0,0,1,1.38-.92c.1,0-.15,0,0,.06s.51-.15.87-.13a2.31,2.31,0,0,1,2.1,1.32,5.93,5.93,0,0,0-.52,2.1c-.16,1.07-.45,2.91-.59,4.22-.1.86-.19,1.74-.32,2.72,0,.33-.14.91-.19,1.46s-.08,1.8-.16,2.39-.09,1.51-.13,1.92a18.45,18.45,0,0,0-.21,2.13,2.61,2.61,0,0,1,0,.6c0,.24-.06.47-.08.6a8.13,8.13,0,0,0-.1,1.24,2.21,2.21,0,0,0,.13.87,2.25,2.25,0,0,0-.2,1.41,2.75,2.75,0,0,1-.06,1.3,2.71,2.71,0,0,1,0,1.44,2.63,2.63,0,0,1,.09.3,2.59,2.59,0,0,1,0,.41,2,2,0,0,1-.38,1.35,1.89,1.89,0,0,1-1.58.83,2.76,2.76,0,0,1-2.18-1.4,3.25,3.25,0,0,0-.49-.52,4.27,4.27,0,0,1-.58-2.23c0-.18-.2-.65-.09-.87a1.37,1.37,0,0,1-.36-1.19c0-.23.12-.68.13-.88a1.6,1.6,0,0,0-.07-.85,1.49,1.49,0,0,1-.11-.86c.06-.6.33-1.82.43-2.38a18.29,18.29,0,0,0,.19-1.89c.07-.83.26-1.79.34-2.46.09-.88,0-1.17.14-2a21.54,21.54,0,0,1,.7-2.7c0-.07-.11-.26-.06-.47C264.59,250,264.75,249.39,264.84,248.85Z"/><path class="cls-2" d="M280.58,251.82a15.84,15.84,0,0,1,2.68,1,7.22,7.22,0,0,1,1.62,1.25,6,6,0,0,1,1.33,1.26c.32.44.55.73.68.89a3.21,3.21,0,0,1,.48,3.71,18.46,18.46,0,0,0-1,3.36l-.3,1.43-.1.75c-.22.72-.43,1.6-.64,2.61-.2.67-.31,1-.32,1.09a7.5,7.5,0,0,0-.76,1.82,10.72,10.72,0,0,1-.72,1.83l-1,1.87c-.33.51-.9,1.3-1.7,2.39a1.11,1.11,0,0,0-.32.37,3.19,3.19,0,0,1-.56.63,4.62,4.62,0,0,1-.77.66,4.29,4.29,0,0,0-.5.35c0,.09-.17.22-.44.37a2.84,2.84,0,0,1-.76.3,2.21,2.21,0,0,1-1.29.41,10,10,0,0,1-2.35-.06,11.2,11.2,0,0,1-5-3,2.24,2.24,0,0,1-.49-2.39,1.2,1.2,0,0,1,1.84-.89,4.19,4.19,0,0,1,1.4,1.4,10.15,10.15,0,0,0,1.37.69,3.83,3.83,0,0,1,.6.24c.37.24,1,.17,1.78-.21a6.89,6.89,0,0,0,2.72-2,11.52,11.52,0,0,1,1.24-2.49,17.88,17.88,0,0,0,.93-1.92l-.56.36c0,.1-.16.19-.44.3a2.12,2.12,0,0,1-.66.15l-1.31.07a4,4,0,0,1-1.14-.22c-.38-.12-.59-.19-.66-.2l-.61-.28a13.56,13.56,0,0,1-1.76-1.52,1.89,1.89,0,0,0-.35-.41,6.31,6.31,0,0,1-.92-1.58,1.19,1.19,0,0,0,0-.53,2.47,2.47,0,0,1,.06-1.43l1-2.88a2.51,2.51,0,0,1,.31-.81,1.58,1.58,0,0,1,.19-.92l.63-1.65c-.1,0-.12,0-.06-.16a3.81,3.81,0,0,1,.23-.41,3.84,3.84,0,0,0,.23-.45,3.69,3.69,0,0,1,.41-1.15c.17-.27.35-.58.55-.92a11.31,11.31,0,0,1,1-1.48,1.77,1.77,0,0,1,.35-.53,2,2,0,0,1,.7-.56A4.78,4.78,0,0,1,280.58,251.82Zm-.38,5.55a14,14,0,0,1-.85,1.27l-.53.95-.53.71a1.88,1.88,0,0,0-.3.76,4.19,4.19,0,0,0-.6,1,4.24,4.24,0,0,0-.8,1.78,5.71,5.71,0,0,0-.34,2.32l.81,1.47.68.19.56-.37c.55-.5.84-.82.87-1a9,9,0,0,0,.65-.78,1.85,1.85,0,0,0,.48-.35,3.29,3.29,0,0,1,.6-.48l.24-.43a.93.93,0,0,0,.28-.79,3.27,3.27,0,0,1,.42-1.43q1.14-2.5.84-3.63a2.59,2.59,0,0,0-.23-1.3,1.2,1.2,0,0,0-.53-.59A1.17,1.17,0,0,0,280.2,257.37Z"/><path class="cls-2" d="M289.31,253.3q-.18-1.41,1.56-1.62l.7-.09c.06,0,.58.09,1.56.29a2.08,2.08,0,0,0,.6.3l1.09,1.11.51,4.11c.05.44.1,1,.16,1.7a81.3,81.3,0,0,0,1.28,8.91,2,2,0,0,1-.41,1.67,1.51,1.51,0,0,1-1.06-.11,2.09,2.09,0,0,0-.85.06,2.07,2.07,0,0,1-1.6-.71.78.78,0,0,1-.65-.63l-.46-.65a2.21,2.21,0,0,1-.48-.82,43.53,43.53,0,0,1-.89-4.48,5.39,5.39,0,0,1,0-1.09l-.13-1.12c0-.35-.06-1-.14-1.91s-.13-1.67-.14-2.24c-.16-.81-.26-1.35-.29-1.63A4.27,4.27,0,0,0,289.31,253.3Z"/><path class="cls-2" d="M298,251c-.11-.89-.13-1.75-.19-2.34a11.22,11.22,0,0,0-.24-1.25,1.67,1.67,0,0,1,0-.9,5.07,5.07,0,0,1,.3-.72,5,5,0,0,1,1.31-1.47,1.86,1.86,0,0,1,1.09-.3,2,2,0,0,1,.91,0c.27.09.35.16.62.25a.81.81,0,0,1,.56.56c.07.22.32-.1.21.39a18.86,18.86,0,0,0,.2,4.82c.17,1.24.57,3.86.65,4.77a7.34,7.34,0,0,1,0,1.1,1.08,1.08,0,0,0,.15.53,2.17,2.17,0,0,1,.13.6,5.37,5.37,0,0,1,0,.9c0,.23-.05.22,0,.42a3.44,3.44,0,0,1,.18.5,2.1,2.1,0,0,1,0,.57,3.75,3.75,0,0,0,.09,1.07,4.73,4.73,0,0,0,.32,1,7.3,7.3,0,0,1,.28,1.07c.08.36.35,1,.44,1.29s.09.46.13.59c.12.41.22.76.33,1.1.18.62.49,1.52.67,2s.33.81.45,1.13a2.91,2.91,0,0,1,.22,1.47,1.23,1.23,0,0,1-.55,1.05,3.41,3.41,0,0,1-3.28,0l-.37.09a2.84,2.84,0,0,1-.72-.82.53.53,0,0,1-.44-.49,1.2,1.2,0,0,0-.35-.7,1.29,1.29,0,0,1-.36-.52c-.1-.38-.21-.61-.31-1,0-.1,0-.23,0-.34s-.16-.17-.21-.34-.18-.49-.23-.65,0-.18-.07-.32a1.79,1.79,0,0,0-.12-.42c-.09-.17.12-.19,0-.44a4.11,4.11,0,0,1-.25-1.08c-.06-1.14-.26-2.55-.42-3.7-.05-.35-.07-.52-.12-.83s-.13-.68-.18-1c-.11-.63-.24-1.55-.35-2.06a5.6,5.6,0,0,1-.14-1.4c0-.3-.07-.26-.1-.36a7.43,7.43,0,0,1-.16-2.35C298.07,252.16,298.06,251.13,298,251Z"/><path class="cls-2" d="M319.91,264.75l-.2,2a24.15,24.15,0,0,1-.8,2.31,1.75,1.75,0,0,1-1.26,1.37,6.1,6.1,0,0,1-2.23.36,6.41,6.41,0,0,1-2.46-.61,7.28,7.28,0,0,1-2-1.92,8.21,8.21,0,0,1-1.47-2.46,17.66,17.66,0,0,1-.74-1.85l-.3-1.09a6.82,6.82,0,0,1-.37-1.95q0-.19,0-1a11.1,11.1,0,0,1,.11-3.94q.78-3.76,2.54-4.34l.23-.07a.57.57,0,0,0,.28,0l.59-.16a11.17,11.17,0,0,1,2-.26,4.88,4.88,0,0,0,1.23-.13l1.24-.1a4.24,4.24,0,0,1,1.5-.15,2.42,2.42,0,0,1,1.07.15,8,8,0,0,1,.52.93c.27.55.47.94.58,1.19s.23.5.33.76a37.8,37.8,0,0,0,2.86,5.88,3.28,3.28,0,0,1,.2.39,9.62,9.62,0,0,0,.6,1,13.15,13.15,0,0,1,.77,1.23,12.1,12.1,0,0,0,.9,1.32,11.11,11.11,0,0,0,1.25,1.38c.92.76.77,1.58-.46,2.47a3.63,3.63,0,0,1-.93.34,2.93,2.93,0,0,1-1-.22,1.16,1.16,0,0,1-1-.27h-.39a.93.93,0,0,0-.63-.17c-.08,0-1-1.13-2.64-3.25A3.82,3.82,0,0,0,319.91,264.75Zm-3.75-8.32a2.68,2.68,0,0,0-.87-1.4,2.08,2.08,0,0,0-1.67-.21,4.39,4.39,0,0,0-.43,1.75,10.31,10.31,0,0,0,.08,2.93A21.79,21.79,0,0,0,314,264a6.5,6.5,0,0,0,1.61,3.08c.09.11.16.14.22.09s.31-.41.48-1.11A18,18,0,0,0,316.16,256.43Z"/><path class="cls-2" d="M347.49,268.33a1,1,0,0,0-.22-.8,1.06,1.06,0,0,1-.21-.86,10.19,10.19,0,0,0,.11-1.49,4.08,4.08,0,0,0,.23-1.35,8.58,8.58,0,0,0,.24-1.34c.13-.85.25-1.59.38-2.24l-.63.74c-1.47,2.2-2.22,3.37-2.24,3.49l-1.72,3-.51,1.05a5.1,5.1,0,0,0-.63,2.42c0,.29-.38.52-1.15.69a9.11,9.11,0,0,1-1.33-.56l-.72-.13a8.08,8.08,0,0,1-1.82-.87c0-.12-.17-.44-.58-.94l.51-3.21a26.1,26.1,0,0,1,.91-3.09l.24-1.16.49-1.48.81-2.82.19-.93q-2,3.31-2.6,4.29a23.68,23.68,0,0,1-1.78,3.54,17.57,17.57,0,0,0-1.82,5,.61.61,0,0,1-.26.4,3.33,3.33,0,0,1-.9.32,16.94,16.94,0,0,1-3-1l-.75-.54c-.26-.15-.43-.57-.52-1.26a7.37,7.37,0,0,1,0-1.74,2,2,0,0,1,0-1.1l.07-.56q.67-5,1.05-6.86a3.07,3.07,0,0,0,.28-.91l.27-1.29c.11-.56.29-1.27.55-2.15s.43-1.52.51-1.92l.27-1.53c.22-.47.93-.65,2.12-.53a2.94,2.94,0,0,1,1.29.55,2.74,2.74,0,0,1,.89,1.67,9.11,9.11,0,0,1-.13,2.18c-.15.87-.3,1.6-.45,2.18a15.21,15.21,0,0,0-.48,3.56,18.75,18.75,0,0,0,1.14-1.79c.07-.05.56-.8,1.46-2.26l1.57-2.71a18.2,18.2,0,0,1,1.48-1.27,2.45,2.45,0,0,1,.74,0,3.53,3.53,0,0,1,1.52.68l.89.61s.28.24.71.65a2.56,2.56,0,0,1,.39,1.18,4.35,4.35,0,0,1,0,1.35l-.3,2-.11.56a9,9,0,0,0-.48,3.08,18.21,18.21,0,0,1,1.87-2.85l.71-1.1,1.31-1.71a3.94,3.94,0,0,1,.77-1.19l.75-1.34a3.82,3.82,0,0,1,2.77-1.8,7.31,7.31,0,0,1,1.65.87c.62.12,1.09.65,1.42,1.58a2.62,2.62,0,0,1,.05,1.41c0,.12-.23.87-.6,2.24l-.3,1.47a3.34,3.34,0,0,0-.24,1l-.34,1.42-.56,2.73a4.1,4.1,0,0,1-.19.73l-.39,2.61a2,2,0,0,1,0,1,7.86,7.86,0,0,0,.4,3.73l.2.67a2.58,2.58,0,0,1-3.56.43,1.83,1.83,0,0,0-.37-.65,10.8,10.8,0,0,1-.66-.9,9.08,9.08,0,0,0-.45-1.11A3.55,3.55,0,0,0,347.49,268.33Z"/><path class="cls-2" d="M375.22,257a18,18,0,0,0-.38,4.58,30.74,30.74,0,0,0,0,4.52,3.64,3.64,0,0,1-.09.94c.43,1.85.66,2.95.69,3.29a1.06,1.06,0,0,1-.2.8V271a1.59,1.59,0,0,1-1,.6,5.25,5.25,0,0,1-1.36.18c-1.25.14-1.85-.44-1.82-1.75a3.75,3.75,0,0,1-.41-.68,1.69,1.69,0,0,1-.25-.82,1,1,0,0,0-.21-.64,2.29,2.29,0,0,0-.3-.69,1.38,1.38,0,0,1-.22-.81l.11-1.28-.09-.06c-.69.92-1.16,1.56-1.39,1.93a16.51,16.51,0,0,1-2.66,3.23,3.43,3.43,0,0,1-4,.25,2,2,0,0,1-1.22-.77,2.24,2.24,0,0,0-.57-.64,2.37,2.37,0,0,1-.65-.85,6.5,6.5,0,0,1-.36-3.48l.23-1.21a7.3,7.3,0,0,0,.44-2.22l.06-.27a14.17,14.17,0,0,1,.05-1.73,5,5,0,0,1,.24-.72A1.34,1.34,0,0,0,360,258a1.63,1.63,0,0,1,0-.4l.14-.69.73-2.46a24.14,24.14,0,0,1,1.68-2.69,2.42,2.42,0,0,1,.94-1.11,15.55,15.55,0,0,0,1.54-1.19c.31-.42,1.18-.63,2.62-.63l.78.2a2.66,2.66,0,0,1,.81.28,1.94,1.94,0,0,0,.49.22,2.5,2.5,0,0,0,1,.53A3.39,3.39,0,0,1,372,251a6,6,0,0,1,1.23,1.06c.7.69,1.1,1.07,1.21,1.16l1.12.65a2.56,2.56,0,0,1,.42.57Zm-5.79.82c.05-.09.21-.61.5-1.58a4.55,4.55,0,0,1,0-1.07,2.75,2.75,0,0,0-.75-1.3,4.57,4.57,0,0,0-.81-.5,1.52,1.52,0,0,0-.64.19,9.35,9.35,0,0,0-1.05,1.16,12.81,12.81,0,0,0-1.78,3.64,32.5,32.5,0,0,0-1.16,3.81c-.16.8-.32,1.79-.49,3s0,1.76.42,1.78,1.18-1,2.32-3a4.85,4.85,0,0,1,.49-.77Z"/><path class="cls-2" d="M262.31,217.84l-.2-.6s0-.16,0-.4a3.7,3.7,0,0,0-.16-.86c-.07-.78-.15-1.36-.22-1.73a6,6,0,0,1-.32-1.82,14.91,14.91,0,0,1,0-5.68,5.81,5.81,0,0,0,.4-1.23,4.29,4.29,0,0,1,.83-1.22l.89-.56a4.43,4.43,0,0,1,2.45-.1l1.06.13a14.87,14.87,0,0,1,0,2q.09,1.32,0,3.75A77.05,77.05,0,0,0,267.4,220l.27.73a25.84,25.84,0,0,0,2.25-2.36,10.62,10.62,0,0,1,1.31-1.41s.35-.37,1-1a8.57,8.57,0,0,0,1.23-1.36,5.92,5.92,0,0,1,2-2,2.68,2.68,0,0,1,1.54.27c.54.39.83.74.86,1a1.88,1.88,0,0,1,0,.74,3.24,3.24,0,0,1-.34.67,6.27,6.27,0,0,0-.43.9,16.25,16.25,0,0,1-2.23,3.25c-.79,1-1.39,1.77-1.82,2.22a12.47,12.47,0,0,1-1.91,1.76c0,.06.12.17.25.33s.26.36.41.6A14.08,14.08,0,0,0,275.4,227a2.52,2.52,0,0,0,1.24.59,2.3,2.3,0,0,0,.56.32l.29.07a4.39,4.39,0,0,0,1.41.38c1,.09,1.56.37,1.6.86a1.18,1.18,0,0,1-.64,1.17,6.37,6.37,0,0,1-1.31,1.08,1.72,1.72,0,0,0-.77.36,5.43,5.43,0,0,1-4-.07,5.06,5.06,0,0,1-2.29-1.57l-1.16-.74a19.59,19.59,0,0,0-1.77-1.62l.33,1.44.37,1.38a12.7,12.7,0,0,0,.43,2.38,1.13,1.13,0,0,1-.22,1.3,3.9,3.9,0,0,1-1.89.61,2.65,2.65,0,0,1-2.15-.45c-.14-.08-.29-.46-.47-1.16a11.49,11.49,0,0,0-.45-1.45,12.46,12.46,0,0,1-1.25-4.85l-.19-1.4a6.58,6.58,0,0,0-.06-1.09A23.75,23.75,0,0,0,262.31,217.84Z"/><path class="cls-2" d="M285.2,207c2.1.05,3.57.52,4.4,1.39a11.13,11.13,0,0,1-1.17,3.22,2.79,2.79,0,0,1-.65,1.26l-.62.6a1,1,0,0,1-.48.13,2.45,2.45,0,0,1-2.62-.73,1.32,1.32,0,0,0-.44-.44c-.17-.1-.3-.38-.38-.86a2,2,0,0,1-.4-1c0-1.95.72-3.16,2.22-3.62Zm-.66,9c.32-.15,1,0,2.2.53a2.08,2.08,0,0,0,.56.39l.74.63a.85.85,0,0,1,.17.62l-.11,4.15A13.69,13.69,0,0,1,288,224v.29q-.19,1.92,0,8.73c.07.88-.15,1.41-.66,1.58a1.54,1.54,0,0,1-1-.26.65.65,0,0,0-.33-.1h-.33l-.28.09a1.51,1.51,0,0,1-.52-.23,1.18,1.18,0,0,1-.48-.46.5.5,0,0,0-.39-.29.78.78,0,0,1-.55-.72,8.5,8.5,0,0,1-.65-1.53,1.43,1.43,0,0,0-.15-.52l-.13-4.11a4.61,4.61,0,0,1,.12-1.08l0-1.13c0-.35.09-1,.14-1.91s.12-1.67.2-2.24c0-.82-.06-1.37-.05-1.65a3.4,3.4,0,0,1,.06-.61c-.34-.36-.31-.83.08-1.41a2,2,0,0,1,1.2-.45Z"/><path class="cls-2" d="M306.6,206.28a4.74,4.74,0,0,1,.88-.23,2.6,2.6,0,0,1,1.92,0,2.55,2.55,0,0,1,.86.79,14.77,14.77,0,0,1,0,3.94,19,19,0,0,1-.66,2.39l-.4.75a2.11,2.11,0,0,1-.53.86c-.28.31-.49.47-.64.47a2.12,2.12,0,0,1-.73-.26,2.46,2.46,0,0,1-.63-.38,1.93,1.93,0,0,1-.13-.32l-.33-.92-1.06-1.07a2.54,2.54,0,0,1-.4-1.1,3.09,3.09,0,0,1,.12-2,2.49,2.49,0,0,1,.1-.49A4.15,4.15,0,0,1,306.6,206.28Zm.75,19.09a5.58,5.58,0,0,1,0-1.17,2.71,2.71,0,0,0,0-1,8.24,8.24,0,0,1-.19-1.59,3.29,3.29,0,0,0-.08-1.27,2.75,2.75,0,0,1-.34-1.48,3.23,3.23,0,0,1,.5-1.12,2.63,2.63,0,0,1,1-.93,2.81,2.81,0,0,1,1.69-.12,4,4,0,0,1,1,.84,3.35,3.35,0,0,1,.46,1,13.44,13.44,0,0,1,.49,2c.12.73.27,1.79.44,3.18s.43,3.25.76,5.57.5,3.76.51,4.33a1.78,1.78,0,0,1-.48,1.35c-.32.34-.63.43-.91.29a2.38,2.38,0,0,0-.86-.27,1.76,1.76,0,0,1-1.38-.48,5.86,5.86,0,0,1-.93-.35,2,2,0,0,1-1.05-1.39,9.7,9.7,0,0,1-.45-3l-.17-1.68.07-1.62Z"/><path class="cls-2" d="M320.05,216.59l0-.4a1.67,1.67,0,0,1,.43-.68,6.07,6.07,0,0,1,.91-.78l.7-.53a3.2,3.2,0,0,1,1.22-.32,4.66,4.66,0,0,1,1.56-.21l.53.1a1.59,1.59,0,0,1,.43.13,10.16,10.16,0,0,0,1,.39,7.41,7.41,0,0,1,2.66.86l.47.49.48.53.76.8c.29.3.68.77,1.17,1.4,1,1.3,1.13,2.46.5,3.48l-.62.85a1.55,1.55,0,0,1-1.65.19l-.43-.14a2.12,2.12,0,0,1-.65-1.33c-.25-.32-.41-.53-.49-.65a6.42,6.42,0,0,0-2.59-2.31,2.49,2.49,0,0,0-1.77.57c-.63.46-.75,1.17-.36,2.16-.06.29-.06.47,0,.55a4.94,4.94,0,0,1,.29.82,14,14,0,0,1,.73,1.5,1.75,1.75,0,0,0,.59,1.12l.18.69a14.77,14.77,0,0,1,1.2,1.09,2.73,2.73,0,0,1,.45.84l1.5,2.46a3.09,3.09,0,0,1,.41,1,1.81,1.81,0,0,1,.41,1.19,2.55,2.55,0,0,1-.43,1,1,1,0,0,1-.63.79,6,6,0,0,0-.78.43,15.09,15.09,0,0,1-1.85.79,7.47,7.47,0,0,1-2.45.69l-1.54.12H322a9.4,9.4,0,0,1-1.28-.17l-.39-.08a3.71,3.71,0,0,1-1.14-.11,5.81,5.81,0,0,1-2.59-1.25.52.52,0,0,1-.25-.3q-.68-1.74-.72-1.5a2,2,0,0,1-.08-1,8.62,8.62,0,0,0,.05-.92c0-.12.07-.28.24-.49q.58-.69,1.77.24l.57.46a1.89,1.89,0,0,0,1,.74,3.32,3.32,0,0,1,.83.16,4.57,4.57,0,0,0,.93.17l.95-.22h-.05a.73.73,0,0,1,.3,0,3.63,3.63,0,0,0,.77,0c1-.11,1.46-.5,1.38-1.15l-.23-.65a4.59,4.59,0,0,0-.87-1.83l-.34-.32q-1.59-2.26-2.46-3.8c-.08-.08-.26-.3-.53-.65a3.18,3.18,0,0,1-.41-1.6,5.84,5.84,0,0,1-.24-1.36l.17-.92a5.06,5.06,0,0,0,.07-.6,3.09,3.09,0,0,1,.18-.84,1.09,1.09,0,0,0,.11-.56A2.7,2.7,0,0,1,320.05,216.59Z"/><path class="cls-2" d="M348.16,220.39l0,.52a9.51,9.51,0,0,1-1.93,5.11,6.49,6.49,0,0,1-.7.72l-1.08,1a3.72,3.72,0,0,1-.88.57l-1.05.24a2.61,2.61,0,0,0-.79-.23.89.89,0,0,1-.89-.13,3,3,0,0,1-.49-.21,3.45,3.45,0,0,0-1.09-.29,15,15,0,0,1,0,1.65l.47,2.2a2.89,2.89,0,0,0,.95,1.29,2.48,2.48,0,0,0,1.08.33,2,2,0,0,0,.9-.07c.2-.09.56-.21,1.08-.38l1-.43a1.21,1.21,0,0,1,1.68.36,1.47,1.47,0,0,1,.28,1.13A2,2,0,0,1,346,235a2.85,2.85,0,0,1-1.52,1.16,2.18,2.18,0,0,0-.43.17,6.42,6.42,0,0,1-4.73.06l-.87-.46a.43.43,0,0,1-.28-.16A3.06,3.06,0,0,1,337,235a5.93,5.93,0,0,1-1.2-1.52c-.06-.1-.16-.31-.31-.63a14.59,14.59,0,0,1-1-2.93l-.22-1.37a3.22,3.22,0,0,0,.1-1.09l0-.75c-.26-.52,0-1.65.68-3.42a15.25,15.25,0,0,1,1.41-4.13l.67-1.2a5.17,5.17,0,0,1,.6-.68,4.1,4.1,0,0,1,1.13-.89.74.74,0,0,1,.58-.31,1.54,1.54,0,0,1,.63-.3,2.06,2.06,0,0,1,1.15-.37,6.17,6.17,0,0,1,2.17,0,5.12,5.12,0,0,1,4.44,3l.28,1a1.49,1.49,0,0,0,.12.57A.88.88,0,0,0,348.16,220.39Zm-4.16-.85,0-.52c0-.34,0-.52,0-.52l-.28-.1a1.12,1.12,0,0,1-.51-.12,1.15,1.15,0,0,0-.53.26,2,2,0,0,0-.89.85l-1.13,2a9.6,9.6,0,0,0-1,3.73c.8.38,1.4.39,1.79,0a2.82,2.82,0,0,0,.6-.64,1.63,1.63,0,0,1,.41-.62,3.9,3.9,0,0,0,.63-1.5A5.29,5.29,0,0,0,344,219.54Z"/><path class="cls-2" d="M350.51,209.7l-.07-2.81-.16-1.45a1.64,1.64,0,0,1,.1-1l.38-.72a9.56,9.56,0,0,1,1.47-1.35,2,2,0,0,1,1.1-.13,2.29,2.29,0,0,1,.91.18l.57.35a.79.79,0,0,1,.53.68c.18.17.25.3.2.4-.16.25-.21,2.13-.15,5.65l.53,6.4-.05,1.29a2.52,2.52,0,0,0,.14.7l.12.84a5.55,5.55,0,0,1,0,1.19,1.61,1.61,0,0,1,0,.53,1.46,1.46,0,0,1,.2.71,1.29,1.29,0,0,1,0,.79,9.36,9.36,0,0,0,.11,1.44,9.06,9.06,0,0,0,.31,1.38,5.85,5.85,0,0,1,.27,1.41l.44,1.75.1.7a11.58,11.58,0,0,1,.29,1.34l.58,2.4.37,1.23a3.19,3.19,0,0,1,.1,1.56,1.39,1.39,0,0,1-.64,1,3.09,3.09,0,0,1-3.29-.34l-.37.05a2.42,2.42,0,0,1-.66-.95.59.59,0,0,1-.42-.61,1.31,1.31,0,0,0-.31-.81,1.23,1.23,0,0,1-.32-.62,5.34,5.34,0,0,0-.25-1.06v-.38a.64.64,0,0,1-.2-.4l-.21-.83,0-.37a4.07,4.07,0,0,0-.1-.51,1,1,0,0,1,.05-.49,3.08,3.08,0,0,1-.24-1.34c-.15-2.43-.29-4.09-.42-5l-.12-1.13-.19-1.35c-.07-.76-.19-1.71-.33-2.86a5.87,5.87,0,0,1-.11-1.89l-.1-.42a17.9,17.9,0,0,1-.09-3.11C350.5,210.5,350.52,209.79,350.51,209.7Z"/><path class="cls-2" d="M291.92,221.07a17,17,0,0,1,0-2.17l.33-1.61.95-2,.75-1c0-.25.82-.6,2.45-1h.05a8.14,8.14,0,0,1,1.63.1,4.43,4.43,0,0,1,2.14.92,4.79,4.79,0,0,1,2.27,5,2.11,2.11,0,0,1-.47,1.14,2,2,0,0,1-.71.28,1.7,1.7,0,0,1-1.09,0,5.6,5.6,0,0,1-1-.54,1.21,1.21,0,0,1-.51-1.18,1.17,1.17,0,0,1-.19-1.23,1,1,0,0,0-.14-.84l-.57-.24c-.19.06-.37.35-.54.85a5.51,5.51,0,0,0-.26,1.84,6.67,6.67,0,0,0,1,3.58,5.94,5.94,0,0,0,1.13,1.23l.85,1,1.22,1.13.9,1.22a7.05,7.05,0,0,1,.92,1.44,4.36,4.36,0,0,1,.59,2,6.18,6.18,0,0,1-.52,2.2l-.42.61a2.34,2.34,0,0,1-.52.61,6,6,0,0,1-3.07,1.75h-.33a10.55,10.55,0,0,1-3,0l-1.46-.38a1,1,0,0,1-.52-.16,3.59,3.59,0,0,0-.52-.26,4.37,4.37,0,0,1-1.32-1.13q-.24-.15-.33-1.32a2.55,2.55,0,0,1,.14-1.94,3.32,3.32,0,0,1,.14-1.08,1.87,1.87,0,0,1,2.31-.47.72.72,0,0,1,.48.75,8,8,0,0,0,.16,1,5.56,5.56,0,0,0,.54,1.53,1.16,1.16,0,0,0,1,.71,2.31,2.31,0,0,0,1.37-.52,10.75,10.75,0,0,0,.75-1.6l.1-.66a2.09,2.09,0,0,0-.43-1.47,2.63,2.63,0,0,0-.66-1.13l-.7-1-.71-.66a6.5,6.5,0,0,1-1.18-.75,3.55,3.55,0,0,0-.52-.66,7.36,7.36,0,0,1-.9-1.3,5.36,5.36,0,0,0-1.08-1.39A3.07,3.07,0,0,0,291.92,221.07Z"/><path class="cls-2" d="M296.58,234.34c2.11,0,3.57.51,4.4,1.38a10.54,10.54,0,0,1-1.17,3.23,2.88,2.88,0,0,1-.64,1.26l-.63.6a.86.86,0,0,1-.48.12,2.43,2.43,0,0,1-2.62-.72,1.32,1.32,0,0,0-.44-.44c-.17-.1-.29-.38-.38-.86a2,2,0,0,1-.4-.95c0-2,.73-3.16,2.22-3.62Z"/></svg>