<svg id="Layer_1" data-name="Layer 1" xmlns="http://www.w3.org/2000/svg" viewBox="0 0 620 400"><defs><style>.cls-1{fill:#fff;}.cls-2{fill:#405ea9;}.cls-3{fill:#56b895;}</style></defs><rect class="cls-1" x="-3.17" y="-2.09" width="628.38" height="407.26"/><rect class="cls-2" x="276.27" y="148.79" width="4.85" height="16.38" rx="2.43" transform="translate(-29.8 72.47) rotate(-14.07)"/><rect class="cls-2" x="270.26" y="153.22" width="4.85" height="10.54" rx="2.43" transform="translate(-30.35 71.06) rotate(-14.07)"/><path class="cls-2" d="M333.69,157.16l-19.19-6.81a12.41,12.41,0,0,0-8.29,0L287,157.16a2.42,2.42,0,0,1-3.15-1.69h0a2.42,2.42,0,0,1,1.54-2.86l20.84-7.3a12.37,12.37,0,0,1,8.19,0l20.84,7.3a2.41,2.41,0,0,1,1.54,2.86h0A2.4,2.4,0,0,1,333.69,157.16Z"/><rect class="cls-2" x="333.82" y="154.55" width="16.38" height="4.85" rx="2.43" transform="translate(106.6 450.57) rotate(-75.93)"/><rect class="cls-2" x="342.76" y="156.06" width="10.54" height="4.85" rx="2.43" transform="translate(109.68 457.54) rotate(-75.93)"/><path class="cls-3" d="M307.2,191.94h0a2.42,2.42,0,0,1-3.67,0l-5.43-6.29-.6-.69,3.67-3.17.59.68,5.44,6.3A2.42,2.42,0,0,1,307.2,191.94Z"/><polygon class="cls-3" points="313.56 196.12 310.36 199.83 307.15 196.12 310.36 192.41 313.56 196.12"/><path class="cls-3" d="M341.64,171v33.21a9.85,9.85,0,0,1-9.85,9.85h-3.43a12.46,12.46,0,0,1-9.43-4.31l-5.42-6.28a2.42,2.42,0,0,1,0-3.17h0a2.42,2.42,0,0,1,3.67,0l5.43,6.27a7.57,7.57,0,0,0,5.75,2.64h3.43a5,5,0,0,0,5-5V171.09a2.5,2.5,0,0,1,2.44-2.51,2.44,2.44,0,0,1,1.7.71A2.41,2.41,0,0,1,341.64,171Z"/><path class="cls-3" d="M313.56,196.12l-3.2,3.71-8.58,9.93a12.44,12.44,0,0,1-9.42,4.31h-3.43a9.86,9.86,0,0,1-9.86-9.85V171a2.43,2.43,0,1,1,4.86,0v33.21a5,5,0,0,0,5,5h3.43a7.58,7.58,0,0,0,5.75-2.64l9-10.46,3.21-3.71Z"/><path class="cls-3" d="M323.23,184.94l-9.67,11.18-3.2,3.71-8.58,9.93a12.44,12.44,0,0,1-9.42,4.31h-3.43a9.86,9.86,0,0,1-9.86-9.85V171a2.43,2.43,0,1,1,4.86,0v33.21a5,5,0,0,0,5,5h3.43a7.58,7.58,0,0,0,5.75-2.64l9-10.46,3.21-3.71,9.2-10.64Z"/><path class="cls-3" d="M319.36,177.48a5.45,5.45,0,1,0,8.23,7.16c2-2.27,3.85-8.14,1.58-10.12S321.34,175.21,319.36,177.48Z"/><path class="cls-3" d="M300.33,184.53a5,5,0,0,1-7.11-.49l-.12-.14-.25-.29-2.4-2.75a1.21,1.21,0,0,1,.91-2,1.23,1.23,0,0,1,.91.41l1.92,2.22a.74.74,0,0,0,1,.07h0a.73.73,0,0,0,.07-1l-1.93-2.21a1.2,1.2,0,0,1,1.81-1.58l1.93,2.22a.72.72,0,0,0,1,.07h0a.73.73,0,0,0,.07-1l-1.93-2.21a1.21,1.21,0,0,1,.12-1.7,1.24,1.24,0,0,1,.79-.29,1.21,1.21,0,0,1,.91.41l2.4,2.76.24.28.13.14A5,5,0,0,1,300.33,184.53Z"/><path class="cls-2" d="M166.54,256.12a2.86,2.86,0,0,1-1-.63,3.12,3.12,0,0,1-.64-1,2.79,2.79,0,0,1-.24-1.15v-23.9a2.86,2.86,0,0,1,.24-1.15,3,3,0,0,1,2.76-1.8,2.83,2.83,0,0,1,2.12.86,3.1,3.1,0,0,1,.65.94,2.85,2.85,0,0,1,.23,1.15V237l10.72-9.64a3.14,3.14,0,0,1,2.06-.83,2.78,2.78,0,0,1,1.11.24,3.08,3.08,0,0,1,1,.64,3.27,3.27,0,0,1,.69,1,2.93,2.93,0,0,1-.66,3.34l-10.45,9.32L186,251.22a2.82,2.82,0,0,1,.86,2.08,3,3,0,0,1-.23,1.16,3.07,3.07,0,0,1-.65,1,3.12,3.12,0,0,1-1,.68,2.94,2.94,0,0,1-1.15.25,2.85,2.85,0,0,1-2.1-.91L170.7,245.18v8.21a2.78,2.78,0,0,1-.23,1.15,3.15,3.15,0,0,1-.65,1,2.87,2.87,0,0,1-2.12.86A3.08,3.08,0,0,1,166.54,256.12Z"/><path class="cls-2" d="M190.7,231.8a3.4,3.4,0,0,1-.72-1,3,3,0,0,1-.25-1.22,3.12,3.12,0,0,1,1-2.28,3,3,0,0,1,2.25-.92,3.22,3.22,0,0,1,1.24.23,3.15,3.15,0,0,1,1,.69,3.19,3.19,0,0,1,0,4.54,3.34,3.34,0,0,1-1,.7,3.22,3.22,0,0,1-1.24.24A3.07,3.07,0,0,1,190.7,231.8Zm1.09,24.56a3.07,3.07,0,0,1-1-.65,3.15,3.15,0,0,1-.68-1,2.76,2.76,0,0,1-.24-1.13V237.55a2.85,2.85,0,0,1,.24-1.14,3.15,3.15,0,0,1,.68-1,3,3,0,0,1,1-.64,3.08,3.08,0,0,1,1.19-.24,2.85,2.85,0,0,1,1.14.24,3.29,3.29,0,0,1,1,.64,2.89,2.89,0,0,1,.62,1,3.13,3.13,0,0,1,.21,1.15v16.07a2.76,2.76,0,0,1-.24,1.13,2.89,2.89,0,0,1-.64,1,3.15,3.15,0,0,1-1,.65,3,3,0,0,1-1.15.23A3.08,3.08,0,0,1,191.79,256.36Z"/><path class="cls-2" d="M207.07,255.76a11,11,0,0,1-3.54-2.37,11.3,11.3,0,0,1-2.37-3.53,10.82,10.82,0,0,1-.85-4.25V231a3,3,0,0,1,.9-2.17,3,3,0,0,1,1-.64,2.87,2.87,0,0,1,1.16-.24,3.08,3.08,0,0,1,1.19.24,3.35,3.35,0,0,1,1,.64,3.59,3.59,0,0,1,.69,1,2.85,2.85,0,0,1,.26,1.18v2.88h4.33a2.92,2.92,0,0,1,1.17.24,3.53,3.53,0,0,1,1,.64,3.44,3.44,0,0,1,.64,1,2.87,2.87,0,0,1,.24,1.16,2.72,2.72,0,0,1-.88,2,3.29,3.29,0,0,1-1,.63,3.09,3.09,0,0,1-1.17.23h-4.33v5.84a5.21,5.21,0,0,0,.36,1.93,4.62,4.62,0,0,0,1,1.59,4.69,4.69,0,0,0,1.55,1.07,4.8,4.8,0,0,0,1.9.37,4.38,4.38,0,0,0,3.11-1.06,3.32,3.32,0,0,1,2.28-1,2.65,2.65,0,0,1,1,.21,2.77,2.77,0,0,1,.86.6,2.81,2.81,0,0,1,.84,2,3.69,3.69,0,0,1-.28,1.37,3.88,3.88,0,0,1-.8,1.2,9.37,9.37,0,0,1-3.19,2,11,11,0,0,1-8.08-.18Z"/><path class="cls-2" d="M227.82,255.77a11.18,11.18,0,0,1-3.59-2.31,10.91,10.91,0,0,1-2.44-3.52,10.46,10.46,0,0,1-.88-4.27,10.73,10.73,0,0,1,.88-4.32,11.06,11.06,0,0,1,6.06-5.93,11.19,11.19,0,0,1,4.34-.85,11.54,11.54,0,0,1,4.22.76,9.13,9.13,0,0,1,3.38,2.22,4,4,0,0,1,.81,1.2,3.38,3.38,0,0,1,.28,1.3,2.77,2.77,0,0,1-1.09,2.17,3.37,3.37,0,0,1-1,.59,2.64,2.64,0,0,1-2.27-.12,8.34,8.34,0,0,1-1.4-.94,5.14,5.14,0,0,0-1.53-.83,5.51,5.51,0,0,0-1.59-.23,4.92,4.92,0,0,0-1.95.39,4.77,4.77,0,0,0-1.59,1.1,4.87,4.87,0,0,0-1.05,1.56,4.8,4.8,0,0,0-.37,1.87,4.53,4.53,0,0,0,.34,1.71,5.41,5.41,0,0,0,.94,1.56,5.35,5.35,0,0,0,1.49,1.17,4,4,0,0,0,1.79.45h.22a.56.56,0,0,0,.2,0,5.11,5.11,0,0,0,1.6-.24,5.72,5.72,0,0,0,1.5-.84,7.37,7.37,0,0,1,1.35-.92,2.87,2.87,0,0,1,1.33-.32,2.73,2.73,0,0,1,1,.19,3.13,3.13,0,0,1,1,.58,2.78,2.78,0,0,1,1.08,2.19,3.32,3.32,0,0,1-.27,1.29,3.61,3.61,0,0,1-.79,1.17,9.43,9.43,0,0,1-3.39,2.22,11.77,11.77,0,0,1-4.21.75A11.59,11.59,0,0,1,227.82,255.77Z"/><path class="cls-2" d="M261.51,256.17a2.89,2.89,0,0,1-1-.64,2.74,2.74,0,0,1-.88-2.07v-8.17a5.73,5.73,0,0,0-.3-1.87,4.57,4.57,0,0,0-.87-1.54,4,4,0,0,0-1.38-1,4.32,4.32,0,0,0-1.78-.36,6.5,6.5,0,0,0-2,.33,7.49,7.49,0,0,0-1.87.95,5.2,5.2,0,0,0-1.41,1.48,3.29,3.29,0,0,0-.53,1.77v8.33a3,3,0,0,1-.23,1.15,3,3,0,0,1-3.92,1.59,3,3,0,0,1-1-.64,3.07,3.07,0,0,1-.65-1,3,3,0,0,1-.23-1.14V229.56a3.17,3.17,0,0,1,.23-1.17,2.76,2.76,0,0,1,.67-1,3.06,3.06,0,0,1,2.12-.88,2.85,2.85,0,0,1,1.14.24,2.89,2.89,0,0,1,1,.64,3.11,3.11,0,0,1,.88,2.14V237a10.48,10.48,0,0,1,2.76-1.76,7.76,7.76,0,0,1,3.06-.63,10.19,10.19,0,0,1,7.38,3.14,10.62,10.62,0,0,1,2.18,3.43,11.13,11.13,0,0,1,.77,4.15v8.17a2.71,2.71,0,0,1-.88,2.07,2.93,2.93,0,0,1-2.12.86A3.07,3.07,0,0,1,261.51,256.17Z"/><path class="cls-2" d="M275.74,255.74a11.25,11.25,0,0,1-3.57-2.37,11.5,11.5,0,0,1-2.4-3.53,10.54,10.54,0,0,1-.87-4.23,10.71,10.71,0,0,1,.87-4.28,11.24,11.24,0,0,1,2.4-3.55,11.12,11.12,0,0,1,3.56-2.36,11.09,11.09,0,0,1,8.49,0,11.09,11.09,0,0,1,3.54,2.32,11.53,11.53,0,0,1,2.4,3.51,11,11,0,0,1,.92,4.21,2.7,2.7,0,0,1-.82,2.06,3,3,0,0,1-2.13.78H275.6a5.6,5.6,0,0,0,1.9,1.85,4.87,4.87,0,0,0,2.5.68,5.8,5.8,0,0,0,1.38-.14,3.61,3.61,0,0,0,1-.4,3.16,3.16,0,0,1,1.74-.55,2.8,2.8,0,0,1,2.1.93,3.57,3.57,0,0,1,.61,1,3.17,3.17,0,0,1,.22,1.18,2.58,2.58,0,0,1-.44,1.46,3.71,3.71,0,0,1-1.29,1.18,10.69,10.69,0,0,1-5.31,1.12A10.84,10.84,0,0,1,275.74,255.74Zm9.18-12.46a5,5,0,0,0-1.9-2.18,5.38,5.38,0,0,0-2.9-.8,5,5,0,0,0-2.85.82,5.18,5.18,0,0,0-1.85,2.16Z"/><path class="cls-2" d="M295.3,256.12a3,3,0,0,1-1-.63,2.73,2.73,0,0,1-.93-2.08v-8.12a10.41,10.41,0,0,1,.84-4.13A10.81,10.81,0,0,1,300,235.4a10.41,10.41,0,0,1,4.11-.83,10.82,10.82,0,0,1,4.18.83,11,11,0,0,1,5.94,5.76,10.1,10.1,0,0,1,.87,4.13v8.12a2.87,2.87,0,0,1-1.79,2.71,3,3,0,0,1-1.15.23,3.1,3.1,0,0,1-1.18-.23,2.86,2.86,0,0,1-1-.63,2.73,2.73,0,0,1-.9-2.08v-8.1a4.58,4.58,0,0,0-.43-1.81,4.83,4.83,0,0,0-1.13-1.53,5.23,5.23,0,0,0-1.6-1,5,5,0,0,0-1.85-.36,4.63,4.63,0,0,0-1.81.35,4.34,4.34,0,0,0-1.46,1,5,5,0,0,0-1,1.48,4.58,4.58,0,0,0-.39,1.8v8.23a2.74,2.74,0,0,1-.86,2.08,2.83,2.83,0,0,1-2.08.86A3.17,3.17,0,0,1,295.3,256.12Z"/><path class="cls-3" d="M321.62,255.76a2.84,2.84,0,0,1-.81-2.1V232.52h-5.73a2.9,2.9,0,0,1-2.12-.88,2.85,2.85,0,0,1-.86-2.12,2.89,2.89,0,0,1,.86-2.1,2.86,2.86,0,0,1,2.12-.88h17.24a3.06,3.06,0,0,1,2.12.88,3.26,3.26,0,0,1,.64,1,2.9,2.9,0,0,1,.24,1.16,2.79,2.79,0,0,1-.24,1.15,3.12,3.12,0,0,1-.64.95,2.86,2.86,0,0,1-1,.63,3.08,3.08,0,0,1-1.16.23H326.7v21.14a2.79,2.79,0,0,1-.24,1.15,3.12,3.12,0,0,1-.64.95,3.29,3.29,0,0,1-1,.63,3.09,3.09,0,0,1-1.17.23A2.72,2.72,0,0,1,321.62,255.76Z"/><path class="cls-3" d="M334.05,256.12a2.9,2.9,0,0,1-1-.63,3,3,0,0,1-.67-1,2.65,2.65,0,0,1-.25-1.15v-7.58a11.12,11.12,0,0,1,1-4.3,11.84,11.84,0,0,1,2.49-3.6,11.61,11.61,0,0,1,3.6-2.41,11.31,11.31,0,0,1,4.32-.93h.18a3.09,3.09,0,0,1,2.29.83,3.08,3.08,0,0,1-.08,4.29,3.06,3.06,0,0,1-1,.64,3.29,3.29,0,0,1-1.21.22h-.13a5.58,5.58,0,0,0-2.08.45,5.51,5.51,0,0,0-1.71,1.2,5.73,5.73,0,0,0-1.2,1.76,5.53,5.53,0,0,0-.45,2.1v7.33a3,3,0,0,1-.23,1.17,2.73,2.73,0,0,1-.63.93,2.82,2.82,0,0,1-2.07.86A3.18,3.18,0,0,1,334.05,256.12Z"/><path class="cls-3" d="M379.58,255.77a11.22,11.22,0,0,1-3.6-2.31,11.07,11.07,0,0,1-2.44-3.52,10.46,10.46,0,0,1-.88-4.27,10.73,10.73,0,0,1,.88-4.32,11.31,11.31,0,0,1,10.4-6.78,11.5,11.5,0,0,1,4.22.76,9.25,9.25,0,0,1,3.39,2.22,4.13,4.13,0,0,1,.8,1.2,3.38,3.38,0,0,1,.28,1.3,2.79,2.79,0,0,1-1.08,2.17,3.66,3.66,0,0,1-1,.59,2.79,2.79,0,0,1-.95.2,2.72,2.72,0,0,1-1.33-.32,8.34,8.34,0,0,1-1.4-.94,5,5,0,0,0-1.53-.83,5.51,5.51,0,0,0-1.59-.23,4.92,4.92,0,0,0-1.95.39,4.77,4.77,0,0,0-1.59,1.1,4.87,4.87,0,0,0-1.05,1.56,4.8,4.8,0,0,0-.37,1.87,4.53,4.53,0,0,0,.34,1.71,5.23,5.23,0,0,0,.95,1.56,5.08,5.08,0,0,0,1.49,1.17,3.91,3.91,0,0,0,1.78.45h.22a.62.62,0,0,0,.21,0,5.09,5.09,0,0,0,1.59-.24,5.43,5.43,0,0,0,1.5-.84,7.73,7.73,0,0,1,1.35-.92,2.87,2.87,0,0,1,1.33-.32,2.73,2.73,0,0,1,1,.19,3.13,3.13,0,0,1,1,.58,2.76,2.76,0,0,1,1.09,2.19,3.32,3.32,0,0,1-.27,1.29,3.78,3.78,0,0,1-.79,1.17,9.46,9.46,0,0,1-3.4,2.22,11.77,11.77,0,0,1-4.21.75A11.5,11.5,0,0,1,379.58,255.77Z"/><path class="cls-3" d="M397.15,256.12a3,3,0,0,1-1-.63,3,3,0,0,1-.67-1,2.62,2.62,0,0,1-.25-1.13V229.7a2.8,2.8,0,0,1,.92-2.08,3,3,0,0,1,1-.63,3.09,3.09,0,0,1,1.17-.23,2.9,2.9,0,0,1,2.12.86,3,3,0,0,1,.83,2.08l0,12.05,6.59-6.05a2.79,2.79,0,0,1,2-.79,2.87,2.87,0,0,1,1.16.24,3.26,3.26,0,0,1,1,.64,3.48,3.48,0,0,1,.68,1,2.77,2.77,0,0,1,.25,1.17,2.42,2.42,0,0,1-.23,1.12,2.9,2.9,0,0,1-.7,1l-5.48,5,6.77,6.18a2.41,2.41,0,0,1,.81,1.85,3.09,3.09,0,0,1-.23,1.17,3.62,3.62,0,0,1-.65,1,2.78,2.78,0,0,1-2.07,1,3.14,3.14,0,0,1-2.21-.9l-7.63-7v5a3,3,0,0,1-.23,1.15,2.73,2.73,0,0,1-.63.93,2.82,2.82,0,0,1-2.07.86A3.09,3.09,0,0,1,397.15,256.12Z"/><path class="cls-3" d="M423,255.74a11.25,11.25,0,0,1-3.57-2.37,11.5,11.5,0,0,1-2.4-3.53,10.54,10.54,0,0,1-.87-4.23,10.71,10.71,0,0,1,.87-4.28,11.24,11.24,0,0,1,2.4-3.55,11.12,11.12,0,0,1,3.56-2.36,11.09,11.09,0,0,1,8.49,0,11.09,11.09,0,0,1,3.54,2.32,11.53,11.53,0,0,1,2.4,3.51,11,11,0,0,1,.92,4.21,2.7,2.7,0,0,1-.82,2.06,3,3,0,0,1-2.14.78H422.84a5.6,5.6,0,0,0,1.9,1.85,4.84,4.84,0,0,0,2.5.68,5.8,5.8,0,0,0,1.38-.14,3.61,3.61,0,0,0,1-.4,3.16,3.16,0,0,1,1.74-.55,2.8,2.8,0,0,1,2.1.93,3.57,3.57,0,0,1,.61,1,3.17,3.17,0,0,1,.22,1.18,2.58,2.58,0,0,1-.44,1.46,3.66,3.66,0,0,1-1.3,1.18,10.62,10.62,0,0,1-5.3,1.12A10.84,10.84,0,0,1,423,255.74Zm9.18-12.46a5,5,0,0,0-1.91-2.18,5.35,5.35,0,0,0-2.9-.8,4.94,4.94,0,0,0-2.84.82,5.18,5.18,0,0,0-1.85,2.16Z"/><path class="cls-3" d="M443.22,256.12a2.81,2.81,0,0,1-1-.63,3.06,3.06,0,0,1-.68-1,2.65,2.65,0,0,1-.25-1.15v-7.58a11.3,11.3,0,0,1,1-4.3,11.7,11.7,0,0,1,2.5-3.6,11.65,11.65,0,0,1,7.92-3.34h.18a3.11,3.11,0,0,1,2.29.83,2.88,2.88,0,0,1,.82,2.15,2.92,2.92,0,0,1-.9,2.14,3.11,3.11,0,0,1-1,.64,3.23,3.23,0,0,1-1.2.22h-.14a5.48,5.48,0,0,0-2.07.45,5.71,5.71,0,0,0-3.37,5.06v7.33a3,3,0,0,1-.22,1.17,2.73,2.73,0,0,1-.63.93,2.86,2.86,0,0,1-2.08.86A3.09,3.09,0,0,1,443.22,256.12Z"/><path class="cls-3" d="M366.63,234.57a3,3,0,0,0-2.13.89,2.84,2.84,0,0,0-.43.54,11,11,0,1,0,0,19.17,3,3,0,0,0,5.59-1.6v-16A3,3,0,0,0,366.63,234.57Zm-8,16a4.94,4.94,0,1,1,4.94-4.94A4.94,4.94,0,0,1,358.65,250.52Z"/></svg>