<svg id="Layer_1" data-name="Layer 1" xmlns="http://www.w3.org/2000/svg" viewBox="0 0 620 400"><defs><style>.cls-1{fill:#fff;}.cls-2{fill:#253063;}</style></defs><rect class="cls-1" x="-3.17" y="-2.09" width="628.38" height="407.26"/><path class="cls-2" d="M218,245.9h-6.92V228.28l-7.84,12.86h-.78l-7.84-12.86V245.9h-6.92V215.6h6.92l8.23,13.46,8.23-13.46H218Z"/><path class="cls-2" d="M245.18,224.26V245.9h-6.5v-2a8.15,8.15,0,0,1-6.45,2.64c-5.67,0-10.34-5-10.34-11.43s4.67-11.43,10.34-11.43a8.15,8.15,0,0,1,6.45,2.64v-2Zm-6.5,10.82a5.15,5.15,0,1,0-5.15,5.28A4.94,4.94,0,0,0,238.68,235.08Z"/><path class="cls-2" d="M270.72,232.61V245.9h-6.5V233.56a3.57,3.57,0,0,0-3.76-3.94c-2.38,0-4,1.39-4,4.46V245.9h-6.49V215.6h6.49v10.69c1.17-1.6,3.33-2.64,6.19-2.64C267,223.65,270.72,226.77,270.72,232.61Z"/><path class="cls-2" d="M274.52,218.46a3.9,3.9,0,1,1,3.9,3.89A3.94,3.94,0,0,1,274.52,218.46Zm.65,5.8h6.5V245.9h-6.5Z"/><path class="cls-2" d="M299.42,223.82v7.36c-2.69-.43-6.5.65-6.5,4.94v9.78h-6.49V224.26h6.49v3.85C293.79,225.21,296.69,223.82,299.42,223.82Z"/><path class="cls-2" d="M319.7,246A11.16,11.16,0,0,1,312,239l6-3.46a6.36,6.36,0,0,0,6.37,4.19c3.29,0,4.11-1.29,4.11-2.46,0-1.86-1.73-2.6-6.28-3.86s-8.92-3.42-8.92-9.22S318.16,215,323.4,215a11.75,11.75,0,0,1,11.08,6.84l-5.84,3.42c-1-2.16-2.47-3.5-5.24-3.5-2.17,0-3.25,1.08-3.25,2.29,0,1.39.74,2.34,5.46,3.77s9.74,3,9.74,9.39a8.62,8.62,0,0,1-5.6,8.27,11.57,11.57,0,0,1-4.31.85l-2.38,0A11.9,11.9,0,0,1,319.7,246Z"/><path class="cls-2" d="M356.12,241.14H344.87l-1.52,4.76h-7.57l10.3-30.3h8.83l10.31,30.3h-7.58Zm-2.07-6.49-3.55-11.13L347,234.65Z"/><path class="cls-2" d="M391.19,215.6v30.3h-6.93v-12h-9.52v12h-6.93V215.6h6.93v11.6h9.52V215.6Z"/><path class="cls-2" d="M396.17,210a3.68,3.68,0,1,1,3.67,3.68A3.73,3.73,0,0,1,396.17,210Zm7.14,5.63v30.3h-6.93V215.6Z"/><path class="cls-2" d="M432.31,215.6v30.3h-5.19l-11.69-16.45V245.9H408.5V215.6h5.2l11.69,16.45V215.6Z"/><circle class="cls-2" cx="323.66" cy="251.62" r="3.68"/><path class="cls-2" d="M276.44,267a7.08,7.08,0,0,1-7.1,7.31H263.5V259.71h5.84A7.07,7.07,0,0,1,276.44,267Zm-3.21,0a3.77,3.77,0,0,0-3.89-4.09h-2.5v8.19h2.5A3.77,3.77,0,0,0,273.23,267Z"/><path class="cls-2" d="M277.9,261.09a1.88,1.88,0,1,1,1.88,1.87A1.9,1.9,0,0,1,277.9,261.09Zm.32,2.79h3.13v10.44h-3.13Z"/><path class="cls-2" d="M285.53,274.39a4.18,4.18,0,0,1-2.72-2.26l2.71-1.55a1.72,1.72,0,0,0,1.78,1.24c.75,0,1.13-.23,1.13-.65,0-1.15-5.14-.54-5.14-4.16,0-2.27,1.92-3.42,4.09-3.42a4.55,4.55,0,0,1,4.07,2.24l-2.67,1.44a1.5,1.5,0,0,0-1.4-.92c-.54,0-.88.21-.88.58,0,1.19,5.14.4,5.14,4.26A3,3,0,0,1,290,274a4.28,4.28,0,0,1-1.8.45l-1.27,0A4.4,4.4,0,0,1,285.53,274.39Z"/><path class="cls-2" d="M306.65,274.32,302,267.56v6.76h-3.34V259.71H302v6.34l4.47-6.34h3.8l-4.93,7.12,5.14,7.49Z"/><path class="cls-2" d="M311.6,259.08h3.13v15.24H311.6Z"/><path class="cls-2" d="M316.71,261.09a1.88,1.88,0,1,1,1.88,1.87A1.9,1.9,0,0,1,316.71,261.09Zm.31,2.79h3.14v10.44H317Z"/><path class="cls-2" d="M332.47,267.91v6.41h-3.13v-5.95a1.72,1.72,0,0,0-1.82-1.9c-1.14,0-1.94.67-1.94,2.15v5.7h-3.13V263.88h3.13v1a3.59,3.59,0,0,1,3-1.27C330.68,263.59,332.47,265.09,332.47,267.91Z"/><path class="cls-2" d="M334.31,261.09a1.88,1.88,0,1,1,1.88,1.87A1.9,1.9,0,0,1,334.31,261.09Zm.31,2.79h3.13v10.44h-3.13Z"/><path class="cls-2" d="M350.76,263.88v9.92c0,3.51-2.74,5-5.51,5a5.35,5.35,0,0,1-4.95-2.53l2.67-1.54a2.39,2.39,0,0,0,2.38,1.31,2.08,2.08,0,0,0,2.36-2.23v-1a3.7,3.7,0,0,1-3,1.36,5.31,5.31,0,0,1,0-10.61,3.7,3.7,0,0,1,3,1.36v-1.07Zm-9.39-4.21h2.75a.9.9,0,1,0,1.8,0h2.75c0,2-1.29,3.13-3.65,3.13S341.37,261.65,341.37,259.67Zm6.34,9.22a2.53,2.53,0,1,0-2.52,2.43A2.36,2.36,0,0,0,347.71,268.89Z"/><path class="cls-2" d="M352.74,261.09a1.88,1.88,0,1,1,1.88,1.87A1.9,1.9,0,0,1,352.74,261.09Zm.32,2.79h3.13v10.44h-3.13Z"/><path class="cls-2" d="M287.22,279.06a1.88,1.88,0,1,0-1.87-1.88A1.9,1.9,0,0,0,287.22,279.06Z"/><path class="cls-2" d="M319.63,125.6l-14.58,14.59L290.46,125.6c-9.95-9.95-27-2.9-27,11.18v45h0a20.86,20.86,0,0,0,20.86,20.86h5.21a35.68,35.68,0,0,1-2.29-10.09c-.51-4.36-1-8.48-4.63-13.82-7.67-11.27-3.19-25.23,6.38-28.3a19.87,19.87,0,0,1,16,1.87,19.9,19.9,0,0,1,16-1.87c9.4,3,14.15,16.88,6.39,28.29-3.61,5.3-4.13,9.53-4.68,14a36.74,36.74,0,0,1-2.25,9.9h5.22a20.86,20.86,0,0,0,20.86-20.86h0v-45C346.61,122.7,329.58,115.65,319.63,125.6Z"/><path class="cls-2" d="M308.94,195.66c-.84-4.23-1.71-8.61-3.88-8.61h0c-2.19,0-3.06,4.39-3.9,8.62a47.3,47.3,0,0,1-1.71,6.85.94.94,0,0,0,0,.09h11.27a.79.79,0,0,0,0-.09A47.12,47.12,0,0,1,308.94,195.66Z"/></svg>