<svg id="Layer_1" data-name="Layer 1" xmlns="http://www.w3.org/2000/svg" xmlns:xlink="http://www.w3.org/1999/xlink" viewBox="0 0 620 400"><defs><style>.cls-1{fill:#fff;}.cls-2{fill:#010101;}.cls-3{fill:url(#Adsız_degrade_19);}.cls-4{fill:url(#Adsız_degrade_19-2);}</style><linearGradient id="Adsız_degrade_19" x1="284.8" y1="167.96" x2="370.32" y2="167.96" gradientUnits="userSpaceOnUse"><stop offset="0" stop-color="#e3272c"/><stop offset="1" stop-color="#991915"/></linearGradient><linearGradient id="Adsız_degrade_19-2" x1="325.11" y1="165.68" x2="330.05" y2="165.68" xlink:href="#Adsız_degrade_19"/></defs><rect class="cls-1" x="-3.17" y="-2.09" width="628.38" height="407.26"/><path class="cls-2" d="M227.9,253.17v10.48H217.56v-33H232q6.06,0,9.29,3.07a10.81,10.81,0,0,1,3.24,8.24,11.27,11.27,0,0,1-1.45,5.66,10.24,10.24,0,0,1-4.26,4,14.35,14.35,0,0,1-6.82,1.49ZM234,242q0-3-3.21-3H227.9V245h2.93Q234,245,234,242Z"/><path class="cls-2" d="M268.91,258.67h-11l-1.62,5H245.45l12.06-33h11.91l12,33h-10.9Zm-2.51-7.78-3-9.17-3,9.17Z"/><path class="cls-2" d="M300.34,263.65l-6.24-11.83v11.83H283.76v-33h15.37a15.09,15.09,0,0,1,6.84,1.42,9.74,9.74,0,0,1,4.26,3.86,10.76,10.76,0,0,1,1.42,5.52,9.75,9.75,0,0,1-1.84,5.86,10,10,0,0,1-5.28,3.68l7.17,12.62Zm-6.24-18.72h4.1a3.21,3.21,0,0,0,2.23-.67,3.24,3.24,0,0,0,0-4.17,3.07,3.07,0,0,0-2.21-.74h-4.1Z"/><path class="cls-2" d="M325.29,255.83h10v7.82H315v-33h10.33Z"/><path class="cls-2" d="M359.65,258.67h-11l-1.63,5H336.19l12.06-33h11.92l12,33h-10.9Zm-2.51-7.78-3-9.17-3,9.17Z"/><path class="cls-2" d="M391.08,263.65l-6.24-11.83v11.83H374.51v-33h15.36a15.09,15.09,0,0,1,6.84,1.42A9.74,9.74,0,0,1,401,236a10.76,10.76,0,0,1,1.42,5.52,9.75,9.75,0,0,1-1.84,5.86,10,10,0,0,1-5.28,3.68l7.17,12.62Zm-6.24-18.72h4.1a3.21,3.21,0,0,0,2.23-.67,3.24,3.24,0,0,0,0-4.17,3.07,3.07,0,0,0-2.21-.74h-4.1Z"/><path class="cls-2" d="M230.27,275.41a7.59,7.59,0,0,1,2.73,4.22h-2.85a5,5,0,0,0-1.87-2.39,5.38,5.38,0,0,0-3.14-.89,5,5,0,0,0-2.65.73,5.08,5.08,0,0,0-1.84,2.09,7.15,7.15,0,0,0-.67,3.17,7.08,7.08,0,0,0,.67,3.14,5,5,0,0,0,1.84,2.08,4.87,4.87,0,0,0,2.65.73,5.38,5.38,0,0,0,3.14-.88,5,5,0,0,0,1.87-2.37H233a7.53,7.53,0,0,1-2.73,4.21,8.19,8.19,0,0,1-5.08,1.54,8.09,8.09,0,0,1-4.17-1.07,7.28,7.28,0,0,1-2.8-3,10.25,10.25,0,0,1,0-8.79,7.3,7.3,0,0,1,2.8-3,8,8,0,0,1,4.17-1.08A8.13,8.13,0,0,1,230.27,275.41Zm-2.13,17.18a2,2,0,0,1,.86,1.8,2.09,2.09,0,0,1-.84,1.81,3.47,3.47,0,0,1-2.13.62h-2.7v-1.51h2.4q1.41,0,1.41-1a.8.8,0,0,0-.34-.68,1.74,1.74,0,0,0-1.07-.26h-1.39v-2.9H226v1.58A3.5,3.5,0,0,1,228.14,292.59Z"/><path class="cls-2" d="M252.5,274v16.63h-2.68V274Zm-2.28-4a1.23,1.23,0,0,1,.91-.37,1.33,1.33,0,0,1,1,.37,1.33,1.33,0,0,1,0,1.88,1.34,1.34,0,0,1-1,.38,1.24,1.24,0,0,1-.91-.38,1.26,1.26,0,0,1-.38-.93A1.27,1.27,0,0,1,250.22,270Z"/><path class="cls-2" d="M279.7,274v2.17h-7.14v5.16h5.89v2.07h-5.89v7.23h-2.68V274Z"/><path class="cls-2" d="M306.92,274v2.17h-4.64v14.46h-2.71V276.19H295V274Z"/><path class="cls-2" d="M325.73,288.55h5.74v2.1H323V274h2.69Z"/><path class="cls-2" d="M350.38,274v16.63H347.7V274Zm-2.28-4a1.24,1.24,0,0,1,.92-.37,1.32,1.32,0,0,1,1,.37,1.33,1.33,0,0,1,0,1.88,1.33,1.33,0,0,1-1,.38,1.24,1.24,0,0,1-.92-.38,1.35,1.35,0,0,1,0-1.88Z"/><path class="cls-2" d="M380.31,275.34a6.86,6.86,0,0,1,2.61,4H380.1a4.53,4.53,0,0,0-1.78-2.14,5.73,5.73,0,0,0-5.72-.07,5,5,0,0,0-1.93,2.07,6.7,6.7,0,0,0-.7,3.16,7,7,0,0,0,.71,3.27,4.88,4.88,0,0,0,2,2.08,6,6,0,0,0,3,.72,5.27,5.27,0,0,0,3.55-1.28,5.43,5.43,0,0,0,1.79-3.52h-6.1v-2h8.36v2.57a8,8,0,0,1-1.3,3.33,7.65,7.65,0,0,1-2.71,2.39,8.16,8.16,0,0,1-3.85.89,8.39,8.39,0,0,1-4.29-1.08,7.34,7.34,0,0,1-2.87-3,10.07,10.07,0,0,1,0-8.79,7.36,7.36,0,0,1,2.86-3,8.41,8.41,0,0,1,4.27-1.07A8.14,8.14,0,0,1,380.31,275.34Zm-7.67-3.64a3.54,3.54,0,0,1-.95-2.57v-.24h1.39c0,1.21.72,1.81,2.17,1.81a2.37,2.37,0,0,0,1.62-.47,1.68,1.68,0,0,0,.54-1.34h1.39v.24a3.54,3.54,0,0,1-.95,2.57,4,4,0,0,1-5.21,0Z"/><path class="cls-2" d="M402.77,274v16.63h-2.68V274Zm-2.28-4a1.25,1.25,0,0,1,.92-.37,1.32,1.32,0,0,1,.95.37,1.33,1.33,0,0,1,0,1.88,1.33,1.33,0,0,1-.95.38,1.26,1.26,0,0,1-.92-.38,1.35,1.35,0,0,1,0-1.88Z"/><path class="cls-2" d="M366.59,146.21,368.2,145l-.76-6.82L362,132.55l-5.85-2.28-.25-.26L329,103.18,316.24,116l-13.16,13.16-.2-.17-7.41,2.17-6.34,4.46-2.75,6.06,1.32,2.86-15,15-24.27,24.27,26.82,26.82,11.49-11.49a48.86,48.86,0,0,0,79.83-52.88Z"/><path class="cls-3" d="M365.44,134a32.33,32.33,0,0,0-11-5.43c-1.76-.52-3.57-1-5.39-1.34-.64-.14-1.29-.25-1.93-.35-.9-.14-1.81-.25-2.7-.4-.05.15-.09.3-.13.44l1.59,1.46c1.85,1.69,3.81,3.28,5.52,5.11a21.14,21.14,0,0,1,3.09,4.5c.81,1.55.2,2.6-1.5,3.08a7.93,7.93,0,0,1-2,.29c-2.87,0-5.75.05-8.63,0a6.63,6.63,0,0,1-2.28-.47,33.15,33.15,0,0,0-22.16-.77,28.69,28.69,0,0,1-9.38,1.28c-1.52,0-3,0-4.56-.05a7.61,7.61,0,0,1-2-.33,2,2,0,0,1-1.45-2.91,5.34,5.34,0,0,1,1-1.79q3.09-3.42,6.32-6.72c.91-.94,2-1.74,2.95-2.6a1.63,1.63,0,0,0-1.23-.39c-1.72.42-3.46.82-5.19,1.23-2.08.49-4.16,1-6.21,1.64a23.36,23.36,0,0,0-10.46,6.41,10.64,10.64,0,0,0-2.23,10.85,10.43,10.43,0,0,0,2.11,3.53l.25.28c2.88,3,6.59,4.35,10.5,5.3.58.14,1.15.32,1.74.48-.09.29-.08.42-.15.48-.3.29-.61.57-.92.84a18.24,18.24,0,0,0-5.19,7.56c-.69,1.9-.29,2.46,1.72,2.2s4.11-.67,6.51-1.08c-.68,1.87-1.21,3.56-1.91,5.17-1.53,3.49-6.88,15.48-10,25.28a44.53,44.53,0,0,0,31.17,12.6c.89,0,1.79,0,2.67-.08a30.41,30.41,0,0,1-9-20c-1.32,2.22-1.37,4.7-1.69,7.1l-.42.12c-1-1.24-2.12-2.42-3.06-3.71-2.3-3.18-4.6-6.35-6.76-9.61a7.82,7.82,0,0,1-1.09-6.92,126.78,126.78,0,0,1,4.46-11.92c-1,2.6.46,4.37,1.75,6.2,1.61,2.26,3.16,4.56,4.73,6.84a6.83,6.83,0,0,1,1.66,4.12c0,.69.71,1.46,1.21,2.09,1.11,1.38,2.36,2.65,3.44,4a8.7,8.7,0,0,0,5.59,3.47c1.06.17,1.76.59,1.75,1.79q0,8.1,0,16.19A44.5,44.5,0,0,0,353,196.27a45.43,45.43,0,0,0,6.79-8.68c-1.41-5.22-3.28-10.78-3.77-12.39-.7-2.3-1.52-4.56-2.26-6.85-.18-.55-.29-1.12-.47-1.83,2.28.35,4.28.74,6.29.95,1.68.17,2.05-.32,1.52-1.9a17.89,17.89,0,0,0-5.15-7.76l-1.47-1.33c.85-.23,1.39-.36,1.92-.53,1.94-.61,3.94-1.1,5.81-1.89a17.94,17.94,0,0,0,2.39-1.23,12.16,12.16,0,0,0,3.29-2.91,10.45,10.45,0,0,0,.61-.87C371.75,143.9,370.56,138.06,365.44,134Zm-66.7,26.9c1.9-2.88,6.07-5.34,8.29-4.61Zm3.39-13.67c-3.22-.35-6.4-.9-9.07-2.48a12,12,0,0,1-3.07-2.57,12.54,12.54,0,0,1-1.14-1.56l-.5.15c-.18,1-.36,2.08-.54,3.15a8.55,8.55,0,0,1,2.47-7.86c3.15-3.19,7.19-4.81,11.6-5.77.13,0,.27-.06.4-.09-.7.77-1.45,1.51-2.12,2.31-2,2.38-3.35,5-2.93,8.06a9.48,9.48,0,0,0,.2,1,5.17,5.17,0,0,0,4.43,4.1c-.75-.9-1.48-1.76-2.2-2.61l.23-.31c1.52.18,3,.46,4.55.51,2.5.09,5,0,7.53,0,1.66,0,2,.49,2,2.4.05,1.49-.66,1.94-2,1.89C308.7,147.5,305.38,147.62,302.13,147.26Zm29.45,39.16c-2.66,0-5.33,0-8,0a7.63,7.63,0,0,1-2.11-.75c.06-.21.13-.42.2-.64h12A2,2,0,0,1,331.58,186.42Zm.55-21.72a12.66,12.66,0,0,1,1.15,3.1,27.66,27.66,0,0,1,.76,3.36c.14.81.14,1.64.21,2.46s.15,1.72.23,2.58a25.09,25.09,0,0,0-2.5,3.31,3.42,3.42,0,0,1-2.91,2c-.93.08-1.88.07-2.82.06a3.22,3.22,0,0,1-3.18-2.11,7.21,7.21,0,0,0-1.35-2.09,7,7,0,0,0-1.91-1c.35,3.47,3.53,6,6.81,7.2-2.83,0-5.84,1.08-8.23-1.63a2.3,2.3,0,0,1-.54-2.81,16.37,16.37,0,0,0,1-2.63,9.74,9.74,0,0,0,0-2.11c-1.2,1.66-1.88.87-2.6.12-2-2.12-4-4.25-6.06-6.36a3.43,3.43,0,0,1-.61-4.18c.68-1.51,1.29-3.05,2.06-4.88a6.48,6.48,0,0,1,1.27,1.58,6.45,6.45,0,0,0,4.43,4.08,2.54,2.54,0,0,1,1.53,1.51c.3,1.47.19,3,.4,4.5a12.08,12.08,0,0,0,1.24,3.94c.38-2.34.72-4.69,1.17-7a7.63,7.63,0,0,1,1-2.71c1.49-2.28,1.44-4.62-.57-6.4a14.28,14.28,0,0,1,.23,2.59,9,9,0,0,1-.67,2,7.44,7.44,0,0,1-1.73-.73,23.29,23.29,0,0,0-8.11-4,6.7,6.7,0,0,1-1.61-1,9.11,9.11,0,0,1,1.14-1.5,18.44,18.44,0,0,1,2.11-1.35l2.71-2.93c-.06-.09-.13-.18-.18-.27L313,153l-.43-.42c.24-2.93,3.59-3.55,4.85-5.84-.33-.13-.76-.17-.93-.41a3.92,3.92,0,0,1-.86-1.76c0-.29.77-.77,1.26-.94,2.76-.94,5.53-1.6,8.35-.11,1.42.75,2.35,1.71,2.08,3.46a1.3,1.3,0,0,0,.39,1c.07-.25.24-.54.19-.76-.51-2.09.69-3.1,2.34-3.87,3-1.42,5.94-.57,8.78.61.27.11.35,1,.27,1.51a15.49,15.49,0,0,1-.89,2.34c.67,1.2,4,1.84,4.36,4.77l-.37.5-3.15-1.67a3.07,3.07,0,0,0-.25.26c.93,1,1.85,2,2.78,2.94.78.51,1.62,1,2.35,1.55.37.29.82.83.76,1.19a1.54,1.54,0,0,1-1,1,23.08,23.08,0,0,0-9.3,4.69c-1,.9-1.57-.1-1.69-.95a22.4,22.4,0,0,1,0-3.17C331.15,160,330.89,162.64,332.13,164.7Zm-18.06-4.14s4.43,2.62,5,3.05C315.78,164.54,314.07,160.56,314.07,160.56Zm20.9,45q1.72-4.44,3.46-8.87C337.85,199.85,337.28,203,335,205.55Zm1.2-41.94c.54-.43,5-3.05,5-3.05S339.44,164.54,336.17,163.61Zm8.91,4c-.57-2.59-1.14-5.27-1.72-8l.28,0c.69,1.72,1.44,3.42,2.06,5.17C346.25,166.31,346,166.93,345.08,167.61Zm10.91-6.8-8.19-4.43C349.82,155.55,353.27,157.45,356,160.81Zm11.37-17.26c-.25-1.12-.46-2-.71-3.1-.41.32-.67.42-.78.61a8.6,8.6,0,0,1-1,1.41,10.21,10.21,0,0,1-3.2,2.5,19.81,19.81,0,0,1-2.46,1c-5.46,1.81-11.13,1.63-16.78,1.61-1.26,0-1.32-1-1.3-1.89s-.16-2.11,1.24-2.31a20.26,20.26,0,0,1,2.34-.06l10.73-.3c-.68.85-1.38,1.71-2.3,2.84a5.51,5.51,0,0,0,3.23-1.76,6.67,6.67,0,0,0,1.54-5.48v-.08a11.94,11.94,0,0,0-3.44-6.56,21.45,21.45,0,0,0-1.8-1.48c.13-.18.27-.35.41-.52,1.35.39,2.69.81,4,1.31h0a20.61,20.61,0,0,1,7.75,4.84A8.68,8.68,0,0,1,367.36,143.55Z"/><path class="cls-4" d="M327.6,158.93c.83,2.37,1.63,4.65,2.41,6.94a.92.92,0,0,1,0,.61c-.79,2-1.6,4-2.38,6-.8-2-1.64-4-2.44-6.06a1.41,1.41,0,0,1,.07-.9C326,163.33,326.77,161.2,327.6,158.93Z"/><path class="cls-2" d="M298.74,160.93l8.29-4.61C304.81,155.59,300.64,158.05,298.74,160.93ZM312,143.34c-2.51,0-5,0-7.53,0-1.52-.05-3-.33-4.55-.51l-.23.31c.72.85,1.45,1.71,2.2,2.61a5.17,5.17,0,0,1-4.43-4.1,9.48,9.48,0,0,1-.2-1c-.42-3.1.95-5.68,2.93-8.06.67-.8,1.42-1.54,2.12-2.31-.13,0-.27.05-.4.09-4.41,1-8.45,2.58-11.6,5.77a8.55,8.55,0,0,0-2.47,7.86c.18-1.07.36-2.11.54-3.15l.5-.15a12.54,12.54,0,0,0,1.14,1.56,12,12,0,0,0,3.07,2.57c2.67,1.58,5.85,2.13,9.07,2.48s6.57.24,9.85.37c1.35.05,2.06-.4,2-1.89C313.93,143.83,313.63,143.36,312,143.34Zm-18.34.47a10.86,10.86,0,0,1-2.79-2.34,12.37,12.37,0,0,1-1-1.42l-.44-.7a8.18,8.18,0,0,1,1.72-2.47,18.86,18.86,0,0,1,7.82-4.6c-1.54,1.95-3.29,4.83-2.8,8.47a10.44,10.44,0,0,0,.22,1.14,6.6,6.6,0,0,0,2.39,3.73A16.44,16.44,0,0,1,293.63,143.81Zm19.14,2.59s-.11.1-.59.1H312c-1.13,0-2.26-.06-3.36-.07-1.6,0-3.24,0-4.85-.15l-1.73-2.06c.75.1,1.53.18,2.31.21s1.81,0,3,0H312a3.31,3.31,0,0,1,.74.07h0a3,3,0,0,1,.16,1.23C312.88,146.2,312.8,146.38,312.77,146.4Zm1.3,14.16s1.71,4,5,3.05C318.5,163.18,314.07,160.56,314.07,160.56Zm7.6,24.43c-.07.22-.14.43-.2.64a7.63,7.63,0,0,0,2.11.75c2.67.08,5.34,0,8,0a2,2,0,0,0,2.1-1.43ZM335,205.55c2.31-2.52,2.88-5.7,3.46-8.87Q336.69,201.11,335,205.55Zm1.2-41.94c3.27.93,5-3.05,5-3.05S336.71,163.18,336.17,163.61Zm7.91-7.4c-.73-.58-1.57-1-2.35-1.55-.93-1-1.85-2-2.78-2.94a3.07,3.07,0,0,1,.25-.26l3.15,1.67.37-.5c-.37-2.93-3.69-3.57-4.36-4.77a15.49,15.49,0,0,0,.89-2.34c.08-.5,0-1.4-.27-1.51-2.84-1.18-5.74-2-8.78-.61-1.65.77-2.85,1.78-2.34,3.87.05.22-.12.51-.19.76a1.3,1.3,0,0,1-.39-1c.27-1.75-.66-2.71-2.08-3.46-2.82-1.49-5.59-.83-8.35.11-.49.17-1.27.65-1.26.94a3.92,3.92,0,0,0,.86,1.76c.17.24.6.28.93.41-1.26,2.29-4.61,2.91-4.85,5.84l.43.42,3-1.59c.05.09.12.18.18.27l-2.71,2.93a18.44,18.44,0,0,0-2.11,1.35,9.11,9.11,0,0,0-1.14,1.5,6.7,6.7,0,0,0,1.61,1,23.29,23.29,0,0,1,8.11,4,7.44,7.44,0,0,0,1.73.73,9,9,0,0,0,.67-2,14.28,14.28,0,0,0-.23-2.59c2,1.78,2.06,4.12.57,6.4a7.63,7.63,0,0,0-1,2.71c-.45,2.33-.79,4.68-1.17,7a12.08,12.08,0,0,1-1.24-3.94c-.21-1.49-.1-3-.4-4.5a2.54,2.54,0,0,0-1.53-1.51,6.45,6.45,0,0,1-4.43-4.08,6.48,6.48,0,0,0-1.27-1.58c-.77,1.83-1.38,3.37-2.06,4.88a3.43,3.43,0,0,0,.61,4.18c2,2.11,4,4.24,6.06,6.36.72.75,1.4,1.54,2.6-.12a9.74,9.74,0,0,1,0,2.11,16.37,16.37,0,0,1-1,2.63,2.3,2.3,0,0,0,.54,2.81c2.39,2.71,5.4,1.61,8.23,1.63-3.28-1.18-6.46-3.73-6.81-7.2a7,7,0,0,1,1.91,1,7.21,7.21,0,0,1,1.35,2.09,3.22,3.22,0,0,0,3.18,2.11c.94,0,1.89,0,2.82-.06a3.42,3.42,0,0,0,2.91-2,25.09,25.09,0,0,1,2.5-3.31c-.08-.86-.16-1.72-.23-2.58s-.07-1.65-.21-2.46a27.66,27.66,0,0,0-.76-3.36,12.66,12.66,0,0,0-1.15-3.1c-1.24-2.06-1-4.66.66-5.75a22.4,22.4,0,0,0,0,3.17c.12.85.64,1.85,1.69.95a23.08,23.08,0,0,1,9.3-4.69,1.54,1.54,0,0,0,1-1C344.9,157,344.45,156.5,344.08,156.21ZM318,173.81a2.73,2.73,0,0,1-.4.46,5.28,5.28,0,0,1-.41-.41l-.62-.65c-1.8-1.9-3.65-3.85-5.49-5.76a2.31,2.31,0,0,1-.41-2.93c.46-1,.89-2.05,1.35-3.14a7.57,7.57,0,0,0,5.06,4.53,1.56,1.56,0,0,1,.75.67,14.28,14.28,0,0,1,.23,2.34c0,.68.06,1.37.16,2.08a13.49,13.49,0,0,0,.41,1.93Zm4.55,8.91a4.15,4.15,0,0,1-3.28-1.45c-.61-.7-.62-1-.36-1.58.15-.3.28-.6.4-.89A9.94,9.94,0,0,0,322.51,182.72Zm21-25.43a24.09,24.09,0,0,0-9.56,4.77.3.3,0,0,1,0-.1,12.38,12.38,0,0,1-.05-2c0-.33,0-.65,0-1v-2.1L332.17,158a5.12,5.12,0,0,0-1.6,6l0,.13a7,7,0,0,0,.55,1.14,11.33,11.33,0,0,1,1,2.55l.08.29a28.71,28.71,0,0,1,.73,3.23,14.09,14.09,0,0,1,.14,1.51c0,.28,0,.57.05.86,0,0,.16,1.7.19,2.12-.14.18-.29.35-.44.53A16.19,16.19,0,0,0,331,179a2.34,2.34,0,0,1-2,1.45c-.48,0-1,.06-1.65.06h-1.06a2.12,2.12,0,0,1-2.16-1.42,8.1,8.1,0,0,0-1.59-2.45,3.16,3.16,0,0,0-1-.67l.16-1,.31-2c.26-1.66.53-3.37.85-5a6.57,6.57,0,0,1,.79-2.3c1.86-2.84,1.58-5.78-.76-7.86l-2.16-1.93.29,2.89c0,.34.08.66.12,1a6,6,0,0,1,.11,1.39,2.79,2.79,0,0,1-.2.7,1.48,1.48,0,0,1-.38-.2,24.42,24.42,0,0,0-8.5-4.19,1.34,1.34,0,0,1-.38-.21,2.51,2.51,0,0,1,.32-.37,10.72,10.72,0,0,1,1.34-.88l.65-.38.13-.08.1-.11,2.71-2.94.61-.65-.51-.75-.2-.28-.57-.8-1.68.88a14.92,14.92,0,0,1,1.16-1,8.56,8.56,0,0,0,2.55-2.6l.62-1.11-1.18-.48a2.71,2.71,0,0,0-.43-.14l-.11,0a5.47,5.47,0,0,1-.41-.65,2.31,2.31,0,0,1,.36-.17,14,14,0,0,1,4.41-.93,6.47,6.47,0,0,1,3.06.75c1.42.76,1.62,1.41,1.49,2.29a2.35,2.35,0,0,0,.64,1.93l1.39,1.62.56-2.07a.69.69,0,0,1,.05-.13A1.9,1.9,0,0,0,329,147c-.26-1.06-.07-1.74,1.71-2.58a6.74,6.74,0,0,1,2.86-.63,12.77,12.77,0,0,1,4.61,1.1,2,2,0,0,1,0,.43,5.07,5.07,0,0,1-.42,1.16c-.12.28-.26.6-.4,1l-.2.5.27.46a5,5,0,0,0,1.81,1.58,12.68,12.68,0,0,1,1.2.82l-1.42-.75-.59.62-1,1,.73.77,1.82,1.92,1.05,1.12.11.07c.25.16.49.32.75.47a16.13,16.13,0,0,1,1.52,1,1.54,1.54,0,0,1,.19.17Zm2.17,7.5c-.62-1.75-1.37-3.45-2.06-5.17l-.28,0c.58,2.68,1.15,5.36,1.72,8C346,166.93,346.25,166.31,345.7,164.79Zm2.1-8.41,8.19,4.43C353.27,157.45,349.82,155.55,347.8,156.38Zm17-20.24a20.61,20.61,0,0,0-7.75-4.84h0c-1.31-.5-2.65-.92-4-1.31-.14.17-.28.34-.41.52a21.45,21.45,0,0,1,1.8,1.48,11.94,11.94,0,0,1,3.44,6.56v.08a6.67,6.67,0,0,1-1.54,5.48,5.51,5.51,0,0,1-3.23,1.76c.92-1.13,1.62-2,2.3-2.84l-10.73.3a20.26,20.26,0,0,0-2.34.06c-1.4.2-1.23,1.33-1.24,2.31s0,1.88,1.3,1.89c5.65,0,11.32.2,16.78-1.61a19.81,19.81,0,0,0,2.46-1,10.21,10.21,0,0,0,3.2-2.5,8.6,8.6,0,0,0,1-1.41c.11-.19.37-.29.78-.61.25,1.1.46,2,.71,3.1A8.68,8.68,0,0,0,364.84,136.14Zm-13.48,10.17c-1.87.14-3.72.16-5.52.16h-3.52a2.84,2.84,0,0,1,0-.74v-.32a3.11,3.11,0,0,1,.05-.82.46.46,0,0,1,.21-.06,6.54,6.54,0,0,1,.95-.06h1.27l6.87-.19,1.41,0Zm14.28-6.53a2.1,2.1,0,0,0-.76.73,7.76,7.76,0,0,1-.85,1.24,9.2,9.2,0,0,1-2.85,2.21,17.53,17.53,0,0,1-2.31.95c-.78.26-1.57.48-2.36.66a6.37,6.37,0,0,0,.74-.73,7.83,7.83,0,0,0,1.8-6.37v-.09a12.44,12.44,0,0,0-2.91-6.23l.55.2.16.06a19.16,19.16,0,0,1,7.19,4.52,8,8,0,0,1,1.79,2.73A1.88,1.88,0,0,1,365.64,139.78Zm-.8-3.64a20.61,20.61,0,0,0-7.75-4.84h0c-1.31-.5-2.65-.92-4-1.31-.14.17-.28.34-.41.52a21.45,21.45,0,0,1,1.8,1.48,11.94,11.94,0,0,1,3.44,6.56v.08a6.67,6.67,0,0,1-1.54,5.48,5.51,5.51,0,0,1-3.23,1.76c.92-1.13,1.62-2,2.3-2.84l-10.73.3a20.26,20.26,0,0,0-2.34.06c-1.4.2-1.23,1.33-1.24,2.31s0,1.88,1.3,1.89c5.65,0,11.32.2,16.78-1.61a19.81,19.81,0,0,0,2.46-1,10.21,10.21,0,0,0,3.2-2.5,8.6,8.6,0,0,0,1-1.41c.11-.19.37-.29.78-.61.25,1.1.46,2,.71,3.1A8.68,8.68,0,0,0,364.84,136.14Zm-13.48,10.17c-1.87.14-3.72.16-5.52.16h-3.52a2.84,2.84,0,0,1,0-.74v-.32a3.11,3.11,0,0,1,.05-.82.46.46,0,0,1,.21-.06,6.54,6.54,0,0,1,.95-.06h1.27l6.87-.19,1.41,0Zm14.28-6.53a2.1,2.1,0,0,0-.76.73,7.76,7.76,0,0,1-.85,1.24,9.2,9.2,0,0,1-2.85,2.21,17.53,17.53,0,0,1-2.31.95c-.78.26-1.57.48-2.36.66a6.37,6.37,0,0,0,.74-.73,7.83,7.83,0,0,0,1.8-6.37v-.09a12.44,12.44,0,0,0-2.91-6.23l.55.2.16.06a19.16,19.16,0,0,1,7.19,4.52,8,8,0,0,1,1.79,2.73A1.88,1.88,0,0,1,365.64,139.78Zm-17.84,16.6,8.19,4.43C353.27,157.45,349.82,155.55,347.8,156.38Zm-4.16,3.24-.28,0c.58,2.68,1.15,5.36,1.72,8,.94-.68,1.17-1.3.62-2.82C345.08,163,344.33,161.34,343.64,159.62Zm-10.81,2.5c.12.85.64,1.85,1.69.95a23.08,23.08,0,0,1,9.3-4.69,1.54,1.54,0,0,0,1-1c.06-.36-.39-.9-.76-1.19-.73-.58-1.57-1-2.35-1.55-.93-1-1.85-2-2.78-2.94a3.07,3.07,0,0,1,.25-.26l3.15,1.67.37-.5c-.37-2.93-3.69-3.57-4.36-4.77a15.49,15.49,0,0,0,.89-2.34c.08-.5,0-1.4-.27-1.51-2.84-1.18-5.74-2-8.78-.61-1.65.77-2.85,1.78-2.34,3.87.05.22-.12.51-.19.76a1.3,1.3,0,0,1-.39-1c.27-1.75-.66-2.71-2.08-3.46-2.82-1.49-5.59-.83-8.35.11-.49.17-1.27.65-1.26.94a3.92,3.92,0,0,0,.86,1.76c.17.24.6.28.93.41-1.26,2.29-4.61,2.91-4.85,5.84l.43.42,3-1.59c.05.09.12.18.18.27l-2.71,2.93a18.44,18.44,0,0,0-2.11,1.35,9.11,9.11,0,0,0-1.14,1.5,6.7,6.7,0,0,0,1.61,1,23.29,23.29,0,0,1,8.11,4,7.44,7.44,0,0,0,1.73.73,9,9,0,0,0,.67-2,14.28,14.28,0,0,0-.23-2.59c2,1.78,2.06,4.12.57,6.4a7.63,7.63,0,0,0-1,2.71c-.45,2.33-.79,4.68-1.17,7a12.08,12.08,0,0,1-1.24-3.94c-.21-1.49-.1-3-.4-4.5a2.54,2.54,0,0,0-1.53-1.51,6.45,6.45,0,0,1-4.43-4.08,6.48,6.48,0,0,0-1.27-1.58c-.77,1.83-1.38,3.37-2.06,4.88a3.43,3.43,0,0,0,.61,4.18c2,2.11,4,4.24,6.06,6.36.72.75,1.4,1.54,2.6-.12a9.74,9.74,0,0,1,0,2.11,16.37,16.37,0,0,1-1,2.63,2.3,2.3,0,0,0,.54,2.81c2.39,2.71,5.4,1.61,8.23,1.63-3.28-1.18-6.46-3.73-6.81-7.2a7,7,0,0,1,1.91,1,7.21,7.21,0,0,1,1.35,2.09,3.22,3.22,0,0,0,3.18,2.11c.94,0,1.89,0,2.82-.06a3.42,3.42,0,0,0,2.91-2,25.09,25.09,0,0,1,2.5-3.31c-.08-.86-.16-1.72-.23-2.58s-.07-1.65-.21-2.46a27.66,27.66,0,0,0-.76-3.36,12.66,12.66,0,0,0-1.15-3.1c-1.24-2.06-1-4.66.66-5.75A22.4,22.4,0,0,0,332.83,162.12ZM318,173.81a2.73,2.73,0,0,1-.4.46,5.28,5.28,0,0,1-.41-.41l-.62-.65c-1.8-1.9-3.65-3.85-5.49-5.76a2.31,2.31,0,0,1-.41-2.93c.46-1,.89-2.05,1.35-3.14a7.57,7.57,0,0,0,5.06,4.53,1.56,1.56,0,0,1,.75.67,14.28,14.28,0,0,1,.23,2.34c0,.68.06,1.37.16,2.08a13.49,13.49,0,0,0,.41,1.93Zm4.55,8.91a4.15,4.15,0,0,1-3.28-1.45c-.61-.7-.62-1-.36-1.58.15-.3.28-.6.4-.89A9.94,9.94,0,0,0,322.51,182.72ZM332.17,158a5.12,5.12,0,0,0-1.6,6l0,.13a7,7,0,0,0,.55,1.14,11.33,11.33,0,0,1,1,2.55l.08.29a28.71,28.71,0,0,1,.73,3.23,14.09,14.09,0,0,1,.14,1.51c0,.28,0,.57.05.86,0,0,.16,1.7.19,2.12-.14.18-.29.35-.44.53A16.19,16.19,0,0,0,331,179a2.34,2.34,0,0,1-2,1.45c-.48,0-1,.06-1.65.06h-1.06a2.12,2.12,0,0,1-2.16-1.42,8.1,8.1,0,0,0-1.59-2.45,3.16,3.16,0,0,0-1-.67l.16-1,.31-2c.26-1.66.53-3.37.85-5a6.57,6.57,0,0,1,.79-2.3c1.86-2.84,1.58-5.78-.76-7.86l-2.16-1.93.29,2.89c0,.34.08.66.12,1a6,6,0,0,1,.11,1.39,2.79,2.79,0,0,1-.2.7,1.48,1.48,0,0,1-.38-.2,24.42,24.42,0,0,0-8.5-4.19,1.34,1.34,0,0,1-.38-.21,2.51,2.51,0,0,1,.32-.37,10.72,10.72,0,0,1,1.34-.88l.65-.38.13-.08.1-.11,2.71-2.94.61-.65-.51-.75-.2-.28-.57-.8-1.68.88a14.92,14.92,0,0,1,1.16-1,8.56,8.56,0,0,0,2.55-2.6l.62-1.11-1.18-.48a2.71,2.71,0,0,0-.43-.14l-.11,0a5.47,5.47,0,0,1-.41-.65,2.31,2.31,0,0,1,.36-.17,14,14,0,0,1,4.41-.93,6.47,6.47,0,0,1,3.06.75c1.42.76,1.62,1.41,1.49,2.29a2.35,2.35,0,0,0,.64,1.93l1.39,1.62.56-2.07a.69.69,0,0,1,.05-.13A1.9,1.9,0,0,0,329,147c-.26-1.06-.07-1.74,1.71-2.58a6.74,6.74,0,0,1,2.86-.63,12.77,12.77,0,0,1,4.61,1.1,2,2,0,0,1,0,.43,5.07,5.07,0,0,1-.42,1.16c-.12.28-.26.6-.4,1l-.2.5.27.46a5,5,0,0,0,1.81,1.58,12.68,12.68,0,0,1,1.2.82l-1.42-.75-.59.62-1,1,.73.77,1.82,1.92,1.05,1.12.11.07c.25.16.49.32.75.47a16.13,16.13,0,0,1,1.52,1,1.54,1.54,0,0,1,.19.17l0,0a24.09,24.09,0,0,0-9.56,4.77.3.3,0,0,1,0-.1,12.38,12.38,0,0,1-.05-2c0-.33,0-.65,0-1v-2.1Zm9,2.55s-4.44,2.62-5,3.05C339.44,164.54,341.15,160.56,341.15,160.56Zm-2.72,36.12q-1.74,4.42-3.46,8.87C337.28,203,337.85,199.85,338.43,196.68Zm-17-11.05a7.63,7.63,0,0,0,2.11.75c2.67.08,5.34,0,8,0a2,2,0,0,0,2.1-1.43h-12C321.6,185.21,321.53,185.42,321.47,185.63Zm-2.42-22c-.55-.43-5-3.05-5-3.05S315.78,164.54,319.05,163.61Zm-7.07-16c1.35.05,2.06-.4,2-1.89-.06-1.91-.36-2.38-2-2.4-2.51,0-5,0-7.53,0-1.52-.05-3-.33-4.55-.51l-.23.31c.72.85,1.45,1.71,2.2,2.61a5.17,5.17,0,0,1-4.43-4.1,9.48,9.48,0,0,1-.2-1c-.42-3.1.95-5.68,2.93-8.06.67-.8,1.42-1.54,2.12-2.31-.13,0-.27.05-.4.09-4.41,1-8.45,2.58-11.6,5.77a8.55,8.55,0,0,0-2.47,7.86c.18-1.07.36-2.11.54-3.15l.5-.15a12.54,12.54,0,0,0,1.14,1.56,12,12,0,0,0,3.07,2.57c2.67,1.58,5.85,2.13,9.07,2.48S308.7,147.5,312,147.63Zm-18.35-3.82a10.86,10.86,0,0,1-2.79-2.34,12.37,12.37,0,0,1-1-1.42l-.44-.7a8.18,8.18,0,0,1,1.72-2.47,18.86,18.86,0,0,1,7.82-4.6c-1.54,1.95-3.29,4.83-2.8,8.47a10.44,10.44,0,0,0,.22,1.14,6.6,6.6,0,0,0,2.39,3.73A16.44,16.44,0,0,1,293.63,143.81Zm10.77.62c.88,0,1.81,0,3,0H312a3.31,3.31,0,0,1,.74.07h0a3,3,0,0,1,.16,1.23c0,.43-.06.61-.09.63s-.11.1-.59.1H312c-1.13,0-2.26-.06-3.36-.07-1.6,0-3.24,0-4.85-.15l-1.73-2.06C302.84,144.32,303.62,144.4,304.4,144.43Zm-5.66,16.5,8.29-4.61C304.81,155.59,300.64,158.05,298.74,160.93Zm67.4-27.79a33.15,33.15,0,0,0-11.37-5.62c-1.63-.48-3.42-.93-5.49-1.37-.71-.15-1.4-.26-2-.35l-1.25-.19c-.48-.06-1-.14-1.44-.21l-1-.16-.33,1.11-.09.3-.19.67,1,.94,1.07,1,1.69,1.51c1.28,1.13,2.61,2.3,3.77,3.54a20.2,20.2,0,0,1,2.92,4.25,1.18,1.18,0,0,1,.19.89,1.57,1.57,0,0,1-1,.58,6.62,6.62,0,0,1-1.72.25l-4.86,0c-1.35,0-2.57,0-3.74,0a5.65,5.65,0,0,1-1.9-.39,35.28,35.28,0,0,0-12.61-2.4,34.44,34.44,0,0,0-10.28,1.6,27.58,27.58,0,0,1-8.25,1.24h-.78c-.7,0-1.4,0-2.1,0s-1.63,0-2.44,0a6.8,6.8,0,0,1-1.7-.27,1.35,1.35,0,0,1-.82-.51,1.39,1.39,0,0,1,.09-.95,4.39,4.39,0,0,1,.74-1.41c2.17-2.39,4.22-4.59,6.29-6.69a23.65,23.65,0,0,1,1.94-1.74l.94-.8,1.13-1-1.25-.83a3,3,0,0,0-1.65-.59,2,2,0,0,0-.47.06l-3.11.73-2.07.49c-1.73.4-4,1-6.28,1.66a24.43,24.43,0,0,0-11,6.72,11.77,11.77,0,0,0-2.47,12,11.94,11.94,0,0,0,2.32,3.89l.3.32c3.24,3.38,7.4,4.74,11,5.62h0a19.58,19.58,0,0,0-5.34,7.87,3.2,3.2,0,0,0,0,2.92,2.39,2.39,0,0,0,2,.86,6.59,6.59,0,0,0,.93-.07c1.47-.18,2.92-.44,4.46-.72l.2,0c-.4,1.14-.78,2.23-1.24,3.27l-.38.86c-1.84,4.21-6.74,15.37-9.61,24.53l-.21.67.5.49a45.76,45.76,0,0,0,31.95,12.91c.92,0,1.84,0,2.74-.08l1.36-.09h0l.14,0,.94-.06,0,0,.22,0a45.42,45.42,0,0,0,27.17-13.16,46.17,46.17,0,0,0,7-8.9l.24-.41-.12-.47c-1.07-4-2.41-8.12-3.21-10.61l-.57-1.81c-.43-1.44-.92-2.88-1.4-4.27l-.87-2.6,0-.09.39.06c1.47.25,2.86.48,4.28.63.25,0,.47,0,.68,0h0a2.34,2.34,0,0,0,1.95-.82,2.88,2.88,0,0,0,.07-2.62,19.12,19.12,0,0,0-5.41-8.18c.56-.18,1.12-.34,1.69-.51a39.84,39.84,0,0,0,4.2-1.41,18.2,18.2,0,0,0,2.54-1.31,13.33,13.33,0,0,0,3.59-3.18c.25-.31.47-.64.68-1C373,144,371.71,137.53,366.14,133.14Zm-40.73,69.13v6.92l-.63-.65a29.16,29.16,0,0,1-8.67-19.29l-.21-3.69L314,188.73a13.37,13.37,0,0,0-1.6,5.51c-.6-.69-1.17-1.37-1.69-2.09-2.23-3.08-4.54-6.26-6.73-9.57a6.71,6.71,0,0,1-1-5.94c.89-2.75,1.79-5.3,2.73-7.71a16.62,16.62,0,0,0,1.28,2l.21.3c1.14,1.6,2.26,3.24,3.34,4.83l1.37,2,.1.14a5.55,5.55,0,0,1,1.37,3.31,4.17,4.17,0,0,0,1.26,2.57c.07.09.14.17.2.26.53.65,1.09,1.28,1.63,1.9s1.24,1.4,1.8,2.13a9.91,9.91,0,0,0,6.3,3.88c.8.13.8.28.8.68C325.41,196,325.41,199.15,325.41,202.27Zm43.12-53.22a10.45,10.45,0,0,1-.61.87,12.16,12.16,0,0,1-3.29,2.91,17.94,17.94,0,0,1-2.39,1.23c-1.87.79-3.87,1.28-5.81,1.89-.53.17-1.07.3-1.92.53l1.47,1.33a17.89,17.89,0,0,1,5.15,7.76c.53,1.58.16,2.07-1.52,1.9-2-.21-4-.6-6.29-.95.18.71.29,1.28.47,1.83.74,2.29,1.56,4.55,2.26,6.85.49,1.61,2.36,7.17,3.77,12.39a45.43,45.43,0,0,1-6.79,8.68,44.5,44.5,0,0,1-26.5,12.84q0-8.09,0-16.19c0-1.2-.69-1.62-1.75-1.79a8.7,8.7,0,0,1-5.59-3.47c-1.08-1.39-2.33-2.66-3.44-4-.5-.63-1.22-1.4-1.21-2.09a6.83,6.83,0,0,0-1.66-4.12c-1.57-2.28-3.12-4.58-4.73-6.84-1.29-1.83-2.72-3.6-1.75-6.2A126.78,126.78,0,0,0,302,176.29a7.82,7.82,0,0,0,1.09,6.92c2.16,3.26,4.46,6.43,6.76,9.61.94,1.29,2,2.47,3.06,3.71l.42-.12c.32-2.4.37-4.88,1.69-7.1a30.41,30.41,0,0,0,9,20c-.88.06-1.78.08-2.67.08a44.53,44.53,0,0,1-31.17-12.6c3.08-9.8,8.43-21.79,10-25.28.7-1.61,1.23-3.3,1.91-5.17-2.4.41-4.45.83-6.51,1.08s-2.41-.3-1.72-2.2a18.24,18.24,0,0,1,5.19-7.56c.31-.27.62-.55.92-.84.07-.06.06-.19.15-.48-.59-.16-1.16-.34-1.74-.48-3.91-.95-7.62-2.31-10.5-5.3l-.25-.28a10.43,10.43,0,0,1-2.11-3.53,10.64,10.64,0,0,1,2.23-10.85,23.36,23.36,0,0,1,10.46-6.41c2.05-.63,4.13-1.15,6.21-1.64,1.73-.41,3.47-.81,5.19-1.23a1.63,1.63,0,0,1,1.23.39c-1,.86-2,1.66-2.95,2.6q-3.23,3.3-6.32,6.72a5.34,5.34,0,0,0-1,1.79,2,2,0,0,0,1.45,2.91,7.61,7.61,0,0,0,2,.33c1.52.05,3,0,4.56.05a28.69,28.69,0,0,0,9.38-1.28,33.15,33.15,0,0,1,22.16.77,6.63,6.63,0,0,0,2.28.47c2.88.05,5.76,0,8.63,0a7.93,7.93,0,0,0,2-.29c1.7-.48,2.31-1.53,1.5-3.08a21.14,21.14,0,0,0-3.09-4.5c-1.71-1.83-3.67-3.42-5.52-5.11L344.29,127c0-.14.08-.29.13-.44.89.15,1.8.26,2.7.4.64.1,1.29.21,1.93.35,1.82.38,3.63.82,5.39,1.34a32.33,32.33,0,0,1,11,5.43C370.56,138.06,371.75,143.9,368.53,149.05ZM357.09,131.3h0c-1.31-.5-2.65-.92-4-1.31-.14.17-.28.34-.41.52a21.45,21.45,0,0,1,1.8,1.48,11.94,11.94,0,0,1,3.44,6.56v.08a6.67,6.67,0,0,1-1.54,5.48,5.51,5.51,0,0,1-3.23,1.76c.92-1.13,1.62-2,2.3-2.84l-10.73.3a20.26,20.26,0,0,0-2.34.06c-1.4.2-1.23,1.33-1.24,2.31s0,1.88,1.3,1.89c5.65,0,11.32.2,16.78-1.61a19.81,19.81,0,0,0,2.46-1,10.21,10.21,0,0,0,3.2-2.5,8.6,8.6,0,0,0,1-1.41c.11-.19.37-.29.78-.61.25,1.1.46,2,.71,3.1a8.68,8.68,0,0,0-2.52-7.41A20.61,20.61,0,0,0,357.09,131.3Zm-5.73,15c-1.87.14-3.72.16-5.52.16h-3.52a2.84,2.84,0,0,1,0-.74v-.32a3.11,3.11,0,0,1,.05-.82.46.46,0,0,1,.21-.06,6.54,6.54,0,0,1,.95-.06h1.27l6.87-.19,1.41,0Zm14.28-6.53a2.1,2.1,0,0,0-.76.73,7.76,7.76,0,0,1-.85,1.24,9.2,9.2,0,0,1-2.85,2.21,17.53,17.53,0,0,1-2.31.95c-.78.26-1.57.48-2.36.66a6.37,6.37,0,0,0,.74-.73,7.83,7.83,0,0,0,1.8-6.37v-.09a12.44,12.44,0,0,0-2.91-6.23l.55.2.16.06a19.16,19.16,0,0,1,7.19,4.52,8,8,0,0,1,1.79,2.73A1.88,1.88,0,0,1,365.64,139.78Zm-17.84,16.6,8.19,4.43C353.27,157.45,349.82,155.55,347.8,156.38Zm-4.16,3.24-.28,0c.58,2.68,1.15,5.36,1.72,8,.94-.68,1.17-1.3.62-2.82C345.08,163,344.33,161.34,343.64,159.62Zm-10.81,2.5c.12.85.64,1.85,1.69.95a23.08,23.08,0,0,1,9.3-4.69,1.54,1.54,0,0,0,1-1c.06-.36-.39-.9-.76-1.19-.73-.58-1.57-1-2.35-1.55-.93-1-1.85-2-2.78-2.94a3.07,3.07,0,0,1,.25-.26l3.15,1.67.37-.5c-.37-2.93-3.69-3.57-4.36-4.77a15.49,15.49,0,0,0,.89-2.34c.08-.5,0-1.4-.27-1.51-2.84-1.18-5.74-2-8.78-.61-1.65.77-2.85,1.78-2.34,3.87.05.22-.12.51-.19.76a1.3,1.3,0,0,1-.39-1c.27-1.75-.66-2.71-2.08-3.46-2.82-1.49-5.59-.83-8.35.11-.49.17-1.27.65-1.26.94a3.92,3.92,0,0,0,.86,1.76c.17.24.6.28.93.41-1.26,2.29-4.61,2.91-4.85,5.84l.43.42,3-1.59c.05.09.12.18.18.27l-2.71,2.93a18.44,18.44,0,0,0-2.11,1.35,9.11,9.11,0,0,0-1.14,1.5,6.7,6.7,0,0,0,1.61,1,23.29,23.29,0,0,1,8.11,4,7.44,7.44,0,0,0,1.73.73,9,9,0,0,0,.67-2,14.28,14.28,0,0,0-.23-2.59c2,1.78,2.06,4.12.57,6.4a7.63,7.63,0,0,0-1,2.71c-.45,2.33-.79,4.68-1.17,7a12.08,12.08,0,0,1-1.24-3.94c-.21-1.49-.1-3-.4-4.5a2.54,2.54,0,0,0-1.53-1.51,6.45,6.45,0,0,1-4.43-4.08,6.48,6.48,0,0,0-1.27-1.58c-.77,1.83-1.38,3.37-2.06,4.88a3.43,3.43,0,0,0,.61,4.18c2,2.11,4,4.24,6.06,6.36.72.75,1.4,1.54,2.6-.12a9.74,9.74,0,0,1,0,2.11,16.37,16.37,0,0,1-1,2.63,2.3,2.3,0,0,0,.54,2.81c2.39,2.71,5.4,1.61,8.23,1.63-3.28-1.18-6.46-3.73-6.81-7.2a7,7,0,0,1,1.91,1,7.21,7.21,0,0,1,1.35,2.09,3.22,3.22,0,0,0,3.18,2.11c.94,0,1.89,0,2.82-.06a3.42,3.42,0,0,0,2.91-2,25.09,25.09,0,0,1,2.5-3.31c-.08-.86-.16-1.72-.23-2.58s-.07-1.65-.21-2.46a27.66,27.66,0,0,0-.76-3.36,12.66,12.66,0,0,0-1.15-3.1c-1.24-2.06-1-4.66.66-5.75A22.4,22.4,0,0,0,332.83,162.12ZM318,173.81a2.73,2.73,0,0,1-.4.46,5.28,5.28,0,0,1-.41-.41l-.62-.65c-1.8-1.9-3.65-3.85-5.49-5.76a2.31,2.31,0,0,1-.41-2.93c.46-1,.89-2.05,1.35-3.14a7.57,7.57,0,0,0,5.06,4.53,1.56,1.56,0,0,1,.75.67,14.28,14.28,0,0,1,.23,2.34c0,.68.06,1.37.16,2.08a13.49,13.49,0,0,0,.41,1.93Zm4.55,8.91a4.15,4.15,0,0,1-3.28-1.45c-.61-.7-.62-1-.36-1.58.15-.3.28-.6.4-.89A9.94,9.94,0,0,0,322.51,182.72ZM332.17,158a5.12,5.12,0,0,0-1.6,6l0,.13a7,7,0,0,0,.55,1.14,11.33,11.33,0,0,1,1,2.55l.08.29a28.71,28.71,0,0,1,.73,3.23,14.09,14.09,0,0,1,.14,1.51c0,.28,0,.57.05.86,0,0,.16,1.7.19,2.12-.14.18-.29.35-.44.53A16.19,16.19,0,0,0,331,179a2.34,2.34,0,0,1-2,1.45c-.48,0-1,.06-1.65.06h-1.06a2.12,2.12,0,0,1-2.16-1.42,8.1,8.1,0,0,0-1.59-2.45,3.16,3.16,0,0,0-1-.67l.16-1,.31-2c.26-1.66.53-3.37.85-5a6.57,6.57,0,0,1,.79-2.3c1.86-2.84,1.58-5.78-.76-7.86l-2.16-1.93.29,2.89c0,.34.08.66.12,1a6,6,0,0,1,.11,1.39,2.79,2.79,0,0,1-.2.7,1.48,1.48,0,0,1-.38-.2,24.42,24.42,0,0,0-8.5-4.19,1.34,1.34,0,0,1-.38-.21,2.51,2.51,0,0,1,.32-.37,10.72,10.72,0,0,1,1.34-.88l.65-.38.13-.08.1-.11,2.71-2.94.61-.65-.51-.75-.2-.28-.57-.8-1.68.88a14.92,14.92,0,0,1,1.16-1,8.56,8.56,0,0,0,2.55-2.6l.62-1.11-1.18-.48a2.71,2.71,0,0,0-.43-.14l-.11,0a5.47,5.47,0,0,1-.41-.65,2.31,2.31,0,0,1,.36-.17,14,14,0,0,1,4.41-.93,6.47,6.47,0,0,1,3.06.75c1.42.76,1.62,1.41,1.49,2.29a2.35,2.35,0,0,0,.64,1.93l1.39,1.62.56-2.07a.69.69,0,0,1,.05-.13A1.9,1.9,0,0,0,329,147c-.26-1.06-.07-1.74,1.71-2.58a6.74,6.74,0,0,1,2.86-.63,12.77,12.77,0,0,1,4.61,1.1,2,2,0,0,1,0,.43,5.07,5.07,0,0,1-.42,1.16c-.12.28-.26.6-.4,1l-.2.5.27.46a5,5,0,0,0,1.81,1.58,12.68,12.68,0,0,1,1.2.82l-1.42-.75-.59.62-1,1,.73.77,1.82,1.92,1.05,1.12.11.07c.25.16.49.32.75.47a16.13,16.13,0,0,1,1.52,1,1.54,1.54,0,0,1,.19.17l0,0a24.09,24.09,0,0,0-9.56,4.77.3.3,0,0,1,0-.1,12.38,12.38,0,0,1-.05-2c0-.33,0-.65,0-1v-2.1Zm9,2.55s-4.44,2.62-5,3.05C339.44,164.54,341.15,160.56,341.15,160.56Zm-2.72,36.12q-1.74,4.42-3.46,8.87C337.28,203,337.85,199.85,338.43,196.68Zm-17-11.05a7.63,7.63,0,0,0,2.11.75c2.67.08,5.34,0,8,0a2,2,0,0,0,2.1-1.43h-12C321.6,185.21,321.53,185.42,321.47,185.63Zm-2.42-22c-.55-.43-5-3.05-5-3.05S315.78,164.54,319.05,163.61ZM314,145.74c-.06-1.91-.36-2.38-2-2.4-2.51,0-5,0-7.53,0-1.52-.05-3-.33-4.55-.51l-.23.31c.72.85,1.45,1.71,2.2,2.61a5.17,5.17,0,0,1-4.43-4.1,9.48,9.48,0,0,1-.2-1c-.42-3.1.95-5.68,2.93-8.06.67-.8,1.42-1.54,2.12-2.31-.13,0-.27.05-.4.09-4.41,1-8.45,2.58-11.6,5.77a8.55,8.55,0,0,0-2.47,7.86c.18-1.07.36-2.11.54-3.15l.5-.15a12.54,12.54,0,0,0,1.14,1.56,12,12,0,0,0,3.07,2.57c2.67,1.58,5.85,2.13,9.07,2.48s6.57.24,9.85.37C313.33,147.68,314,147.23,314,145.74Zm-20.36-1.93a10.86,10.86,0,0,1-2.79-2.34,12.37,12.37,0,0,1-1-1.42l-.44-.7a8.18,8.18,0,0,1,1.72-2.47,18.86,18.86,0,0,1,7.82-4.6c-1.54,1.95-3.29,4.83-2.8,8.47a10.44,10.44,0,0,0,.22,1.14,6.6,6.6,0,0,0,2.39,3.73A16.44,16.44,0,0,1,293.63,143.81Zm10.19,2.47-1.73-2.06c.75.1,1.53.18,2.31.21s1.81,0,3,0H312a3.31,3.31,0,0,1,.74.07h0a3,3,0,0,1,.16,1.23c0,.43-.06.61-.09.63s-.11.1-.59.1H312c-1.13,0-2.26-.06-3.36-.07C307.07,146.41,305.43,146.39,303.82,146.28Zm-5.08,14.65,8.29-4.61C304.81,155.59,300.64,158.05,298.74,160.93Z"/><path class="cls-2" d="M326,171.47c-.62-1.53-1.26-3.1-1.87-4.68a2.48,2.48,0,0,1,.05-1.69c.58-1.64,1.18-3.28,1.8-5l1.66-4.55,1.56,4.47c.65,1.85,1.28,3.65,1.9,5.46a2,2,0,0,1-.05,1.39q-.94,2.38-1.89,4.73l-1.53,3.84Z"/><path class="cls-2" d="M327.6,158.93c.83,2.37,1.63,4.65,2.41,6.94a.92.92,0,0,1,0,.61c-.79,2-1.6,4-2.38,6-.8-2-1.64-4-2.44-6.06a1.41,1.41,0,0,1,.07-.9C326,163.33,326.77,161.2,327.6,158.93Z"/></svg>