<svg id="Layer_1" data-name="Layer 1" xmlns="http://www.w3.org/2000/svg" viewBox="0 0 620 400"><defs><style>.cls-1{fill:#fff;}.cls-2{fill:#1e1e1e;}</style></defs><rect class="cls-1" x="-3.17" y="-2.09" width="628.38" height="407.26"/><path class="cls-2" d="M362.75,131.31q-.54,4.23-1.41,8.39c-.1.51-.22,1-.33,1.54q-2.2-1.35-4.47-2.58h0c-1.38-.75-2.78-1.47-4.19-2.14l-1.37-.65h0q-3.69-1.71-7.52-3.1c-2.95-1.07-6-2-9-2.78l-.1,0q-4.56-1.17-9.26-1.89c-.44-.07-.88-.14-1.32-.19q-4-.57-8.08-.8l-1.79-.08c-1.29-.06-2.59-.08-3.89-.08s-2.6,0-3.89.08l-1.79.08q-4.08.22-8.08.8c-.44,0-.88.12-1.32.19q-4.69.72-9.26,1.89l-.09,0c-3.06.78-6.06,1.71-9,2.78q-3.82,1.39-7.52,3.1l-1.38.65c0,.07,0,.14,0,.21q.93,4.65,2.29,9.17a2.25,2.25,0,0,0,.08.24c.9,3,1.94,5.88,3.12,8.73,0,.07.05.13.08.19q1.77,4.27,3.95,8.36l.1.18q2.18,4.08,4.75,7.94l.15.22q2.58,3.86,5.55,7.49l.17.21q3,3.71,6.49,7.15a.1.1,0,0,0,0,0h0a98.07,98.07,0,0,0,7.36,6.66l.68.55q3.63,2.93,7.49,5.46,3.47,2.28,7.09,4.24c.63.35,1.27.69,1.91,1a104.78,104.78,0,0,1-9,5.84,104.78,104.78,0,0,1-9-5.84l-.23-.16c-2.73-2-5.39-4.11-7.95-6.37h0c-1.71-1.51-3.39-3.08-5-4.72-.65-.64-1.28-1.29-1.91-2q-.22-.23-.42-.45-3.06-3.26-5.82-6.7l-.74-.94c-1.7-2.18-3.3-4.42-4.82-6.7-.31-.46-.61-.93-.91-1.39q-2.12-3.3-4-6.74c-.31-.58-.62-1.16-.92-1.74q-1.75-3.39-3.26-6.88c-.27-.63-.53-1.27-.79-1.9-1-2.36-1.84-4.75-2.62-7.18-.2-.61-.4-1.23-.59-1.85q-1.15-3.79-2-7.67c-.12-.51-.23-1-.34-1.54q-.87-4.15-1.41-8.39c.84-.48,1.69-.95,2.55-1.4,1.46-.78,2.95-1.52,4.45-2.23.66-.32,1.33-.62,2-.92q4.51-2,9.18-3.6c.92-.31,1.84-.61,2.76-.89q3.24-1,6.56-1.8c1.1-.27,2.2-.51,3.31-.74q3-.63,6.08-1.08c1.14-.17,2.29-.32,3.43-.45q3-.35,6-.52c1.15-.07,2.29-.12,3.45-.15,1,0,2,0,3,0s2,0,3,0,2.3.08,3.44.15q3,.18,6,.52c1.15.13,2.29.28,3.43.45q3.06.45,6.08,1.08c1.11.23,2.22.47,3.31.74q3.32.8,6.57,1.8c.92.28,1.83.58,2.75.89,3.11,1.06,6.18,2.26,9.18,3.6.67.3,1.33.6,2,.92,1.5.71,3,1.45,4.45,2.23h0C361.06,130.36,361.91,130.83,362.75,131.31Z"/><path class="cls-2" d="M352.65,147.29h0c-.86-.48-1.74-.95-2.62-1.39-1.19-.61-2.39-1.18-3.6-1.73h0q-2.51-1.14-5.1-2.12a87.16,87.16,0,0,0-9-2.86c-1.42-.36-2.84-.7-4.28-1-1.66-.35-3.32-.64-5-.89q-3.12-.45-6.3-.69c-1.1-.08-2.21-.15-3.32-.19s-2.27-.06-3.41-.06-2.28,0-3.41.06-2.22.11-3.32.19q-3.18.24-6.3.69c-1.67.25-3.34.54-5,.89-1.44.29-2.86.62-4.28,1a88.12,88.12,0,0,0-9,2.86q1.2,4.13,2.77,8.1l.33.82q1.67,4.07,3.72,7.94c.12.21.23.42.34.63q2.09,3.84,4.56,7.48c.16.25.34.5.51.74q2.43,3.5,5.2,6.78l1.06,1.22q1.9,2.16,4,4.23c.5.5,1,1,1.52,1.48.85.81,1.7,1.59,2.57,2.36q2.34,2.05,4.78,3.93a86,86,0,0,0,8.18,5.57c.92.56,1.85,1.1,2.8,1.62h0q3,1.68,6.2,3.11h0q2.58-2.27,5-4.72c.65-.64,1.29-1.29,1.91-2l.43-.45q3.06-3.26,5.81-6.7c.25-.32.5-.63.74-.95q2.55-3.27,4.82-6.69l.91-1.39c1.41-2.2,2.74-4.45,4-6.74.32-.58.62-1.16.92-1.74q1.75-3.39,3.26-6.88c.27-.63.53-1.27.79-1.9,1-2.36,1.84-4.76,2.63-7.18Q355.58,148.92,352.65,147.29Zm-5.91,7.77q-1.77,4.27-3.95,8.36l-.1.19q-2.18,4.06-4.75,7.93l-.14.22q-2.6,3.86-5.55,7.49l-.17.21q-3.06,3.71-6.49,7.16l0,0h0l-.5-.27h0a76.71,76.71,0,0,1-7.67-4.92,80.69,80.69,0,0,1-7.35-6l-1.36-1.29h0c-.28-.28-.56-.55-.83-.83q-2.28-2.26-4.34-4.7c-.91-1.06-1.78-2.14-2.63-3.24-1.08-1.41-2.11-2.86-3.09-4.33s-1.79-2.79-2.61-4.21-1.56-2.81-2.27-4.24-1.41-3-2-4.45q3.39-.85,6.87-1.39c.89-.14,1.78-.26,2.67-.37a79.25,79.25,0,0,1,9-.57h1.24a79.28,79.28,0,0,1,9,.57c.89.11,1.78.23,2.66.37q3.48.54,6.87,1.39a78.45,78.45,0,0,1,9.05,2.83c1.26.48,2.5,1,3.74,1.54h0q2.48,1.1,4.86,2.37A1.42,1.42,0,0,1,346.74,155.06Z"/><path class="cls-2" d="M246.73,251.9l-4.25-6.08h-1.77v6.08H235V231.73h9.66c4.52,0,7.72,2.91,7.72,7.05a6.71,6.71,0,0,1-4,6.28l4.81,6.84Zm-6-11.25h3.5c1.35,0,2.32-.79,2.32-1.87s-1-1.88-2.32-1.88h-3.5Z"/><path class="cls-2" d="M261.17,236.81v2.26h9.6v5.08h-9.6v2.67h10.54v5.08H255.48V231.73h16.23v5.08Z"/><path class="cls-2" d="M274.7,231.73h5.7V251.9h-5.7Zm.3-4.26a2.52,2.52,0,0,1,2.55-2.52,2.54,2.54,0,0,1,0,5.08A2.52,2.52,0,0,1,275,227.47Z"/><path class="cls-2" d="M282.48,248.85l3.17-3.79a10.69,10.69,0,0,0,6.67,2.46c1.55,0,2.37-.52,2.37-1.4s-.7-1.12-3.49-1.77c-4.37-1-7.75-2.14-7.75-6.34,0-4,3.17-6.63,8-6.63a12.93,12.93,0,0,1,8.45,2.73l-2.85,4a10.09,10.09,0,0,0-5.75-2c-1.38,0-2.05.56-2.05,1.32,0,1,.7,1.36,3.58,2,4.69,1,7.63,2.26,7.63,6.11,0,4.25-3.26,6.75-8.31,6.75A14.42,14.42,0,0,1,282.48,248.85Z"/><path class="cls-2" d="M302.21,241.8c0-5.67,5-10.42,11-10.42s11,4.75,11,10.42-5,10.45-11,10.45S302.21,247.47,302.21,241.8Zm16.08,0a5.11,5.11,0,1,0-5.1,5.28A5.26,5.26,0,0,0,318.29,241.8Z"/><path class="cls-2" d="M336.14,240.1h9.45v8.57a11.4,11.4,0,0,1-8.33,3.58c-6.05,0-11.13-4.78-11.13-10.45s5.08-10.42,11.13-10.42a11.49,11.49,0,0,1,8.33,3.55l-4.19,3.67a5.26,5.26,0,0,0-4.14-2.06,5.27,5.27,0,1,0,2.81,9.72v-2h-3.93ZM337.26,230a7.13,7.13,0,0,1-5-2.09l2.17-2.17a3.84,3.84,0,0,0,5.69,0l2.18,2.17A7.1,7.1,0,0,1,337.26,230Z"/><path class="cls-2" d="M363.73,246.82v5.08H348.64V231.73h5.7v15.09Z"/><path class="cls-2" d="M366,242.94V231.73h5.7v10.92c0,2.58,1.61,4.43,3.9,4.43s3.91-1.85,3.91-4.43V231.73h5.69v11.21c0,5.47-4,9.31-9.6,9.31S366,248.41,366,242.94Z"/><path class="cls-2" d="M254.19,269.66a7.3,7.3,0,1,1,7.3,7.39A7.44,7.44,0,0,1,254.19,269.66Zm12.95,0a5.66,5.66,0,1,0-5.65,5.9A5.84,5.84,0,0,0,267.14,269.66Z"/><path class="cls-2" d="M275.58,264.08h-4.79v-1.54H282v1.54h-4.8V276.8h-1.62Z"/><path class="cls-2" d="M283.12,269.66a7.3,7.3,0,1,1,7.3,7.39A7.44,7.44,0,0,1,283.12,269.66Zm12.95,0a5.66,5.66,0,1,0-5.65,5.9A5.84,5.84,0,0,0,296.07,269.66Z"/><path class="cls-2" d="M300.74,262.54h1.61l5.3,9.94,5.29-9.94h1.62V276.8h-1.62V266L307.65,276l-5.3-9.94V276.8h-1.61Z"/><path class="cls-2" d="M317.58,269.66a7.3,7.3,0,1,1,7.31,7.39A7.45,7.45,0,0,1,317.58,269.66Zm12.95,0a5.66,5.66,0,1,0-5.64,5.9A5.83,5.83,0,0,0,330.53,269.66Z"/><path class="cls-2" d="M339,264.08h-4.79v-1.54h11.2v1.54H340.6V276.8H339Z"/><path class="cls-2" d="M347.82,259.93a1,1,0,0,1,.95-1,1,1,0,0,1,1,1,1,1,0,0,1-1,.95A.94.94,0,0,1,347.82,259.93Zm.14,2.61h1.62V276.8H348Z"/><path class="cls-2" d="M366.23,262.54l-6.29,14.26h-1.77l-6.28-14.26h1.76l5.42,12.27,5.39-12.27Z"/></svg>