<svg id="Layer_1" data-name="Layer 1" xmlns="http://www.w3.org/2000/svg" viewBox="0 0 620 400"><defs><style>.cls-1{fill:#141414;}.cls-2{fill:#fdfbea;}.cls-3{fill:#fbf8cf;}.cls-4{fill:#ffd44b;}</style></defs><rect class="cls-1" x="-3.17" y="-2.09" width="628.38" height="407.26"/><path class="cls-2" d="M293.19,131.15q.62-.26,1.26-.48l-.06,2.66-.4.11a30.64,30.64,0,0,0-6.4,2.6,40,40,0,0,0-4.74,3.08c-1.29,1-2.3,1.79-3,2.36l-1.06.88.92-1c.6-.67,1.48-1.63,2.63-2.79a39.12,39.12,0,0,1,4.42-3.79A31.15,31.15,0,0,1,293.19,131.15Z"/><path class="cls-2" d="M343,135.79s0,.11-.14.27-.12.22-.19.35l-.32.45a9.62,9.62,0,0,1-3,2.5,14,14,0,0,1-2.73,1.17,15.15,15.15,0,0,1-3.64.66,17.43,17.43,0,0,1-2.16,0,15.54,15.54,0,0,1-2.29-.36,24.43,24.43,0,0,1-4.7-1.61l-1.45-.68-.25-.12-.32-.14-1.37-.64c-1.14-.53-2.32-1.05-3.53-1.56a55.31,55.31,0,0,0-7.54-2.58,35.63,35.63,0,0,0-3.94-.78c-.66-.1-1.31-.15-2-.21-.33,0-.66,0-1-.05s-.66,0-1,0-.82,0-1.23,0l-1.16-3c.73-.13,1.47-.23,2.22-.29a10.17,10.17,0,0,1,1.1-.08c.37,0,.74-.06,1.11-.06.75,0,1.49,0,2.23,0a34.6,34.6,0,0,1,4.45.48,49.07,49.07,0,0,1,8.38,2.26c1.31.48,2.58,1,3.79,1.5.61.25,1.2.52,1.78.78l1.65.75a40.86,40.86,0,0,0,3.91,1.57c.6.19,1.18.35,1.73.48a16.18,16.18,0,0,0,1.62.28,21,21,0,0,0,5.46,0,14.94,14.94,0,0,0,3.33-.82l.48-.18.35-.16Z"/><path class="cls-3" d="M300.31,132.43a27.52,27.52,0,0,0-2.88.27l.07-2.95c.54-.13,1.09-.25,1.65-.35Z"/><path class="cls-2" d="M296.27,139.29l1.19,3a26.82,26.82,0,0,0-4-.32,25.86,25.86,0,0,0-6,.76,29.85,29.85,0,0,0-4.68,1.6c-1.29.56-2.29,1.11-3,1.49l-1,.6c.07-.07.39-.34.92-.77a31.29,31.29,0,0,1,2.73-2,28.07,28.07,0,0,1,4.56-2.38,25.4,25.4,0,0,1,6.28-1.72A25,25,0,0,1,296.27,139.29Z"/><path class="cls-2" d="M315.89,144.09l-2.11,4.17-.49-.24c-2.1-1-4.27-2.08-6.49-3-.66-.27-1.32-.54-2-.78-1.15-.43-2.31-.82-3.46-1.14l-.59-.17-1.43-3.56.62.06.69.07c.84.1,1.68.23,2.51.39a47.09,47.09,0,0,1,5,1.29c2.45.76,4.81,1.68,7,2.62Z"/><path class="cls-2" d="M300.45,149.71l1.94,4.83a44.92,44.92,0,0,0-9.83-4.12,26.08,26.08,0,0,0-5.36-.78,24.76,24.76,0,0,0-4.41.24c-1.25.18-2.25.4-2.93.56l-1.06.27s.38-.19,1-.46a30.16,30.16,0,0,1,2.83-1.11,24.29,24.29,0,0,1,4.5-1A25.73,25.73,0,0,1,293,148a33.37,33.37,0,0,1,6.46,1.35Z"/><path class="cls-3" d="M310.86,154l-1.32,2.62-.73,1.46c-.64-.35-1.28-.7-1.91-1.06l-.3-.17-.31-.17L304,151l.43.17,1.41.59c.75.32,1.48.65,2.21,1l.86.39Z"/><path class="cls-4" d="M321.23,174.31a6.41,6.41,0,0,0-2.07.51l.93,2.6a4.4,4.4,0,0,1,1-.22c3-.34,5.13,2.68,4.88,6.65s-2.7,7.82-5.71,8.8c-3.3,1.07-6-1.69-5.83-6.29a11.11,11.11,0,0,1,3.52-7.67l-1-2.54a15.05,15.05,0,0,0-5.1,10.77c-.27,6.45,3.67,10.12,8.23,8.48,4-1.47,7.28-6.72,7.6-11.93S325.32,174,321.23,174.31Z"/><polygon class="cls-4" points="317.47 177.45 317.47 177.45 315.31 179.14 314.95 178.26 311.04 168.52 310.56 167.33 309.06 163.61 306.29 156.71 304 151.01 300.76 142.94 299.33 139.38 297.39 134.56 297.43 132.83 297.43 132.7 297.5 129.75 297.59 125.42 297.64 125.42 299.15 129.41 300.31 132.43 303.15 139.89 304.81 144.24 308.05 152.75 309.54 156.65 310.84 160.07 312.27 163.82 312.27 163.83 316.97 176.15 317.47 177.45"/><path class="cls-4" d="M277.93,194.32c0,9.07,8.21,13.34,16.76,10.25,7.27-2.62,12.63-9.92,12.87-16.71a11,11,0,0,0-5.5-10.38l-1.72,3.41a8,8,0,0,1,4.19,7.63c-.16,5.16-4.31,10.61-9.77,12.38-6.15,2-11.75-1.31-11.73-7.69s5.82-12.5,12.14-13.19a9.47,9.47,0,0,1,1.76,0l1.9-3.67a14,14,0,0,0-3.59-.22C286.37,176.7,277.89,185,277.93,194.32Z"/><path class="cls-2" d="M336.46,145.47a1.78,1.78,0,0,1-.11.25,5.08,5.08,0,0,1-.41.73,9.49,9.49,0,0,1-2.4,2.44c-.32.24-.66.44-1,.67a11.8,11.8,0,0,1-1.23.64,14.74,14.74,0,0,1-3.09,1,15,15,0,0,1-3.91.33,18,18,0,0,1-4.43-.76c-.33-.1-.66-.2-1-.32-.78-.27-1.57-.58-2.34-.91a2.39,2.39,0,0,0-.28-.13l2.16-4.28c.9.36,1.79.68,2.61.93l.23.07a26.82,26.82,0,0,0,3.47.79,21.66,21.66,0,0,0,3,.23,23.48,23.48,0,0,0,2.63-.14c.41,0,.79-.11,1.15-.14s.72-.12,1-.2a18,18,0,0,0,2.93-.81c.34-.12.57-.23.75-.3Z"/><path class="cls-2" d="M330.46,155.84a1.11,1.11,0,0,1-.09.23,4.91,4.91,0,0,1-.31.69,8.66,8.66,0,0,1-1.91,2.44,10.12,10.12,0,0,1-2,1.41,11.22,11.22,0,0,1-2.87,1,12.87,12.87,0,0,1-3.62.25c-.32,0-.66,0-1-.1s-.66-.11-1-.18c-.66-.14-1.3-.31-2-.51s-1.19-.4-1.81-.63c-.92-.35-1.85-.75-2.71-1.15l2.14-4.24c.89.36,1.83.73,2.71,1,.38.14.75.27,1.1.37.57.18,1.13.34,1.64.48l.74.19c.24.07.48.09.71.14a15.81,15.81,0,0,0,2.59.31,17.35,17.35,0,0,0,2.23-.12,17,17,0,0,0,1.87-.39,23.71,23.71,0,0,0,2.61-.89l.68-.28Z"/><path class="cls-4" d="M311.21,159.34c.86.4,1.79.8,2.71,1.15l-1.64,3.33h0l-1.71,3.47v0l-5.95,12.13-.54,1.1-2.88-1.37.87-1.71,7-13.87.06-.12h0l1.72-3.42Z"/><path class="cls-4" d="M318.84,150.46l-2.78,5.66c-.88-.29-1.82-.66-2.71-1l2.87-5.68a2.39,2.39,0,0,1,.28.13C317.27,149.88,318.06,150.19,318.84,150.46Z"/><path class="cls-4" d="M322.43,138.52l-.28,5.19L321,146.07c-.82-.25-1.71-.57-2.61-.93l3.48-6.88.32.14Z"/><path class="cls-2" d="M208.85,219.4a9.55,9.55,0,0,1-1.28,4.84,13.58,13.58,0,0,1-3.32,3.89,16.18,16.18,0,0,1-4.54,2.58,13.16,13.16,0,0,1-4.94.87h-.51V231a13.23,13.23,0,0,0,3.94-1.53,12.9,12.9,0,0,0,3.23-2.68,12.64,12.64,0,0,0,2.19-3.54,10.87,10.87,0,0,0,.8-4.12,9.82,9.82,0,0,0-.35-2.69,6.09,6.09,0,0,0-1.07-2.18,5.25,5.25,0,0,0-1.85-1.46,6.28,6.28,0,0,0-2.68-.53,16.11,16.11,0,0,0-4.49.66,20.42,20.42,0,0,0-4.4,1.87,22.9,22.9,0,0,0-4,2.85,21.09,21.09,0,0,0-3.23,3.6,17.5,17.5,0,0,0-2.17,4.18,13.59,13.59,0,0,0-.79,4.53,11.35,11.35,0,0,0,.72,4.25,10,10,0,0,0,1.93,3.13,11.74,11.74,0,0,0,2.83,2.3,27.73,27.73,0,0,0,3.45,1.72q1.83.78,3.75,1.44c1.27.45,2.52.92,3.75,1.43a29.07,29.07,0,0,1,3.45,1.69,12.65,12.65,0,0,1,2.83,2.21,9.8,9.8,0,0,1,1.93,3,11.05,11.05,0,0,1,.71,4.13,9.77,9.77,0,0,1-1.06,4.62,10.43,10.43,0,0,1-2.8,3.4,12.26,12.26,0,0,1-4,2.09,15,15,0,0,1-4.62.71,12.65,12.65,0,0,1-4.74-.87,14.12,14.12,0,0,1-3.93-2.34,16.9,16.9,0,0,1-3-3.38,19.59,19.59,0,0,1-2.08-4l.47-.26a29.92,29.92,0,0,0,2.18,3.31,17.11,17.11,0,0,0,2.79,2.91,13.58,13.58,0,0,0,3.43,2.07,10.44,10.44,0,0,0,4.1.79,10.64,10.64,0,0,0,3.35-.5,8.11,8.11,0,0,0,2.69-1.46,6.59,6.59,0,0,0,1.79-2.34,7.44,7.44,0,0,0,.65-3.16,7.62,7.62,0,0,0-1.11-4.28,10,10,0,0,0-2.91-2.84,19.63,19.63,0,0,0-4.11-2l-4.73-1.66c-1.62-.56-3.19-1.19-4.73-1.9a16.49,16.49,0,0,1-4.12-2.67,12.26,12.26,0,0,1-2.91-4,13.91,13.91,0,0,1-1.11-5.87,17.81,17.81,0,0,1,1-6,19.26,19.26,0,0,1,2.7-5.14,21.8,21.8,0,0,1,4.07-4.19,26.28,26.28,0,0,1,5-3.15,26.87,26.87,0,0,1,5.65-2,26.43,26.43,0,0,1,5.92-.68,15.22,15.22,0,0,1,4,.51,9.14,9.14,0,0,1,3.26,1.56,7.52,7.52,0,0,1,2.19,2.74A9.25,9.25,0,0,1,208.85,219.4Z"/><path class="cls-2" d="M226.09,247.16a12.18,12.18,0,0,1-1.86,2.1,12,12,0,0,1-2.37,1.69,13.3,13.3,0,0,1-2.7,1.13,9.85,9.85,0,0,1-2.83.42,13.35,13.35,0,0,1-3.76-.52,8.74,8.74,0,0,1-3.06-1.59,7.36,7.36,0,0,1-2-2.68,8.92,8.92,0,0,1-.75-3.78,10.16,10.16,0,0,1,2.95-7.22,10.26,10.26,0,0,1,3.25-2.18,10,10,0,0,1,4-.8,6.08,6.08,0,0,1,1.89.28,4.39,4.39,0,0,1,1.52.83,3.74,3.74,0,0,1,1,1.35,4.41,4.41,0,0,1,.37,1.84,4.54,4.54,0,0,1-.51,2.19,5.6,5.6,0,0,1-1.33,1.66,8,8,0,0,1-1.88,1.19,15.07,15.07,0,0,1-2.2.77,17.33,17.33,0,0,1-4.28.56h-.71a6.15,6.15,0,0,0,2.13,4.12,7.45,7.45,0,0,0,4.83,1.43,12.15,12.15,0,0,0,4.29-.78,13.27,13.27,0,0,0,3.78-2.13Zm-15.36-3.65h.74a7.44,7.44,0,0,0,2.19-.34,6.54,6.54,0,0,0,2-1,5.47,5.47,0,0,0,1.5-1.64,4.2,4.2,0,0,0,.59-2.23,3.66,3.66,0,0,0-.51-2,2,2,0,0,0-1.8-.8,3.28,3.28,0,0,0-2.21.78,6.3,6.3,0,0,0-1.47,1.93,10,10,0,0,0-.81,2.4,11.42,11.42,0,0,0-.25,2.24Z"/><path class="cls-2" d="M247.43,247.16a8.63,8.63,0,0,1-1.34,2.13,9.92,9.92,0,0,1-1.77,1.62,8.61,8.61,0,0,1-2,1,5.71,5.71,0,0,1-1.92.37,6.39,6.39,0,0,1-2.91-.6,5.21,5.21,0,0,1-1.93-1.6,6.41,6.41,0,0,1-1.06-2.37,12.33,12.33,0,0,1-.33-2.9,17.74,17.74,0,0,1,.18-2.47,19.12,19.12,0,0,1,.5-2.46c0-.12.08-.26.12-.43a1.84,1.84,0,0,0,.06-.43.27.27,0,0,0-.18-.23c-.33-.12-.69-.24-1.06-.34s-.75-.24-1.12-.38a6.89,6.89,0,0,1-1-.47,3,3,0,0,1-.85-.68,13.09,13.09,0,0,1-.59,3.6,18.64,18.64,0,0,1-1.5,3.5,18.84,18.84,0,0,1-2.18,3.13,17.31,17.31,0,0,1-2.64,2.52l-.29-.3a11.9,11.9,0,0,0,1.57-2.25,18.56,18.56,0,0,0,1.21-2.73,19.85,19.85,0,0,0,.79-2.88,14,14,0,0,0,.28-2.72,6,6,0,0,0-.12-1.23c-.08-.39-.16-.76-.25-1.12s-.17-.69-.25-1a4.13,4.13,0,0,1-.12-1,1.68,1.68,0,0,1,.53-1.31,2,2,0,0,1,1.37-.47.89.89,0,0,1,.68.25,2.5,2.5,0,0,1,.41.61c.12.24.26.48.42.74a1.93,1.93,0,0,0,.68.65,4.3,4.3,0,0,0,1.42.48c.58.1,1.18.18,1.81.26l1.9.24a7.44,7.44,0,0,1,1.7.4,3.4,3.4,0,0,1,1.24.77,1.85,1.85,0,0,1,.47,1.32,5.55,5.55,0,0,1-.07.82,3.63,3.63,0,0,1-.23.75c-.23.83-.44,1.68-.6,2.54a13.16,13.16,0,0,0-.26,2.56,11.13,11.13,0,0,0,.17,2,3.89,3.89,0,0,0,.6,1.56,3,3,0,0,0,1.19,1,4.36,4.36,0,0,0,1.9.35,5.21,5.21,0,0,0,2.9-.81,8.3,8.3,0,0,0,2.2-2.15Z"/><path class="cls-2" d="M273.41,247.16a7.57,7.57,0,0,1-2.79,3.1,7.91,7.91,0,0,1-1.9.84,7.3,7.3,0,0,1-2.1.3,6.72,6.72,0,0,1-3.93-1.13,9.54,9.54,0,0,1-2.71-2.93c-.54.59-1.13,1.18-1.77,1.76a13.65,13.65,0,0,1-2,1.54,11.51,11.51,0,0,1-2.24,1.08,6.72,6.72,0,0,1-2.31.42,5.51,5.51,0,0,1-2.5-.56,5.92,5.92,0,0,1-1.86-1.5,6.78,6.78,0,0,1-1.19-2.14,7.49,7.49,0,0,1-.41-2.5,9.72,9.72,0,0,1,.87-3.94,13.55,13.55,0,0,1,2.31-3.61,12.13,12.13,0,0,1,3.31-2.62,8.08,8.08,0,0,1,3.88-1,4,4,0,0,1,1,.12v-1.25q0-.85.06-2.28c0-.95.12-2,.24-3.16s.27-2.37.46-3.64a38,38,0,0,1,.74-3.8,34.21,34.21,0,0,1,1.08-3.59,15.69,15.69,0,0,1,1.45-3,7.58,7.58,0,0,1,1.9-2.06,4,4,0,0,1,2.4-.77,3.54,3.54,0,0,1,2.55.92,6.26,6.26,0,0,1,1.54,2.26,10.94,10.94,0,0,1,.76,2.87,21,21,0,0,1,.19,2.69,26.32,26.32,0,0,1-.29,3.58c-.2,1.35-.48,2.78-.83,4.3s-.78,3-1.28,4.64-1,3.1-1.6,4.56a39.66,39.66,0,0,1-1.85,4.08,23.35,23.35,0,0,1-2,3.19,11.42,11.42,0,0,0,.93,2.13,7.4,7.4,0,0,0,1.29,1.69,5.28,5.28,0,0,0,1.69,1.11,5.44,5.44,0,0,0,2.16.4,5.6,5.6,0,0,0,4.57-2.22Zm-19.63,1.75a7.56,7.56,0,0,0,3.13-.65,10.32,10.32,0,0,0,2.62-1.72,16.62,16.62,0,0,1-1-2.36,25.22,25.22,0,0,1-.68-2.55c-.19-.86-.34-1.73-.45-2.6s-.19-1.71-.25-2.52a2.8,2.8,0,0,0-.89-.63,3,3,0,0,0-1.3-.26,4.26,4.26,0,0,0-2.48.76,6.73,6.73,0,0,0-1.82,1.9,9.07,9.07,0,0,0-1.13,2.49,9.21,9.21,0,0,0-.39,2.56,8.85,8.85,0,0,0,.26,2.15,4.77,4.77,0,0,0,.81,1.78,4,4,0,0,0,1.44,1.2A4.51,4.51,0,0,0,253.78,248.91Zm7.47-18.27v2.48c0,.94,0,1.93.08,3s.13,2.12.26,3.22a24.82,24.82,0,0,0,.58,3.18,43.53,43.53,0,0,0,2.28-5.26,59.6,59.6,0,0,0,1.8-5.87,58.76,58.76,0,0,0,1.17-6,40.91,40.91,0,0,0,.41-5.67c0-.37,0-.92-.06-1.63a10.26,10.26,0,0,0-.32-2.12,6,6,0,0,0-.8-1.84,1.66,1.66,0,0,0-2.73-.12,6.06,6.06,0,0,0-1,1.78,15.23,15.23,0,0,0-.69,2.54c-.19.95-.35,1.94-.48,3s-.23,2-.3,3.06-.11,1.94-.14,2.8-.05,1.6-.06,2.22S261.25,230.41,261.25,230.64Z"/><path class="cls-2" d="M285.33,235.86a.82.82,0,0,1-.24.58.75.75,0,0,1-.56.25,1.18,1.18,0,0,1-.57-.16l-.66-.37a5.29,5.29,0,0,0-.86-.37,3.5,3.5,0,0,0-1.11-.17,4.1,4.1,0,0,0-2.6.91,8.08,8.08,0,0,0-1.93,2.24,12.06,12.06,0,0,0-1.2,2.84,10.71,10.71,0,0,0-.41,2.73,9.37,9.37,0,0,0,.15,1.68,4.8,4.8,0,0,0,.51,1.48,2.93,2.93,0,0,0,1,1.07,3.19,3.19,0,0,0,1.66.4,5.45,5.45,0,0,0,2-.4,7.86,7.86,0,0,0,1.84-1.06,9.28,9.28,0,0,1,.31-2,14.57,14.57,0,0,1,.73-2.07,15.51,15.51,0,0,1,1-1.94,13.93,13.93,0,0,1,1.2-1.64l.39.24a12.09,12.09,0,0,0-.48,2.08,16.7,16.7,0,0,0-.14,2.1,11.79,11.79,0,0,0,.17,2,4.53,4.53,0,0,0,.63,1.64,3.07,3.07,0,0,0,1.21,1.1,4.3,4.3,0,0,0,2,.4,5.64,5.64,0,0,0,2.73-.68,8.55,8.55,0,0,0,2.19-1.72l.24.12a9.18,9.18,0,0,1-1.4,2,11.5,11.5,0,0,1-1.91,1.71,9.88,9.88,0,0,1-2.24,1.2,6.56,6.56,0,0,1-2.34.45,3.85,3.85,0,0,1-2.67-.94,4.79,4.79,0,0,1-1.42-2.36,12.23,12.23,0,0,1-2.77,2.09,6.49,6.49,0,0,1-3.22.85,5,5,0,0,1-2.21-.46,4.83,4.83,0,0,1-1.61-1.23,5.27,5.27,0,0,1-1-1.82,7.4,7.4,0,0,1-.34-2.21,9.31,9.31,0,0,1,.43-2.75,14.46,14.46,0,0,1,1.19-2.77,15.46,15.46,0,0,1,1.79-2.58,13.8,13.8,0,0,1,2.27-2.13,11.3,11.3,0,0,1,2.59-1.46,7.72,7.72,0,0,1,2.79-.53,5.37,5.37,0,0,1,.8.08,3.69,3.69,0,0,1,.92.25,2.1,2.1,0,0,1,.76.5A1.2,1.2,0,0,1,285.33,235.86Z"/><path class="cls-2" d="M316,247.16a9,9,0,0,1-1.35,2.13,9.59,9.59,0,0,1-1.77,1.62,8.76,8.76,0,0,1-1.95,1,5.82,5.82,0,0,1-1.93.37,6.39,6.39,0,0,1-2.91-.6,5.1,5.1,0,0,1-1.92-1.6,6.43,6.43,0,0,1-1.07-2.37,12.33,12.33,0,0,1-.33-2.9,17.74,17.74,0,0,1,.18-2.47,21,21,0,0,1,.5-2.46c0-.12.08-.26.12-.43a1.84,1.84,0,0,0,.06-.43.27.27,0,0,0-.18-.23c-.33-.12-.69-.24-1.06-.34s-.75-.24-1.11-.38a6.57,6.57,0,0,1-1-.47,3,3,0,0,1-.85-.68,13.09,13.09,0,0,1-.59,3.6,18.64,18.64,0,0,1-1.5,3.5,18.84,18.84,0,0,1-2.18,3.13,17.31,17.31,0,0,1-2.64,2.52l-.29-.3a11.9,11.9,0,0,0,1.57-2.25,18.56,18.56,0,0,0,1.21-2.73,19.85,19.85,0,0,0,.79-2.88,14,14,0,0,0,.28-2.72,6,6,0,0,0-.12-1.23c-.08-.39-.16-.76-.25-1.12s-.17-.69-.25-1a4.13,4.13,0,0,1-.12-1,1.68,1.68,0,0,1,.53-1.31,2,2,0,0,1,1.37-.47.89.89,0,0,1,.68.25,2.25,2.25,0,0,1,.41.61c.12.24.26.48.42.74a2,2,0,0,0,.68.65,4.28,4.28,0,0,0,1.43.48c.57.1,1.17.18,1.8.26l1.9.24a7.66,7.66,0,0,1,1.71.4,3.44,3.44,0,0,1,1.23.77,1.85,1.85,0,0,1,.47,1.32,4.47,4.47,0,0,1-.07.82,3.63,3.63,0,0,1-.23.75c-.23.83-.44,1.68-.6,2.54a13.16,13.16,0,0,0-.26,2.56,11.13,11.13,0,0,0,.17,2,3.89,3.89,0,0,0,.61,1.56,2.9,2.9,0,0,0,1.18,1,4.39,4.39,0,0,0,1.9.35,5.24,5.24,0,0,0,2.91-.81,8.12,8.12,0,0,0,2.19-2.15Z"/><path class="cls-2" d="M341,212a1.46,1.46,0,0,1-.11.58c-.07.19-.16.39-.24.58-.39.9-.8,1.78-1.24,2.64a25.84,25.84,0,0,0-1.17,2.64,38.57,38.57,0,0,0-1.5,4.86q-.63,2.61-1.09,5.47t-.76,5.92q-.28,3.06-.42,6.24a13.15,13.15,0,0,1,3.19,1.07,17.22,17.22,0,0,1,2.8,1.73,23.31,23.31,0,0,0,4.76-4,38.91,38.91,0,0,0,4-5.17,48.91,48.91,0,0,0,3.26-5.85q1.45-3.06,2.56-6t1.88-5.66q.78-2.72,1.26-4.8a3.71,3.71,0,0,1,.61-1.42,6.58,6.58,0,0,1,1.14-1.28,6,6,0,0,1,1.43-1,3.46,3.46,0,0,1,1.52-.37,1.24,1.24,0,0,1,1.06.43,1.9,1.9,0,0,1,.32,1.14v.45a37.93,37.93,0,0,1-1.32,6.28,53.59,53.59,0,0,1-2.43,6.61,52.63,52.63,0,0,1-3.44,6.55,48.24,48.24,0,0,1-4.38,6,42,42,0,0,1-5.2,5.13,29.46,29.46,0,0,1-5.92,3.83c.43.36.86.74,1.27,1.13s.86.79,1.31,1.22c1.91,1.8,3.78,3.64,5.61,5.5s3.72,3.68,5.65,5.44a71.24,71.24,0,0,0,6.05,4.94,41.12,41.12,0,0,0,6.82,4c.65.3,1.37.59,2.16.88s1.61.54,2.45.76a24.44,24.44,0,0,0,2.49.51,14.91,14.91,0,0,0,2.3.2c.37,0,.72,0,1.06,0a5.32,5.32,0,0,0,1.07-.21l.12.68a9.9,9.9,0,0,1-3,1.07,16.33,16.33,0,0,1-3.21.31,21.4,21.4,0,0,1-2.68-.18c-.94-.12-1.89-.29-2.86-.51s-1.9-.5-2.82-.81a20.55,20.55,0,0,1-2.46-1,50.37,50.37,0,0,1-6.45-3.88,68.5,68.5,0,0,1-6.1-4.84,77.46,77.46,0,0,1-5.55-5.47,66.73,66.73,0,0,1-4.78-5.83c-.3-.41-.59-.82-.88-1.25L338.3,246a22.1,22.1,0,0,1-4,.87c0,3.32,0,6.59.13,9.78s.3,6.26.51,9.17l-.71.26a41.43,41.43,0,0,1-1.4-4.41c-.39-1.54-.73-3.13-1-4.76s-.51-3.28-.69-4.94-.33-3.32-.44-5a8.86,8.86,0,0,1-1.49-.28,5.58,5.58,0,0,1-1.39-.58,3.13,3.13,0,0,1-1-1,2.58,2.58,0,0,1,0-2.71,3.14,3.14,0,0,1,1-1,4.68,4.68,0,0,1,1.32-.6,7.34,7.34,0,0,1,1.43-.27v-1.81c0-1.05,0-2.37,0-4s.09-3.3.21-5.12.31-3.68.58-5.57a37.08,37.08,0,0,1,1.13-5.31,18.58,18.58,0,0,1,1.83-4.34,6.87,6.87,0,0,1,2.75-2.71c.43-.23.88-.45,1.34-.64a3.73,3.73,0,0,1,1.43-.29,1.71,1.71,0,0,1,.87.23A.87.87,0,0,1,341,212Zm-14.06,32a1.48,1.48,0,0,0,.35,1,3.06,3.06,0,0,0,.92.66,6.6,6.6,0,0,0,1.21.4c.43.09.84.16,1.22.21-.08-1.68-.15-3.31-.19-4.89a10.8,10.8,0,0,0-1.27.19,3.4,3.4,0,0,0-1.13.43,2.52,2.52,0,0,0-.8.79A2.19,2.19,0,0,0,326.94,244Zm7.37,2.1a15.85,15.85,0,0,0,3.41-1,16,16,0,0,0-1.5-1.82,7.2,7.2,0,0,0-1.81-1.37c0,.69-.05,1.38-.07,2.08S334.31,245.42,334.31,246.11Z"/><path class="cls-2" d="M375.38,242.65a10.59,10.59,0,0,1-.69,3.86,8.88,8.88,0,0,1-4.9,5.13,9.77,9.77,0,0,1-3.84.74,8,8,0,0,1-3.37-.7A7.77,7.77,0,0,1,360,249.8a8,8,0,0,1-1.63-2.78,9.89,9.89,0,0,1-.57-3.39,9.74,9.74,0,0,1,.43-2.88,10.32,10.32,0,0,1,1.2-2.53,12.53,12.53,0,0,1,1.84-2.17,16.18,16.18,0,0,1,2.31-1.79l.36.27a11.72,11.72,0,0,0-2,3.2,9.84,9.84,0,0,0-.71,3.71,10.18,10.18,0,0,0,.43,2.89A9.56,9.56,0,0,0,363,247a6.93,6.93,0,0,0,2.08,2,5.33,5.33,0,0,0,2.84.77,4.36,4.36,0,0,0,1.9-.42,5.08,5.08,0,0,0,1.56-1.12,6.08,6.08,0,0,0,1.07-1.62,4.7,4.7,0,0,0,.4-1.88,6.18,6.18,0,0,0-.29-1.86,7,7,0,0,0-.78-1.69,7.12,7.12,0,0,0-1.22-1.42,6.88,6.88,0,0,0-1.54-1,5.27,5.27,0,0,0-.9-.36l-.94-.26a2.83,2.83,0,0,1-.44-.11,3,3,0,0,1-.45-.18,1.06,1.06,0,0,1-.35-.28.67.67,0,0,1-.15-.44,1.49,1.49,0,0,1,.38-1,4.41,4.41,0,0,1,.92-.79,5.29,5.29,0,0,1,1.13-.53,3.39,3.39,0,0,1,1-.19,4.65,4.65,0,0,1,2.67.77,6.61,6.61,0,0,1,1.92,1.95,9.29,9.29,0,0,1,1.16,2.61A10.34,10.34,0,0,1,375.38,242.65Z"/><path class="cls-2" d="M396.55,260.38a17.52,17.52,0,0,1-.33,3.38,18.44,18.44,0,0,1-1,3.28,15.57,15.57,0,0,1-1.59,3,11.54,11.54,0,0,1-2.16,2.39,10,10,0,0,1-2.72,1.6,8.64,8.64,0,0,1-3.24.59,7.39,7.39,0,0,1-3.09-.65,8.18,8.18,0,0,1-2.53-1.75,8,8,0,0,1-1.71-2.56,7.94,7.94,0,0,1-.62-3.1,8.2,8.2,0,0,1,.73-3.41,11.61,11.61,0,0,1,1.91-3,14.66,14.66,0,0,1,2.68-2.41,14.45,14.45,0,0,1,3.07-1.63l.18.36a11.37,11.37,0,0,0-4.45,4.24,11.49,11.49,0,0,0-1.57,6,8.71,8.71,0,0,0,.37,2.56,6.7,6.7,0,0,0,1.11,2.18,5.75,5.75,0,0,0,1.85,1.53,5.59,5.59,0,0,0,2.57.58,5.12,5.12,0,0,0,3.35-1.1,8,8,0,0,0,2.13-2.74,13.4,13.4,0,0,0,1.15-3.58,21.49,21.49,0,0,0,.34-3.61,23.31,23.31,0,0,0-.28-3.56c-.19-1.17-.42-2.33-.69-3.5s-.54-2.33-.81-3.5-.51-2.34-.68-3.53a14.88,14.88,0,0,1-1.34,1.41,8.87,8.87,0,0,1-1.52,1.16,8.46,8.46,0,0,1-1.74.77A6.44,6.44,0,0,1,384,252a6,6,0,0,1-2.65-.55,5.4,5.4,0,0,1-1.91-1.49,6.55,6.55,0,0,1-1.17-2.2,8.58,8.58,0,0,1-.4-2.67,11.18,11.18,0,0,1,.44-3.14,12.53,12.53,0,0,1,1.25-2.91,14.89,14.89,0,0,1,1.89-2.55,14.48,14.48,0,0,1,2.38-2.07l.35.18a15.79,15.79,0,0,0-2,3.95,13.51,13.51,0,0,0-.73,4.35,10.87,10.87,0,0,0,.21,2,7.5,7.5,0,0,0,.67,2,4.41,4.41,0,0,0,1.24,1.53,3.13,3.13,0,0,0,1.95.61,5.81,5.81,0,0,0,2.6-.61,9.53,9.53,0,0,0,2.23-1.56q-.09-1.09-.09-2.19a24.74,24.74,0,0,1,.21-3.15,14.65,14.65,0,0,1,.75-3.12,10.34,10.34,0,0,1,1.5-2.73,7.06,7.06,0,0,1,2.46-2l.24.12a7.09,7.09,0,0,0-1.19,1.64,9.83,9.83,0,0,0-.75,1.88,11.4,11.4,0,0,0-.39,2,19.74,19.74,0,0,0-.1,2,22,22,0,0,0,.55,5.07c.36,1.56.77,3.09,1.21,4.59s.85,3,1.22,4.52A20.81,20.81,0,0,1,396.55,260.38Z"/><path class="cls-2" d="M421.9,247.16a8.38,8.38,0,0,1-1.37,2,11.18,11.18,0,0,1-1.92,1.71,10.46,10.46,0,0,1-2.26,1.2,6.56,6.56,0,0,1-2.34.45,3.78,3.78,0,0,1-2.65-1,5.81,5.81,0,0,1-1.56-2.33,11,11,0,0,1-2.55,1.92,6.41,6.41,0,0,1-3.08.75,6.22,6.22,0,0,1-2.69-.55,5.34,5.34,0,0,1-1.94-1.49,6.93,6.93,0,0,1-1.17-2.2A8.58,8.58,0,0,1,398,245a11.31,11.31,0,0,1,.44-3.12,13.38,13.38,0,0,1,1.25-2.91,14.27,14.27,0,0,1,1.9-2.56,15.71,15.71,0,0,1,2.37-2.11l.35.27a15.42,15.42,0,0,0-2,3.93,13.16,13.16,0,0,0-.74,4.37,11.4,11.4,0,0,0,.2,2,7.26,7.26,0,0,0,.69,2,4.37,4.37,0,0,0,1.26,1.53,3.15,3.15,0,0,0,2,.61,5.72,5.72,0,0,0,1.93-.34,8,8,0,0,0,1.77-.94,5.62,5.62,0,0,1-.08-.69c0-.23,0-.46,0-.7a12.65,12.65,0,0,1,.41-3.09,23.65,23.65,0,0,1,1.1-3.3,24.76,24.76,0,0,1,1.55-3.14,17.94,17.94,0,0,1,1.8-2.57l.35.27a43.73,43.73,0,0,0-1.12,4.71,26.34,26.34,0,0,0-.45,4.81,15.38,15.38,0,0,0,.14,2.06,5.09,5.09,0,0,0,.56,1.78,3.32,3.32,0,0,0,1.2,1.24,3.94,3.94,0,0,0,2.05.46,5.12,5.12,0,0,0,2.66-.73,9,9,0,0,0,2.2-1.76Z"/><path class="cls-2" d="M445.77,247.16c-.38.71-.78,1.39-1.21,2a8.66,8.66,0,0,1-1.43,1.72,6.6,6.6,0,0,1-1.81,1.19,5.63,5.63,0,0,1-2.31.44,4.44,4.44,0,0,1-2.55-.72,6.51,6.51,0,0,1-1.83-1.93,10.88,10.88,0,0,1-1.21-2.74,30.55,30.55,0,0,1-.76-3.14c-.2-1.07-.35-2.12-.44-3.16l-.27-2.8a7,7,0,0,0-1.37,1.7,33.12,33.12,0,0,0-1.63,3c-.55,1.13-1.08,2.35-1.58,3.68a31.35,31.35,0,0,0-1.23,3.91,5.37,5.37,0,0,1-.28.86,3.92,3.92,0,0,1-.48.82,2.83,2.83,0,0,1-.67.62,1.5,1.5,0,0,1-.86.25,1.23,1.23,0,0,1-1.11-.53,3.68,3.68,0,0,1-.49-1.22,59.37,59.37,0,0,1-1.2-7.2q-.35-3.45-.34-6.88a3.36,3.36,0,0,1,.28-1.44,2.87,2.87,0,0,1,.76-1,3.12,3.12,0,0,1,1.13-.59,4.71,4.71,0,0,1,1.36-.19h.28a1.5,1.5,0,0,1,.37,0,.83.83,0,0,1,.3.13.22.22,0,0,1,.09.24,38.53,38.53,0,0,0-.74,7.9c0,2.68.15,5.26.41,7.73a34.44,34.44,0,0,1,1-3.37c.43-1.25.92-2.52,1.49-3.79a36.61,36.61,0,0,1,1.84-3.65,17.26,17.26,0,0,1,2-2.92,6.48,6.48,0,0,1,1-1,2,2,0,0,1,1.29-.41,1.4,1.4,0,0,1,.74.18,1.63,1.63,0,0,1,.49.45,2.11,2.11,0,0,1,.3.6,5.89,5.89,0,0,1,.16.67c.1.58.2,1.32.3,2.23s.22,1.87.37,2.9.33,2.06.54,3.1a17.78,17.78,0,0,0,.83,2.82,7.24,7.24,0,0,0,1.22,2.06,2.21,2.21,0,0,0,1.69.8,4.25,4.25,0,0,0,1.56-.31,7.85,7.85,0,0,0,1.44-.8,9.61,9.61,0,0,0,1.27-1.13,14.94,14.94,0,0,0,1.07-1.26Z"/><path class="cls-4" d="M208.85,266.37v-.24a1.93,1.93,0,0,0,.55-.1.38.38,0,0,0,.24-.28,2.64,2.64,0,0,0,.06-.65v-5.93a2.59,2.59,0,0,0-.06-.65.4.4,0,0,0-.24-.28,1.34,1.34,0,0,0-.55-.09v-.24l.92,0h2.32l.89,0v.24a1.34,1.34,0,0,0-.55.09.4.4,0,0,0-.24.28,2.59,2.59,0,0,0-.06.65v5.93a2.64,2.64,0,0,0,.06.65.42.42,0,0,0,.25.28,1.92,1.92,0,0,0,.54.1v.24c-.24,0-.53,0-.89,0h-2.32C209.39,266.34,209.08,266.35,208.85,266.37Zm2.26-4.14V262h4.72v.24Zm2.86,4.14v-.24a2,2,0,0,0,.55-.1.38.38,0,0,0,.24-.28,2.64,2.64,0,0,0,.06-.65v-5.93a2.59,2.59,0,0,0-.06-.65.39.39,0,0,0-.25-.28,1.25,1.25,0,0,0-.54-.09v-.24l.95,0h2.31l.86,0v.24a1.25,1.25,0,0,0-.54.09.39.39,0,0,0-.25.28,2.59,2.59,0,0,0-.06.65v5.93a2.16,2.16,0,0,0,.07.65.38.38,0,0,0,.24.28,1.92,1.92,0,0,0,.54.1v.24c-.21,0-.5,0-.86,0h-2.31C214.53,266.34,214.21,266.35,214,266.37Z"/><path class="cls-4" d="M226.17,257.91l2.89,7.45a1.45,1.45,0,0,0,.36.58.61.61,0,0,0,.35.19v.24c-.29,0-.62,0-1,0h-2.32c-.35,0-.64,0-.86,0v-.24a1.15,1.15,0,0,0,.77-.21c.11-.12.09-.39-.07-.79l-1.92-5.3.24-.42L223,263.7a4.56,4.56,0,0,0-.38,1.55.71.71,0,0,0,.3.68,1.72,1.72,0,0,0,.78.2v.24l-.8,0H221.6a2.76,2.76,0,0,0-.44,0v-.24a1,1,0,0,0,.55-.35,3.65,3.65,0,0,0,.55-1l2.65-6.82.63,0Zm.42,5v.24H223l.12-.24Z"/><path class="cls-4" d="M236.89,257.91v.24a1.25,1.25,0,0,0-.54.09.39.39,0,0,0-.25.28,2.59,2.59,0,0,0-.06.65v5.93a2.16,2.16,0,0,0,.07.65.38.38,0,0,0,.24.28,1.92,1.92,0,0,0,.54.1v.24c-.23,0-.53,0-.89,0h-2.32c-.38,0-.68,0-.91,0v-.24a2,2,0,0,0,.55-.1.35.35,0,0,0,.23-.28,2.64,2.64,0,0,0,.06-.65v-5.93a2.59,2.59,0,0,0-.06-.65.38.38,0,0,0-.24-.28,1.25,1.25,0,0,0-.54-.09v-.24l.91,0H236Z"/><path class="cls-4" d="M240.55,257.91l.91,0h3.07a5.57,5.57,0,0,1,2.7.51,1.67,1.67,0,0,1,.89,1.57,2.18,2.18,0,0,1-.18.86,2,2,0,0,1-.61.76,3.27,3.27,0,0,1-1.17.54,7.73,7.73,0,0,1-1.9.19h-1.14v-.24h1a1.45,1.45,0,0,0,.93-.26,1.39,1.39,0,0,0,.43-.72,3.88,3.88,0,0,0,.11-1,3.36,3.36,0,0,0-.25-1.46.92.92,0,0,0-.89-.52c-.27,0-.45.06-.53.2a1.86,1.86,0,0,0-.12.82v5.93a2.16,2.16,0,0,0,.07.65.38.38,0,0,0,.24.28,1.92,1.92,0,0,0,.54.1v.24c-.23,0-.53,0-.89,0h-2.32c-.38,0-.68,0-.91,0v-.24a2,2,0,0,0,.55-.1.35.35,0,0,0,.23-.28,2.64,2.64,0,0,0,.06-.65v-5.93a2.59,2.59,0,0,0-.06-.65.38.38,0,0,0-.24-.28,1.25,1.25,0,0,0-.54-.09Zm2.49,4.24c.29,0,.56,0,.82.05l.7.06.55.05a4.18,4.18,0,0,1,1.92.44,1.57,1.57,0,0,1,.78,1.12l.25,1.24a1.83,1.83,0,0,0,.22.61.39.39,0,0,0,.32.17.4.4,0,0,0,.2,0,.45.45,0,0,0,.17-.11l.16.15a2,2,0,0,1-.81.51,3.33,3.33,0,0,1-1,.14,2.54,2.54,0,0,1-1.25-.28,1.35,1.35,0,0,1-.59-1l-.18-1.2a5.83,5.83,0,0,0-.17-.87,1.83,1.83,0,0,0-.29-.61.61.61,0,0,0-.49-.22h-1.29Z"/><path class="cls-4" d="M261,257.74a3.43,3.43,0,0,1,1.2.16,4.66,4.66,0,0,1,.73.32l.24.12a.37.37,0,0,0,.17.05c.13,0,.21-.18.26-.53h.28c0,.17,0,.36,0,.59s0,.51,0,.88v1.45h-.28a4.05,4.05,0,0,0-.3-1.28,2.75,2.75,0,0,0-.71-1,1.54,1.54,0,0,0-1.07-.41,1.32,1.32,0,0,0-.87.29,1,1,0,0,0-.35.82,1.34,1.34,0,0,0,.22.76,3,3,0,0,0,.67.67l1.22.87a11.68,11.68,0,0,1,1,.74,3.07,3.07,0,0,1,.7.84,2.18,2.18,0,0,1,.26,1.12,2,2,0,0,1-.44,1.33,2.69,2.69,0,0,1-1.19.78,5,5,0,0,1-1.62.26,4.63,4.63,0,0,1-2.11-.45.86.86,0,0,0-.41-.16c-.13,0-.21.17-.26.52h-.28c0-.2,0-.45,0-.72s0-.63,0-1.07V263h.28a6.44,6.44,0,0,0,.27,1.56,2.59,2.59,0,0,0,.68,1.18,1.65,1.65,0,0,0,1.22.45,1.68,1.68,0,0,0,1.05-.31,1.05,1.05,0,0,0,.39-.86,1.71,1.71,0,0,0-.49-1.24,8.28,8.28,0,0,0-1.26-1c-.37-.26-.72-.51-1.05-.77a3,3,0,0,1-.78-.86A2,2,0,0,1,258,260a1.94,1.94,0,0,1,.42-1.29,2.51,2.51,0,0,1,1.1-.73A4.37,4.37,0,0,1,261,257.74Z"/><path class="cls-4" d="M275.74,257.91c0,.47-.05.92-.07,1.36s0,.77,0,1,0,.33,0,.48,0,.28,0,.38h-.27a6.69,6.69,0,0,0-.67-1.76,2.59,2.59,0,0,0-.82-.92,1.64,1.64,0,0,0-.87-.27h0V265a2.19,2.19,0,0,0,.1.73.54.54,0,0,0,.39.31,3.58,3.58,0,0,0,.84.07v.24l-1.13,0h-2.89l-1.06,0v-.24a3.69,3.69,0,0,0,.84-.07.51.51,0,0,0,.38-.31,1.93,1.93,0,0,0,.11-.73v-6.84h0a1.63,1.63,0,0,0-.86.27,2.55,2.55,0,0,0-.82.91,6.63,6.63,0,0,0-.67,1.77H268a2,2,0,0,0,0-.38c0-.15,0-.31,0-.48s0-.56,0-1,0-.89-.06-1.36l1.26,0h5.29Z"/><path class="cls-4" d="M286.6,257.9v.23a2.07,2.07,0,0,0-.58.5,5.35,5.35,0,0,0-.68,1.09L283.19,264h-.81l-2.79-5.17a1.81,1.81,0,0,0-.38-.53.52.52,0,0,0-.31-.14v-.25l.77.05.87,0,1.33,0,1.3,0v.25a4.79,4.79,0,0,0-.55,0,.69.69,0,0,0-.35.11c-.08.06-.08.17,0,.32l1.8,3.47-.56.74,1-2a4.74,4.74,0,0,0,.56-1.57,1,1,0,0,0-.21-.83,1.08,1.08,0,0,0-.74-.27v-.23l.8,0h1.25Zm-2.37,3.77v3.43a2.64,2.64,0,0,0,.06.65.4.4,0,0,0,.25.28,1.84,1.84,0,0,0,.53.1v.24c-.23,0-.53,0-.92,0h-2.31c-.38,0-.67,0-.89,0v-.24a1.93,1.93,0,0,0,.55-.1.38.38,0,0,0,.24-.28,2.64,2.64,0,0,0,.06-.65v-2.45l1.3.74Z"/><path class="cls-4" d="M294.26,257.91v.24a1.6,1.6,0,0,0-.61.09.41.41,0,0,0-.28.28,2.12,2.12,0,0,0-.07.65v6.17a1.88,1.88,0,0,0,0,.48.31.31,0,0,0,.18.22,1,1,0,0,0,.38,0h.4a1.49,1.49,0,0,0,.91-.41,4.34,4.34,0,0,0,.88-1.1,4.39,4.39,0,0,0,.53-1.44h.27c0,.29,0,.66,0,1.1,0,.21,0,.51,0,.9s0,.81.07,1.23c-.41,0-.86,0-1.37,0h-4.05q-.81,0-1.5,0v-.24a1.93,1.93,0,0,0,.55-.1.38.38,0,0,0,.24-.28,2.64,2.64,0,0,0,.06-.65v-5.93a2.59,2.59,0,0,0-.06-.65.39.39,0,0,0-.25-.28,1.25,1.25,0,0,0-.54-.09v-.24l.92,0h2.38Z"/><path class="cls-4" d="M304.61,257.91v.24a1.25,1.25,0,0,0-.54.09.41.41,0,0,0-.25.28,2.59,2.59,0,0,0-.06.65v5.93a2.55,2.55,0,0,0,.07.65.4.4,0,0,0,.24.28,1.92,1.92,0,0,0,.54.1v.24c-.23,0-.53,0-.89,0H301.4c-.37,0-.68,0-.91,0v-.24a1.93,1.93,0,0,0,.55-.1.38.38,0,0,0,.24-.28,2.64,2.64,0,0,0,.06-.65v-5.93a2.59,2.59,0,0,0-.06-.65.39.39,0,0,0-.25-.28,1.25,1.25,0,0,0-.54-.09v-.24l.91,0h2.32Z"/><path class="cls-4" d="M311.54,257.74a3.53,3.53,0,0,1,1.21.16,4.66,4.66,0,0,1,.73.32c.1,0,.17.1.23.12a.41.41,0,0,0,.18.05c.12,0,.21-.18.26-.53h.27c0,.17,0,.36,0,.59s0,.51,0,.88,0,.85,0,1.45h-.27a3.81,3.81,0,0,0-.31-1.28,2.73,2.73,0,0,0-.7-1,1.56,1.56,0,0,0-1.07-.41,1.32,1.32,0,0,0-.87.29,1,1,0,0,0-.35.82,1.26,1.26,0,0,0,.22.76,2.81,2.81,0,0,0,.67.67l1.21.87a11.91,11.91,0,0,1,1,.74,3.26,3.26,0,0,1,.7.84,2.29,2.29,0,0,1,.26,1.12,2,2,0,0,1-.45,1.33,2.64,2.64,0,0,1-1.19.78,4.9,4.9,0,0,1-1.61.26,4.59,4.59,0,0,1-1.3-.15,5.1,5.1,0,0,1-.82-.3.83.83,0,0,0-.4-.16c-.13,0-.22.17-.27.52h-.27c0-.2,0-.45,0-.72s0-.63,0-1.07,0-1,0-1.67h.27a6.44,6.44,0,0,0,.27,1.56,2.79,2.79,0,0,0,.68,1.18,1.69,1.69,0,0,0,1.23.45,1.65,1.65,0,0,0,1-.31,1.05,1.05,0,0,0,.39-.86,1.67,1.67,0,0,0-.49-1.24,7.69,7.69,0,0,0-1.25-1c-.38-.26-.73-.51-1-.77a3.2,3.2,0,0,1-.79-.86,2.13,2.13,0,0,1-.29-1.13,1.94,1.94,0,0,1,.42-1.29,2.45,2.45,0,0,1,1.1-.73A4.27,4.27,0,0,1,311.54,257.74Z"/><path class="cls-4" d="M326.33,257.91c0,.47-.06.92-.07,1.36s0,.77,0,1,0,.33,0,.48,0,.28,0,.38H326a6.37,6.37,0,0,0-.66-1.76,2.69,2.69,0,0,0-.82-.92,1.64,1.64,0,0,0-.87-.27h0V265a2,2,0,0,0,.1.73.54.54,0,0,0,.39.31,3.54,3.54,0,0,0,.83.07v.24l-1.12,0H321l-1.06,0v-.24a3.54,3.54,0,0,0,.83-.07.54.54,0,0,0,.39-.31,2,2,0,0,0,.1-.73v-6.84h0a1.64,1.64,0,0,0-.87.27,2.65,2.65,0,0,0-.82.91,7,7,0,0,0-.66,1.77h-.28a2,2,0,0,0,0-.38c0-.15,0-.31,0-.48s0-.56,0-1,0-.89-.07-1.36l1.27,0h5.28Z"/></svg>